<svg width="21" height="21" viewBox="0 0 21 21" fill="none" xmlns="http://www.w3.org/2000/svg">
<g clip-path="url(#clip0_1_7723)">
<path d="M20.1429 10.5C20.1429 4.977 15.6659 0.5 10.1429 0.5C4.61994 0.5 0.142944 4.977 0.142944 10.5C0.142944 16.023 4.61994 20.5 10.1429 20.5C15.6659 20.5 20.1429 16.023 20.1429 10.5ZM18.1429 10.5C18.1431 11.9971 17.7232 13.4642 16.9309 14.7345C16.1387 16.0048 15.0058 17.0273 13.6613 17.6857C12.3168 18.3441 10.8144 18.612 9.32518 18.459C7.83592 18.3059 6.41949 17.7381 5.23694 16.82L16.4629 5.594C17.5545 6.99615 18.1459 8.72305 18.1429 10.5ZM15.0489 4.18L3.82294 15.406C2.62641 13.8668 2.0331 11.9437 2.15448 9.99794C2.27586 8.05218 3.10357 6.2177 4.48211 4.83916C5.86064 3.46062 7.69512 2.63291 9.64089 2.51154C11.5867 2.39016 13.5098 2.98347 15.0489 4.18Z" fill="#A30D11"/>
</g>
<defs>
<clipPath id="clip0_1_7723">
<rect width="20" height="20" fill="white" transform="translate(0.142944 0.5)"/>
</clipPath>
</defs>
</svg>
