<svg width="17" height="23" viewBox="0 0 17 23" fill="none" xmlns="http://www.w3.org/2000/svg">
<path d="M15.1874 21.5V14.4C15.1873 13.4806 15.0059 12.5702 14.6538 11.7209C14.3018 10.8715 13.7858 10.0999 13.1354 9.45L11.1854 7.5V14.087C11.1854 14.977 10.1084 15.424 9.47845 14.794L8.18345 13.5C7.68345 13 6.48245 12.7 5.68145 13.5C4.88145 14.3 5.18145 15.5 5.68145 16L11.1854 21.5" stroke="#FFB300" stroke-width="2" stroke-linecap="round" stroke-linejoin="round"/>
<path d="M7.1875 1.5H9.1875C9.71793 1.5 10.2266 1.71071 10.6017 2.08579C10.9768 2.46086 11.1875 2.96957 11.1875 3.5V5.5M7.1875 1.5C7.1875 2.833 7.9875 5.5 11.1875 5.5M7.1875 1.5H5.1875M11.1875 5.5V11.5M5.1875 1.5H3.1875C2.65707 1.5 2.14836 1.71071 1.77329 2.08579C1.39821 2.46086 1.1875 2.96957 1.1875 3.5V5.5M5.1875 1.5C5.1875 2.833 4.3875 5.5 1.1875 5.5M1.1875 11.5V13.5C1.1875 14.0304 1.39821 14.5391 1.77329 14.9142C2.14836 15.2893 2.65707 15.5 3.1875 15.5H5.1875C5.1875 14.167 4.3875 11.5 1.1875 11.5ZM1.1875 11.5V5.5" stroke="#FFB300" stroke-width="2" stroke-linecap="round" stroke-linejoin="round"/>
<path d="M5.1875 8.5C5.1875 9.05228 5.63522 9.5 6.1875 9.5C6.73978 9.5 7.1875 9.05228 7.1875 8.5C7.1875 7.94772 6.73978 7.5 6.1875 7.5C5.63522 7.5 5.1875 7.94772 5.1875 8.5Z" stroke="#FFB300" stroke-width="2" stroke-linecap="round" stroke-linejoin="round"/>
</svg>
