<svg width="32" height="32" viewBox="0 0 32 32" fill="none" xmlns="http://www.w3.org/2000/svg">
<path fill-rule="evenodd" clip-rule="evenodd" d="M10.3333 10.0002C10.3333 6.87055 12.8703 4.3335 16 4.3335C19.1296 4.3335 21.6666 6.87055 21.6666 10.0002C21.6666 13.1298 19.1296 15.6668 16 15.6668C12.8703 15.6668 10.3333 13.1298 10.3333 10.0002ZM16 6.3335C13.9749 6.3335 12.3333 7.97512 12.3333 10.0002C12.3333 12.0252 13.9749 13.6668 16 13.6668C18.025 13.6668 19.6666 12.0252 19.6666 10.0002C19.6666 7.97512 18.025 6.3335 16 6.3335Z" fill="white"/>
<path fill-rule="evenodd" clip-rule="evenodd" d="M10.6666 19.6668C9.00977 19.6668 7.66663 21.01 7.66663 22.6668V24.2512C7.66663 24.2753 7.68411 24.2959 7.70792 24.2998C13.1996 25.1964 18.8003 25.1964 24.292 24.2998C24.3158 24.2959 24.3333 24.2753 24.3333 24.2512V22.6668C24.3333 21.01 22.9901 19.6668 21.3333 19.6668H20.8788C20.8437 19.6668 20.8087 19.6724 20.7753 19.6833L19.6213 20.0601C17.2682 20.8285 14.7317 20.8285 12.3786 20.0601L11.2246 19.6833C11.1912 19.6724 11.1563 19.6668 11.1211 19.6668H10.6666ZM5.66663 22.6668C5.66663 19.9054 7.9052 17.6668 10.6666 17.6668H11.1211C11.3671 17.6668 11.6115 17.7057 11.8454 17.7821L12.9994 18.1589C14.9491 18.7955 17.0508 18.7955 19.0005 18.1589L20.1545 17.7821C20.3884 17.7057 20.6328 17.6668 20.8788 17.6668H21.3333C24.0947 17.6668 26.3333 19.9054 26.3333 22.6668V24.2512C26.3333 25.2555 25.6054 26.1118 24.6143 26.2737C18.9092 27.2051 13.0908 27.2051 7.38565 26.2737C6.39447 26.1118 5.66663 25.2555 5.66663 24.2512V22.6668Z" fill="white"/>
</svg>
