<svg width="32" height="32" viewBox="0 0 32 32" fill="none" xmlns="http://www.w3.org/2000/svg">
<path fill-rule="evenodd" clip-rule="evenodd" d="M10.3333 10.0002C10.3333 6.87055 12.8704 4.3335 16 4.3335C19.1296 4.3335 21.6667 6.87055 21.6667 10.0002C21.6667 13.1298 19.1296 15.6668 16 15.6668C12.8704 15.6668 10.3333 13.1298 10.3333 10.0002ZM16 6.3335C13.975 6.3335 12.3333 7.97512 12.3333 10.0002C12.3333 12.0252 13.975 13.6668 16 13.6668C18.025 13.6668 19.6667 12.0252 19.6667 10.0002C19.6667 7.97512 18.025 6.3335 16 6.3335Z" fill="#9E9E9E"/>
<path fill-rule="evenodd" clip-rule="evenodd" d="M10.6667 19.6668C9.00981 19.6668 7.66666 21.01 7.66666 22.6668V24.2512C7.66666 24.2753 7.68415 24.2959 7.70796 24.2998C13.1996 25.1964 18.8004 25.1964 24.292 24.2998C24.3158 24.2959 24.3333 24.2753 24.3333 24.2512V22.6668C24.3333 21.01 22.9902 19.6668 21.3333 19.6668H20.8788C20.8437 19.6668 20.8088 19.6724 20.7754 19.6833L19.6214 20.0601C17.2682 20.8285 14.7317 20.8285 12.3786 20.0601L11.2246 19.6833C11.1912 19.6724 11.1563 19.6668 11.1212 19.6668H10.6667ZM5.66666 22.6668C5.66666 19.9054 7.90524 17.6668 10.6667 17.6668H11.1212C11.3671 17.6668 11.6116 17.7057 11.8454 17.7821L12.9994 18.1589C14.9492 18.7955 17.0508 18.7955 19.0005 18.1589L20.1546 17.7821C20.3884 17.7057 20.6328 17.6668 20.8788 17.6668H21.3333C24.0948 17.6668 26.3333 19.9054 26.3333 22.6668V24.2512C26.3333 25.2555 25.6055 26.1118 24.6143 26.2737C18.9092 27.2051 13.0908 27.2051 7.38569 26.2737C6.39451 26.1118 5.66666 25.2555 5.66666 24.2512V22.6668Z" fill="#9E9E9E"/>
</svg>
