<svg width="85" height="85" viewBox="0 0 85 85" fill="none" xmlns="http://www.w3.org/2000/svg">
<path d="M30.8 26.8C30.08 26.8 29.6 27.52 29.6 28V34H27.2V28C27.2 27.28 26.72 26.8 26 26.8C25.28 26.8 24.8 27.52 24.8 28V34H22.4V28C22.4 27.28 21.92 26.8 21.2 26.8C20.48 26.8 20 27.52 20 28V35.92C20 38.08 21.68 39.76 23.6 40V56.8C23.6 58.24 24.56 59.2 26 59.2C27.44 59.2 28.4 58.24 28.4 56.8V40C30.32 39.76 32 38.08 32 35.92V28C32 27.52 31.52 26.8 30.8 26.8ZM35.6 28V42.4H38V56.8C38 58.24 38.96 59.2 40.4 59.2C41.84 59.2 42.8 58.24 42.8 56.8V20.8C38.72 20.8 35.6 23.92 35.6 28ZM52.4 25.6C49.04 25.6 46.4 29.2 46.4 33.52C46.16 36.4 47.6 39.04 50 40.72V56.8C50 58.24 50.96 59.2 52.4 59.2C53.84 59.2 54.8 58.24 54.8 56.8V40.72C57.2 39.04 58.64 36.4 58.4 33.52C58.4 29.2 55.76 25.6 52.4 25.6Z" fill="#1C2B58"/>
<path opacity="0.1" d="M55.5903 67.7195V44.3397C55.1268 44.2578 54.6247 44.2168 54.1227 44.2168C47.982 44.2168 43 49.4988 43 56.0091C43 62.5194 47.982 67.8014 54.1227 67.8014C54.6247 67.8423 55.1268 67.8014 55.5903 67.7195Z" fill="#0C1E5B"/>
<path d="M58.024 65.4677C64.167 65.4677 69.1468 60.188 69.1468 53.6752C69.1468 47.1625 64.167 41.8828 58.024 41.8828C51.8811 41.8828 46.9012 47.1625 46.9012 53.6752C46.9012 60.188 51.8811 65.4677 58.024 65.4677Z" fill="#FF5B5B"/>
<path d="M62.0796 48.7979L53 57.9517M53 48.7979L62.0796 57.9517" stroke="white" stroke-width="4"/>
<path d="M62.0796 48.7979L53 57.9517M53 48.7979L62.0796 57.9517" stroke="white" stroke-width="4"/>
<ellipse cx="42.1554" cy="42.5" rx="42.1554" ry="42.5" fill="#F7A400" fill-opacity="0.15"/>
</svg>
