<svg width="40" height="40" viewBox="0 0 40 40" fill="none" xmlns="http://www.w3.org/2000/svg">
<path d="M20 10.8333V20.4883L13.5767 26.91C13.4202 27.0665 13.3323 27.2787 13.3323 27.5C13.3323 27.7213 13.4202 27.9335 13.5767 28.09C13.7331 28.2465 13.9454 28.3344 14.1667 28.3344C14.388 28.3344 14.6002 28.2465 14.7567 28.09L21.4233 21.4233C21.5007 21.3458 21.562 21.2538 21.6037 21.1526C21.6455 21.0513 21.6669 20.9428 21.6667 20.8333V10.8333C21.6667 10.6123 21.5789 10.4004 21.4226 10.2441C21.2663 10.0878 21.0543 10 20.8333 10C20.6123 10 20.4004 10.0878 20.2441 10.2441C20.0878 10.4004 20 10.6123 20 10.8333ZM34.1667 26.6667H24.1667C23.9456 26.6667 23.7337 26.7545 23.5774 26.9107C23.4211 27.067 23.3333 27.279 23.3333 27.5C23.3333 27.721 23.4211 27.933 23.5774 28.0893C23.7337 28.2455 23.9456 28.3333 24.1667 28.3333H34.1667C34.3877 28.3333 34.5996 28.2455 34.7559 28.0893C34.9122 27.933 35 27.721 35 27.5C35 27.279 34.9122 27.067 34.7559 26.9107C34.5996 26.7545 34.3877 26.6667 34.1667 26.6667Z" fill="#A098AE"/>
<path d="M32.5 9.99988C32.279 9.99988 32.067 10.0877 31.9108 10.244C31.7545 10.4002 31.6667 10.6122 31.6667 10.8332V11.7465C30.3476 10.153 28.6922 8.8711 26.8192 7.99281C24.9462 7.11453 22.902 6.66161 20.8334 6.66654C18.5036 6.66659 16.2098 7.24122 14.1552 8.33951C12.1006 9.4378 10.3485 11.0259 9.05425 12.963C7.75997 14.9002 6.96342 17.1266 6.73516 19.4452C6.50689 21.7637 6.85396 24.1028 7.74561 26.2551C8.63727 28.4075 10.046 30.3068 11.847 31.7846C13.648 33.2625 15.7857 34.2734 18.0707 34.7278C20.3557 35.1822 22.7175 35.066 24.9469 34.3896C27.1763 33.7132 29.2044 32.4974 30.8517 30.8499C31.0086 30.6927 31.0967 30.4797 31.0965 30.2576C31.0964 30.0355 31.008 29.8226 30.8509 29.6657C30.6937 29.5088 30.4807 29.4207 30.2586 29.4209C30.0365 29.421 29.8236 29.5094 29.6667 29.6665C27.8666 31.4702 25.5583 32.6806 23.0511 33.1356C20.5438 33.5906 17.9574 33.2684 15.6384 32.2123C13.3193 31.1562 11.3785 29.4165 10.0758 27.2264C8.77319 25.0363 8.17102 22.5004 8.34999 19.9585C8.52896 17.4166 9.48053 14.9901 11.0772 13.0042C12.6738 11.0182 14.8393 9.56767 17.2835 8.84691C19.7276 8.12614 22.3337 8.16958 24.7524 8.97141C27.1712 9.77324 29.2871 11.2951 30.8167 13.3332H29.1667C28.9457 13.3332 28.7337 13.421 28.5774 13.5773C28.4212 13.7336 28.3334 13.9455 28.3334 14.1665C28.3334 14.3876 28.4212 14.5995 28.5774 14.7558C28.7337 14.9121 28.9457 14.9999 29.1667 14.9999H32.5C32.721 14.9999 32.933 14.9121 33.0893 14.7558C33.2456 14.5995 33.3334 14.3876 33.3334 14.1665V10.8332C33.3334 10.6122 33.2456 10.4002 33.0893 10.244C32.933 10.0877 32.721 9.99988 32.5 9.99988Z" fill="#A098AE"/>
<path d="M29.1667 16.6665C28.9457 16.6665 28.7337 16.7543 28.5774 16.9106C28.4211 17.0669 28.3333 17.2788 28.3333 17.4998V18.4065C27.1462 18.5786 26.0408 19.1116 25.1669 19.9333C24.2931 20.755 23.6931 21.8256 23.4483 22.9998C23.3989 23.2423 23.404 23.4927 23.4633 23.733C23.5227 23.9732 23.6348 24.1972 23.7915 24.3887C23.9482 24.5802 24.1456 24.7344 24.3694 24.8401C24.5931 24.9458 24.8376 25.0004 25.085 24.9998H33.2517C33.4991 25.0004 33.7436 24.9458 33.9673 24.8401C34.1911 24.7344 34.3885 24.5802 34.5452 24.3887C34.7019 24.1972 34.814 23.9732 34.8734 23.733C34.9327 23.4927 34.9378 23.2423 34.8883 22.9998C34.6434 21.8251 34.0429 20.7542 33.1684 19.9324C32.2939 19.1107 31.1877 18.5779 30 18.4065V17.4998C30 17.2788 29.9122 17.0669 29.7559 16.9106C29.5997 16.7543 29.3877 16.6665 29.1667 16.6665Z" fill="#A098AE"/>
</svg>
