<svg width="85" height="85" viewBox="0 0 85 85" fill="none" xmlns="http://www.w3.org/2000/svg">
<ellipse cx="42.1554" cy="42.5" rx="42.1554" ry="42.5" fill="#F7A400" fill-opacity="0.15"/>
<g clip-path="url(#clip0_105_1232)">
<path d="M34.8 29.8C34.08 29.8 33.6 30.52 33.6 31V37H31.2V31C31.2 30.28 30.72 29.8 30 29.8C29.28 29.8 28.8 30.52 28.8 31V37H26.4V31C26.4 30.28 25.92 29.8 25.2 29.8C24.48 29.8 24 30.52 24 31V38.92C24 41.08 25.68 42.76 27.6 43V59.8C27.6 61.24 28.56 62.2 30 62.2C31.44 62.2 32.4 61.24 32.4 59.8V43C34.32 42.76 36 41.08 36 38.92V31C36 30.52 35.52 29.8 34.8 29.8ZM39.6 31V45.4H42V59.8C42 61.24 42.96 62.2 44.4 62.2C45.84 62.2 46.8 61.24 46.8 59.8V23.8C42.72 23.8 39.6 26.92 39.6 31ZM56.4 28.6C53.04 28.6 50.4 32.2 50.4 36.52C50.16 39.4 51.6 42.04 54 43.72V59.8C54 61.24 54.96 62.2 56.4 62.2C57.84 62.2 58.8 61.24 58.8 59.8V43.72C61.2 42.04 62.64 39.4 62.4 36.52C62.4 32.2 59.76 28.6 56.4 28.6Z" fill="#1C2B58"/>
<path opacity="0.1" d="M53.5762 46.5507C52.8893 46.389 52.2024 46.3082 51.4773 46.3082C45.8294 46.3082 41.25 51.1573 41.25 57.1378C41.25 59.926 42.2422 62.4718 43.8831 64.371L53.5762 60.1685V46.5507Z" fill="#0C1E5B"/>
<path d="M55.637 67.1592C61.2853 67.1592 65.8643 62.3106 65.8643 56.3296C65.8643 50.3486 61.2853 45.5 55.637 45.5C49.9886 45.5 45.4097 50.3486 45.4097 56.3296C45.4097 62.3106 49.9886 67.1592 55.637 67.1592Z" fill="#FF5B5B"/>
<path d="M54.5686 60.5322C54.2633 60.5322 53.9962 60.411 53.7672 60.1686L50.5235 56.7338C50.0656 56.2489 50.0656 55.4811 50.5235 55.0366C50.9814 54.5517 51.7065 54.5517 52.1263 55.0366L54.5686 57.6228L59.148 52.7737C59.606 52.2888 60.331 52.2888 60.7508 52.7737C61.2087 53.2587 61.2087 54.0264 60.7508 54.4709L55.37 60.1686C55.1411 60.411 54.8739 60.5322 54.5686 60.5322Z" fill="white"/>
</g>
<defs>
<clipPath id="clip0_105_1232">
<rect width="48" height="48" fill="white" transform="translate(18 19)"/>
</clipPath>
</defs>
</svg>
