<svg width="40" height="40" viewBox="0 0 40 40" fill="none" xmlns="http://www.w3.org/2000/svg">
<path d="M8.33334 30.8335C8.33334 33.6968 14.8133 35.0002 20.8333 35.0002C26.8533 35.0002 33.3333 33.6968 33.3333 30.8335C33.3333 28.5602 29.3983 27.5335 26.5633 27.0902L28.5 25.1668C30.0152 23.6518 31.047 21.7215 31.4651 19.62C31.8832 17.5185 31.6687 15.3402 30.8488 13.3607C30.0289 11.3811 28.6403 9.68908 26.8588 8.49866C25.0772 7.30824 22.9827 6.67285 20.84 6.67285C18.6973 6.67285 16.6028 7.30824 14.8212 8.49866C13.0397 9.68908 11.6511 11.3811 10.8312 13.3607C10.0113 15.3402 9.79681 17.5185 10.2149 19.62C10.633 21.7215 11.6648 23.6518 13.18 25.1668L15.11 27.0968C12.2683 27.5335 8.33334 28.5602 8.33334 30.8335ZM22.5 13.3335C22.5 13.1787 22.5431 13.027 22.6245 12.8954C22.7058 12.7637 22.8222 12.6574 22.9607 12.5881C23.0991 12.5189 23.254 12.4896 23.4082 12.5035C23.5623 12.5174 23.7095 12.574 23.8333 12.6668C24.8653 13.4411 25.7222 14.4244 26.348 15.5525C26.9738 16.6806 27.3544 17.9282 27.465 19.2135C27.5016 19.6084 27.3952 20.0032 27.1652 20.3262C26.9351 20.6493 26.5968 20.8789 26.2117 20.9735L24.1667 21.4852V23.3335C24.1667 23.5545 24.0789 23.7665 23.9226 23.9228C23.7663 24.079 23.5543 24.1668 23.3333 24.1668C23.1123 24.1668 22.9004 24.079 22.7441 23.9228C22.5878 23.7665 22.5 23.5545 22.5 23.3335V13.3335ZM15 15.0002V13.3335C15 13.1125 15.0878 12.9005 15.2441 12.7442C15.4004 12.588 15.6123 12.5002 15.8333 12.5002C16.0543 12.5002 16.2663 12.588 16.4226 12.7442C16.5789 12.9005 16.6667 13.1125 16.6667 13.3335V15.0002C16.67 15.2876 16.7487 15.5691 16.8949 15.8165C17.0412 16.064 17.2498 16.2687 17.5 16.4102V13.3335C17.5 13.1125 17.5878 12.9005 17.7441 12.7442C17.9004 12.588 18.1123 12.5002 18.3333 12.5002C18.5543 12.5002 18.7663 12.588 18.9226 12.7442C19.0789 12.9005 19.1667 13.1125 19.1667 13.3335V16.4102C19.4168 16.2687 19.6255 16.064 19.7717 15.8165C19.918 15.5691 19.9967 15.2876 20 15.0002V13.3335C20 13.1125 20.0878 12.9005 20.2441 12.7442C20.4004 12.588 20.6123 12.5002 20.8333 12.5002C21.0543 12.5002 21.2663 12.588 21.4226 12.7442C21.5789 12.9005 21.6667 13.1125 21.6667 13.3335V15.0002C21.6639 15.737 21.4171 16.4522 20.9648 17.0339C20.5124 17.6155 19.8801 18.031 19.1667 18.2152V23.3335C19.1667 23.5545 19.0789 23.7665 18.9226 23.9228C18.7663 24.079 18.5543 24.1668 18.3333 24.1668C18.1123 24.1668 17.9004 24.079 17.7441 23.9228C17.5878 23.7665 17.5 23.5545 17.5 23.3335V18.2152C16.7865 18.031 16.1542 17.6155 15.7019 17.0339C15.2496 16.4522 15.0028 15.737 15 15.0002ZM16.59 28.5768L19.065 31.0535C19.2972 31.2858 19.5728 31.4701 19.8763 31.5958C20.1797 31.7216 20.5049 31.7863 20.8333 31.7863C21.1618 31.7863 21.487 31.7216 21.7904 31.5958C22.0938 31.4701 22.3695 31.2858 22.6017 31.0535L25.0767 28.5768C29.6567 29.1068 31.6667 30.3135 31.6667 30.8335C31.6667 31.5802 27.9817 33.3335 20.8333 33.3335C13.685 33.3335 10 31.5802 10 30.8335C10 30.3135 12.01 29.1068 16.59 28.5768Z" fill="white"/>
</svg>
