<svg width="26" height="29" viewBox="0 0 26 29" fill="none" xmlns="http://www.w3.org/2000/svg">
<path d="M0.333374 24.8335C0.333374 27.6968 6.81337 29.0002 12.8334 29.0002C18.8534 29.0002 25.3334 27.6968 25.3334 24.8335C25.3334 22.5602 21.3984 21.5335 18.5634 21.0902L20.5 19.1668C22.0152 17.6518 23.0471 15.7215 23.4651 13.62C23.8832 11.5185 23.6687 9.34024 22.8488 7.36066C22.0289 5.38107 20.6404 3.68908 18.8588 2.49866C17.0773 1.30824 14.9827 0.672852 12.84 0.672852C10.6974 0.672852 8.60282 1.30824 6.82127 2.49866C5.03972 3.68908 3.65118 5.38107 2.83126 7.36066C2.01134 9.34024 1.79685 11.5185 2.21493 13.62C2.63301 15.7215 3.66488 17.6518 5.18004 19.1668L7.11004 21.0968C4.26837 21.5335 0.333374 22.5602 0.333374 24.8335ZM14.5 7.3335C14.5 7.17874 14.5431 7.02704 14.6245 6.89539C14.7059 6.76374 14.8223 6.65735 14.9607 6.58814C15.0991 6.51893 15.2541 6.48963 15.4082 6.50353C15.5623 6.51743 15.7096 6.57398 15.8334 6.66683C16.8653 7.44106 17.7222 8.42439 18.348 9.55252C18.9738 10.6806 19.3545 11.9282 19.465 13.2135C19.5016 13.6084 19.3952 14.0032 19.1652 14.3262C18.9352 14.6493 18.5968 14.8789 18.2117 14.9735L16.1667 15.4852V17.3335C16.1667 17.5545 16.0789 17.7665 15.9226 17.9228C15.7663 18.079 15.5544 18.1668 15.3334 18.1668C15.1124 18.1668 14.9004 18.079 14.7441 17.9228C14.5878 17.7665 14.5 17.5545 14.5 17.3335V7.3335ZM7.00004 9.00016V7.3335C7.00004 7.11248 7.08784 6.90052 7.24412 6.74424C7.4004 6.58796 7.61236 6.50016 7.83337 6.50016C8.05439 6.50016 8.26635 6.58796 8.42263 6.74424C8.57891 6.90052 8.66671 7.11248 8.66671 7.3335V9.00016C8.67002 9.28757 8.74874 9.56907 8.89498 9.81651C9.04122 10.064 9.24986 10.2687 9.50004 10.4102V7.3335C9.50004 7.11248 9.58784 6.90052 9.74412 6.74424C9.9004 6.58796 10.1124 6.50016 10.3334 6.50016C10.5544 6.50016 10.7663 6.58796 10.9226 6.74424C11.0789 6.90052 11.1667 7.11248 11.1667 7.3335V10.4102C11.4169 10.2687 11.6255 10.064 11.7718 9.81651C11.918 9.56907 11.9967 9.28757 12 9.00016V7.3335C12 7.11248 12.0878 6.90052 12.2441 6.74424C12.4004 6.58796 12.6124 6.50016 12.8334 6.50016C13.0544 6.50016 13.2663 6.58796 13.4226 6.74424C13.5789 6.90052 13.6667 7.11248 13.6667 7.3335V9.00016C13.6639 9.73701 13.4171 10.4522 12.9648 11.0339C12.5125 11.6155 11.8802 12.031 11.1667 12.2152V17.3335C11.1667 17.5545 11.0789 17.7665 10.9226 17.9228C10.7663 18.079 10.5544 18.1668 10.3334 18.1668C10.1124 18.1668 9.9004 18.079 9.74412 17.9228C9.58784 17.7665 9.50004 17.5545 9.50004 17.3335V12.2152C8.78659 12.031 8.15428 11.6155 7.70196 11.0339C7.24964 10.4522 7.0028 9.73701 7.00004 9.00016ZM8.59004 22.5768L11.065 25.0535C11.2972 25.2858 11.5729 25.4701 11.8763 25.5958C12.1797 25.7216 12.5049 25.7863 12.8334 25.7863C13.1618 25.7863 13.487 25.7216 13.7905 25.5958C14.0939 25.4701 14.3695 25.2858 14.6017 25.0535L17.0767 22.5768C21.6567 23.1068 23.6667 24.3135 23.6667 24.8335C23.6667 25.5802 19.9817 27.3335 12.8334 27.3335C5.68504 27.3335 2.00004 25.5802 2.00004 24.8335C2.00004 24.3135 4.01004 23.1068 8.59004 22.5768Z" fill="#9E9E9E"/>
</svg>
