<svg width="40" height="40" viewBox="0 0 40 40" fill="none" xmlns="http://www.w3.org/2000/svg">
<path d="M6.66666 29.1665C6.66666 29.8295 6.93006 30.4654 7.3989 30.9343C7.86774 31.4031 8.50362 31.6665 9.16666 31.6665H10.085C10.2763 32.6084 10.7873 33.4552 11.5314 34.0635C12.2756 34.6717 13.2072 35.004 14.1683 35.004C15.1295 35.004 16.061 34.6717 16.8052 34.0635C17.5494 33.4552 18.0604 32.6084 18.2517 31.6665H23.5C24.6309 31.6586 25.7349 31.3209 26.6767 30.6948C26.6767 30.7415 26.6633 30.7865 26.6633 30.8332C26.6627 31.7298 26.9514 32.6026 27.4864 33.3221C28.0214 34.0416 28.7742 34.5693 29.6329 34.8269C30.4917 35.0845 31.4107 35.0582 32.2534 34.7519C33.096 34.4456 33.8174 33.8757 34.3104 33.1268C34.8033 32.3779 35.0415 31.4899 34.9897 30.5949C34.9378 29.6998 34.5986 28.8453 34.0225 28.1583C33.4463 27.4714 32.6639 26.9886 31.7915 26.7817C30.9191 26.5748 30.0033 26.6548 29.18 27.0098C29.3206 26.3868 29.3566 25.7447 29.2867 25.1098L28.6417 19.9432C28.8141 19.9809 28.9901 19.9999 29.1667 19.9998H30C30.442 19.9998 30.8659 19.8242 31.1785 19.5117C31.4911 19.1991 31.6667 18.7752 31.6667 18.3332V16.6665C31.6667 16.2245 31.4911 15.8006 31.1785 15.488C30.8659 15.1754 30.442 14.9998 30 14.9998H29.1667C28.7805 15.0016 28.4 15.0929 28.0551 15.2664C27.7101 15.4399 27.41 15.6909 27.1783 15.9998L26.91 15.7315C26.4402 15.2648 25.8055 15.002 25.1433 14.9998H24.1667C23.9457 14.9998 23.7337 15.0876 23.5774 15.2439C23.4211 15.4002 23.3333 15.6122 23.3333 15.8332C23.3333 16.0542 23.4211 16.2661 23.5774 16.4224C23.7337 16.5787 23.9457 16.6665 24.1667 16.6665H25.1433C25.3639 16.6666 25.5755 16.7541 25.7317 16.9098L26.705 17.8832C26.73 18.0382 27.3283 22.8465 27.6367 25.3165C27.7099 25.9029 27.6576 26.4982 27.4832 27.0629C27.3088 27.6275 27.0163 28.1486 26.6251 28.5915C26.2338 29.0345 25.7528 29.3891 25.214 29.6319C24.6753 29.8747 24.091 30.0001 23.5 29.9998H23.1833L21.6667 22.4182V20.8332C21.6667 20.1701 21.4033 19.5342 20.9344 19.0654C20.4656 18.5966 19.8297 18.3332 19.1667 18.3332H15.8333V14.1665C15.8333 13.5035 15.5699 12.8676 15.1011 12.3987C14.6323 11.9299 13.9964 11.6665 13.3333 11.6665H9.16666C8.50362 11.6665 7.86774 11.9299 7.3989 12.3987C6.93006 12.8676 6.66666 13.5035 6.66666 14.1665V20.8332C6.66666 21.4962 6.93006 22.1321 7.3989 22.6009C7.86774 23.0698 8.50362 23.3332 9.16666 23.3332H9.51C8.62733 24.0286 7.91316 24.9144 7.42081 25.9245C6.92846 26.9346 6.67067 28.0428 6.66666 29.1665ZM30.8333 28.3332C31.3278 28.3332 31.8111 28.4798 32.2223 28.7545C32.6334 29.0292 32.9538 29.4196 33.143 29.8765C33.3322 30.3333 33.3818 30.8359 33.2853 31.3209C33.1888 31.8058 32.9507 32.2513 32.6011 32.6009C32.2515 32.9506 31.806 33.1887 31.3211 33.2851C30.8361 33.3816 30.3334 33.3321 29.8766 33.1429C29.4198 32.9536 29.0294 32.6332 28.7547 32.2221C28.48 31.811 28.3333 31.3276 28.3333 30.8332C28.3333 30.1701 28.5967 29.5342 29.0656 29.0654C29.5344 28.5966 30.1703 28.3332 30.8333 28.3332ZM15.8333 19.9998H19.1667C19.3877 19.9998 19.5996 20.0876 19.7559 20.2439C19.9122 20.4002 20 20.6122 20 20.8332V21.6665H15.8333V19.9998ZM16.5133 31.6665C16.3436 32.1536 16.0265 32.5759 15.606 32.8746C15.1856 33.1734 14.6825 33.334 14.1667 33.334C13.6508 33.334 13.1478 33.1734 12.7273 32.8746C12.3068 32.5759 11.9897 32.1536 11.82 31.6665H16.5133ZM8.33333 14.1665C8.33333 13.9455 8.42113 13.7335 8.57741 13.5772C8.73369 13.421 8.94565 13.3332 9.16666 13.3332H13.3333C13.5543 13.3332 13.7663 13.421 13.9226 13.5772C14.0789 13.7335 14.1667 13.9455 14.1667 14.1665V14.9998H8.33333V14.1665ZM8.33333 16.6665H14.1667V18.3082H8.33333V16.6665ZM9.16666 21.6665C8.94565 21.6665 8.73369 21.5787 8.57741 21.4224C8.42113 21.2661 8.33333 21.0542 8.33333 20.8332V19.9748H14.1667V21.6665H9.16666Z" fill="white"/>
</svg>
