<svg width="40" height="40" viewBox="0 0 40 40" fill="none" xmlns="http://www.w3.org/2000/svg">
<path d="M6.66663 29.1665C6.66663 29.8295 6.93002 30.4654 7.39886 30.9343C7.8677 31.4031 8.50358 31.6665 9.16663 31.6665H10.085C10.2762 32.6084 10.7872 33.4552 11.5314 34.0635C12.2756 34.6717 13.2072 35.004 14.1683 35.004C15.1294 35.004 16.061 34.6717 16.8052 34.0635C17.5494 33.4552 18.0604 32.6084 18.2516 31.6665H23.5C24.6308 31.6586 25.7348 31.3209 26.6766 30.6948C26.6766 30.7415 26.6633 30.7865 26.6633 30.8332C26.6627 31.7298 26.9513 32.6026 27.4863 33.3221C28.0213 34.0416 28.7741 34.5693 29.6329 34.8269C30.4917 35.0845 31.4107 35.0582 32.2533 34.7519C33.096 34.4456 33.8174 33.8757 34.3103 33.1268C34.8033 32.3779 35.0415 31.4899 34.9896 30.5949C34.9378 29.6998 34.5986 28.8453 34.0224 28.1583C33.4463 27.4714 32.6639 26.9886 31.7915 26.7817C30.9191 26.5748 30.0033 26.6548 29.18 27.0098C29.3206 26.3868 29.3566 25.7447 29.2866 25.1098L28.6416 19.9432C28.8141 19.9809 28.9901 19.9999 29.1666 19.9998H30C30.442 19.9998 30.8659 19.8242 31.1785 19.5117C31.491 19.1991 31.6666 18.7752 31.6666 18.3332V16.6665C31.6666 16.2245 31.491 15.8006 31.1785 15.488C30.8659 15.1754 30.442 14.9998 30 14.9998H29.1666C28.7805 15.0016 28.4 15.0929 28.055 15.2664C27.7101 15.4399 27.41 15.6909 27.1783 15.9998L26.91 15.7315C26.4402 15.2648 25.8055 15.002 25.1433 14.9998H24.1666C23.9456 14.9998 23.7337 15.0876 23.5774 15.2439C23.4211 15.4002 23.3333 15.6122 23.3333 15.8332C23.3333 16.0542 23.4211 16.2661 23.5774 16.4224C23.7337 16.5787 23.9456 16.6665 24.1666 16.6665H25.1433C25.3639 16.6666 25.5754 16.7541 25.7316 16.9098L26.705 17.8832C26.73 18.0382 27.3283 22.8465 27.6366 25.3165C27.7099 25.9029 27.6576 26.4982 27.4832 27.0629C27.3088 27.6275 27.0162 28.1486 26.625 28.5915C26.2338 29.0345 25.7528 29.3891 25.214 29.6319C24.6752 29.8747 24.0909 30.0001 23.5 29.9998H23.1833L21.6666 22.4182V20.8332C21.6666 20.1701 21.4032 19.5342 20.9344 19.0654C20.4656 18.5966 19.8297 18.3332 19.1666 18.3332H15.8333V14.1665C15.8333 13.5035 15.5699 12.8676 15.1011 12.3987C14.6322 11.9299 13.9963 11.6665 13.3333 11.6665H9.16663C8.50358 11.6665 7.8677 11.9299 7.39886 12.3987C6.93002 12.8676 6.66663 13.5035 6.66663 14.1665V20.8332C6.66663 21.4962 6.93002 22.1321 7.39886 22.6009C7.8677 23.0698 8.50358 23.3332 9.16663 23.3332H9.50996C8.62729 24.0286 7.91312 24.9144 7.42077 25.9245C6.92843 26.9346 6.67063 28.0428 6.66663 29.1665ZM30.8333 28.3332C31.3277 28.3332 31.8111 28.4798 32.2222 28.7545C32.6333 29.0292 32.9538 29.4196 33.143 29.8765C33.3322 30.3333 33.3817 30.8359 33.2853 31.3209C33.1888 31.8058 32.9507 32.2513 32.6011 32.6009C32.2514 32.9506 31.806 33.1887 31.321 33.2851C30.8361 33.3816 30.3334 33.3321 29.8766 33.1429C29.4198 32.9536 29.0293 32.6332 28.7546 32.2221C28.4799 31.811 28.3333 31.3276 28.3333 30.8332C28.3333 30.1701 28.5967 29.5342 29.0655 29.0654C29.5344 28.5966 30.1702 28.3332 30.8333 28.3332ZM15.8333 19.9998H19.1666C19.3876 19.9998 19.5996 20.0876 19.7559 20.2439C19.9122 20.4002 20 20.6122 20 20.8332V21.6665H15.8333V19.9998ZM16.5133 31.6665C16.3436 32.1536 16.0265 32.5759 15.606 32.8746C15.1855 33.1734 14.6825 33.334 14.1666 33.334C13.6508 33.334 13.1477 33.1734 12.7272 32.8746C12.3068 32.5759 11.9897 32.1536 11.82 31.6665H16.5133ZM8.33329 14.1665C8.33329 13.9455 8.42109 13.7335 8.57737 13.5772C8.73365 13.421 8.94561 13.3332 9.16663 13.3332H13.3333C13.5543 13.3332 13.7663 13.421 13.9225 13.5772C14.0788 13.7335 14.1666 13.9455 14.1666 14.1665V14.9998H8.33329V14.1665ZM8.33329 16.6665H14.1666V18.3082H8.33329V16.6665ZM9.16663 21.6665C8.94561 21.6665 8.73365 21.5787 8.57737 21.4224C8.42109 21.2661 8.33329 21.0542 8.33329 20.8332V19.9748H14.1666V21.6665H9.16663Z" fill="#9E9E9E"/>
</svg>
