<svg width="19" height="17" viewBox="0 0 19 17" fill="none" xmlns="http://www.w3.org/2000/svg">
<path d="M16.4117 12.7979H3.10082C2.9047 12.7979 2.7166 12.8678 2.57792 12.9922C2.43924 13.1167 2.36133 13.2855 2.36133 13.4615C2.36133 13.6375 2.43924 13.8063 2.57792 13.9307C2.7166 14.0552 2.9047 14.1251 3.10082 14.1251H16.4117C16.6079 14.1251 16.796 14.0552 16.9347 13.9307C17.0733 13.8063 17.1512 13.6375 17.1512 13.4615C17.1512 13.2855 17.0733 13.1167 16.9347 12.9922C16.796 12.8678 16.6079 12.7979 16.4117 12.7979Z" fill="#2D9CDB"/>
<path d="M9.75628 1.5166C9.56016 1.5166 9.37206 1.58652 9.23338 1.71097C9.0947 1.83542 9.01679 2.00421 9.01679 2.18021V9.20783L6.58385 7.01792C6.4446 6.89296 6.25573 6.82276 6.05881 6.82276C5.86188 6.82276 5.67301 6.89296 5.53376 7.01792C5.39451 7.14288 5.31628 7.31236 5.31628 7.48908C5.31628 7.6658 5.39451 7.83528 5.53376 7.96024L9.23124 11.2783C9.29999 11.3405 9.38178 11.3899 9.47189 11.4235C9.56201 11.4572 9.65866 11.4746 9.75628 11.4746C9.85391 11.4746 9.95056 11.4572 10.0407 11.4235C10.1308 11.3899 10.2126 11.3405 10.2813 11.2783L13.9788 7.96024C14.0478 7.89837 14.1024 7.82491 14.1398 7.74407C14.1771 7.66323 14.1963 7.57658 14.1963 7.48908C14.1963 7.40158 14.1771 7.31493 14.1398 7.23409C14.1024 7.15325 14.0478 7.07979 13.9788 7.01792C13.9099 6.95604 13.828 6.90696 13.7379 6.87348C13.6478 6.83999 13.5513 6.82276 13.4538 6.82276C13.3563 6.82276 13.2597 6.83999 13.1696 6.87348C13.0795 6.90696 12.9977 6.95604 12.9287 7.01792L10.4958 9.20783V2.18021C10.4958 2.00421 10.4179 1.83542 10.2792 1.71097C10.1405 1.58652 9.95241 1.5166 9.75628 1.5166Z" fill="#2D9CDB"/>
</svg>
