<svg width="25" height="25" viewBox="0 0 25 25" fill="none" xmlns="http://www.w3.org/2000/svg">
<path d="M11.1429 4.5H4.14294C3.61251 4.5 3.1038 4.71071 2.72873 5.08579C2.35366 5.46086 2.14294 5.96957 2.14294 6.5V20.5C2.14294 21.0304 2.35366 21.5391 2.72873 21.9142C3.1038 22.2893 3.61251 22.5 4.14294 22.5H18.1429C18.6734 22.5 19.1821 22.2893 19.5572 21.9142C19.9322 21.5391 20.1429 21.0304 20.1429 20.5V13.5" stroke="#1C2B58" stroke-width="2" stroke-linecap="round" stroke-linejoin="round"/>
<path d="M18.6429 2.99998C19.0408 2.60216 19.5803 2.37866 20.1429 2.37866C20.7056 2.37866 21.2451 2.60216 21.6429 2.99998C22.0408 3.39781 22.2643 3.93737 22.2643 4.49998C22.2643 5.06259 22.0408 5.60216 21.6429 5.99998L12.1429 15.5L8.14294 16.5L9.14294 12.5L18.6429 2.99998Z" stroke="#1C2B58" stroke-width="2" stroke-linecap="round" stroke-linejoin="round"/>
</svg>
