<svg width="23" height="16" viewBox="0 0 23 16" fill="none" xmlns="http://www.w3.org/2000/svg">
<path d="M11.9166 5C12.7123 5 13.4753 5.31607 14.0379 5.87868C14.6006 6.44129 14.9166 7.20435 14.9166 8C14.9166 8.79565 14.6006 9.55871 14.0379 10.1213C13.4753 10.6839 12.7123 11 11.9166 11C11.121 11 10.3579 10.6839 9.79531 10.1213C9.2327 9.55871 8.91663 8.79565 8.91663 8C8.91663 7.20435 9.2327 6.44129 9.79531 5.87868C10.3579 5.31607 11.121 5 11.9166 5ZM11.9166 0.5C16.9166 0.5 21.1866 3.61 22.9166 8C21.1866 12.39 16.9166 15.5 11.9166 15.5C6.91663 15.5 2.64663 12.39 0.916626 8C2.64663 3.61 6.91663 0.5 11.9166 0.5ZM3.09663 8C3.90488 9.65031 5.15993 11.0407 6.7191 12.0133C8.27828 12.9858 10.079 13.5013 11.9166 13.5013C13.7542 13.5013 15.555 12.9858 17.1141 12.0133C18.6733 11.0407 19.9284 9.65031 20.7366 8C19.9284 6.34969 18.6733 4.95925 17.1141 3.98675C15.555 3.01424 13.7542 2.49868 11.9166 2.49868C10.079 2.49868 8.27828 3.01424 6.7191 3.98675C5.15993 4.95925 3.90488 6.34969 3.09663 8Z" fill="#1C2B58"/>
</svg>
