<svg width="48" height="47" viewBox="0 0 48 47" fill="none" xmlns="http://www.w3.org/2000/svg">
<rect y="0.763184" width="48" height="45.4737" rx="15" fill="#2D9CDB" fill-opacity="0.15"/>
<path d="M15.5 35.9473H32.5C33.6272 35.9473 34.7082 35.5231 35.5052 34.768C36.3022 34.0129 36.75 32.9888 36.75 31.921V15.8157C36.75 14.7478 36.3022 13.7237 35.5052 12.9687C34.7082 12.2136 33.6272 11.7894 32.5 11.7894H31.0833C31.0833 11.4334 30.9341 11.0921 30.6684 10.8404C30.4027 10.5887 30.0424 10.4473 29.6667 10.4473C29.2909 10.4473 28.9306 10.5887 28.6649 10.8404C28.3993 11.0921 28.25 11.4334 28.25 11.7894H19.75C19.75 11.4334 19.6007 11.0921 19.3351 10.8404C19.0694 10.5887 18.7091 10.4473 18.3333 10.4473C17.9576 10.4473 17.5973 10.5887 17.3316 10.8404C17.0659 11.0921 16.9167 11.4334 16.9167 11.7894H15.5C14.3728 11.7894 13.2918 12.2136 12.4948 12.9687C11.6978 13.7237 11.25 14.7478 11.25 15.8157V31.921C11.25 32.9888 11.6978 34.0129 12.4948 34.768C13.2918 35.5231 14.3728 35.9473 15.5 35.9473ZM14.0833 15.8157C14.0833 15.4597 14.2326 15.1184 14.4983 14.8667C14.7639 14.615 15.1243 14.4736 15.5 14.4736H16.9167V15.8157C16.9167 16.1716 17.0659 16.513 17.3316 16.7647C17.5973 17.0164 17.9576 17.1578 18.3333 17.1578C18.7091 17.1578 19.0694 17.0164 19.3351 16.7647C19.6007 16.513 19.75 16.1716 19.75 15.8157V14.4736H28.25V15.8157C28.25 16.1716 28.3993 16.513 28.6649 16.7647C28.9306 17.0164 29.2909 17.1578 29.6667 17.1578C30.0424 17.1578 30.4027 17.0164 30.6684 16.7647C30.9341 16.513 31.0833 16.1716 31.0833 15.8157V14.4736H32.5C32.8757 14.4736 33.2361 14.615 33.5017 14.8667C33.7674 15.1184 33.9167 15.4597 33.9167 15.8157V19.842H14.0833V15.8157ZM14.0833 22.5262H33.9167V31.921C33.9167 32.2769 33.7674 32.6183 33.5017 32.87C33.2361 33.1217 32.8757 33.2631 32.5 33.2631H15.5C15.1243 33.2631 14.7639 33.1217 14.4983 32.87C14.2326 32.6183 14.0833 32.2769 14.0833 31.921V22.5262Z" fill="#1C2B58"/>
</svg>
