<svg width="720" height="1024" viewBox="0 0 720 1024" fill="none" xmlns="http://www.w3.org/2000/svg">
<rect width="720" height="1024" fill="#FFB300"/>
<circle cx="360" cy="512" r="303" fill="url(#paint0_radial_1_13377)" fill-opacity="0.2"/>
<circle cx="360" cy="512" r="303" fill="url(#paint1_linear_1_13377)" fill-opacity="0.2"/>
<circle cx="360" cy="511" r="264" fill="url(#paint2_radial_1_13377)" fill-opacity="0.2"/>
<circle cx="360" cy="511" r="264" fill="url(#paint3_linear_1_13377)" fill-opacity="0.2"/>
<path d="M281.043 884V870H283.723L289.683 879.88H288.263L294.123 870H296.783L296.823 884H293.783L293.763 874.66H294.323L289.643 882.52H288.183L283.403 874.66H284.083V884H281.043ZM306.524 884V881.9L306.324 881.44V877.68C306.324 877.013 306.118 876.493 305.704 876.12C305.304 875.747 304.684 875.56 303.844 875.56C303.271 875.56 302.704 875.653 302.144 875.84C301.598 876.013 301.131 876.253 300.744 876.56L299.624 874.38C300.211 873.967 300.918 873.647 301.744 873.42C302.571 873.193 303.411 873.08 304.264 873.08C305.904 873.08 307.178 873.467 308.084 874.24C308.991 875.013 309.444 876.22 309.444 877.86V884H306.524ZM303.244 884.16C302.404 884.16 301.684 884.02 301.084 883.74C300.484 883.447 300.024 883.053 299.704 882.56C299.384 882.067 299.224 881.513 299.224 880.9C299.224 880.26 299.378 879.7 299.684 879.22C300.004 878.74 300.504 878.367 301.184 878.1C301.864 877.82 302.751 877.68 303.844 877.68H306.704V879.5H304.184C303.451 879.5 302.944 879.62 302.664 879.86C302.398 880.1 302.264 880.4 302.264 880.76C302.264 881.16 302.418 881.48 302.724 881.72C303.044 881.947 303.478 882.06 304.024 882.06C304.544 882.06 305.011 881.94 305.424 881.7C305.838 881.447 306.138 881.08 306.324 880.6L306.804 882.04C306.578 882.733 306.164 883.26 305.564 883.62C304.964 883.98 304.191 884.16 303.244 884.16ZM316.808 884.16C315.915 884.16 315.115 883.987 314.408 883.64C313.715 883.293 313.175 882.767 312.788 882.06C312.401 881.34 312.208 880.427 312.208 879.32V873.24H315.328V878.86C315.328 879.753 315.515 880.413 315.888 880.84C316.275 881.253 316.815 881.46 317.508 881.46C317.988 881.46 318.415 881.36 318.788 881.16C319.161 880.947 319.455 880.627 319.668 880.2C319.881 879.76 319.988 879.213 319.988 878.56V873.24H323.108V884H320.148V881.04L320.688 881.9C320.328 882.647 319.795 883.213 319.088 883.6C318.395 883.973 317.635 884.16 316.808 884.16ZM325.999 884V873.24H328.979V876.28L328.559 875.4C328.879 874.64 329.392 874.067 330.099 873.68C330.805 873.28 331.665 873.08 332.679 873.08V875.96C332.545 875.947 332.425 875.94 332.319 875.94C332.212 875.927 332.099 875.92 331.979 875.92C331.125 875.92 330.432 876.167 329.899 876.66C329.379 877.14 329.119 877.893 329.119 878.92V884H325.999ZM334.553 884V873.24H337.673V884H334.553ZM336.113 871.74C335.54 871.74 335.073 871.573 334.713 871.24C334.353 870.907 334.173 870.493 334.173 870C334.173 869.507 334.353 869.093 334.713 868.76C335.073 868.427 335.54 868.26 336.113 868.26C336.687 868.26 337.153 868.42 337.513 868.74C337.873 869.047 338.053 869.447 338.053 869.94C338.053 870.46 337.873 870.893 337.513 871.24C337.167 871.573 336.7 871.74 336.113 871.74ZM340.169 879.62V877.12H345.829V879.62H340.169ZM353.819 884.16C352.592 884.16 351.512 883.92 350.579 883.44C349.659 882.96 348.946 882.307 348.439 881.48C347.932 880.64 347.679 879.687 347.679 878.62C347.679 877.54 347.926 876.587 348.419 875.76C348.926 874.92 349.612 874.267 350.479 873.8C351.346 873.32 352.326 873.08 353.419 873.08C354.472 873.08 355.419 873.307 356.259 873.76C357.112 874.2 357.786 874.84 358.279 875.68C358.772 876.507 359.019 877.5 359.019 878.66C359.019 878.78 359.012 878.92 358.999 879.08C358.986 879.227 358.972 879.367 358.959 879.5H350.219V877.68H357.319L356.119 878.22C356.119 877.66 356.006 877.173 355.779 876.76C355.552 876.347 355.239 876.027 354.839 875.8C354.439 875.56 353.972 875.44 353.439 875.44C352.906 875.44 352.432 875.56 352.019 875.8C351.619 876.027 351.306 876.353 351.079 876.78C350.852 877.193 350.739 877.687 350.739 878.26V878.74C350.739 879.327 350.866 879.847 351.119 880.3C351.386 880.74 351.752 881.08 352.219 881.32C352.699 881.547 353.259 881.66 353.899 881.66C354.472 881.66 354.972 881.573 355.399 881.4C355.839 881.227 356.239 880.967 356.599 880.62L358.259 882.42C357.766 882.98 357.146 883.413 356.399 883.72C355.652 884.013 354.792 884.16 353.819 884.16ZM367.403 884V881.9L367.203 881.44V877.68C367.203 877.013 366.997 876.493 366.583 876.12C366.183 875.747 365.563 875.56 364.723 875.56C364.15 875.56 363.583 875.653 363.023 875.84C362.477 876.013 362.01 876.253 361.623 876.56L360.503 874.38C361.09 873.967 361.797 873.647 362.623 873.42C363.45 873.193 364.29 873.08 365.143 873.08C366.783 873.08 368.057 873.467 368.963 874.24C369.87 875.013 370.323 876.22 370.323 877.86V884H367.403ZM364.123 884.16C363.283 884.16 362.563 884.02 361.963 883.74C361.363 883.447 360.903 883.053 360.583 882.56C360.263 882.067 360.103 881.513 360.103 880.9C360.103 880.26 360.257 879.7 360.563 879.22C360.883 878.74 361.383 878.367 362.063 878.1C362.743 877.82 363.63 877.68 364.723 877.68H367.583V879.5H365.063C364.33 879.5 363.823 879.62 363.543 879.86C363.277 880.1 363.143 880.4 363.143 880.76C363.143 881.16 363.297 881.48 363.603 881.72C363.923 881.947 364.357 882.06 364.903 882.06C365.423 882.06 365.89 881.94 366.303 881.7C366.717 881.447 367.017 881.08 367.203 880.6L367.683 882.04C367.457 882.733 367.043 883.26 366.443 883.62C365.843 883.98 365.07 884.16 364.123 884.16ZM377.547 884.16C376.28 884.16 375.294 883.84 374.587 883.2C373.88 882.547 373.527 881.58 373.527 880.3V870.86H376.647V880.26C376.647 880.713 376.767 881.067 377.007 881.32C377.247 881.56 377.574 881.68 377.987 881.68C378.48 881.68 378.9 881.547 379.247 881.28L380.087 883.48C379.767 883.707 379.38 883.88 378.927 884C378.487 884.107 378.027 884.16 377.547 884.16ZM371.867 875.88V873.48H379.327V875.88H371.867ZM385.458 884.16C384.538 884.16 383.652 884.053 382.798 883.84C381.958 883.613 381.292 883.333 380.798 883L381.838 880.76C382.332 881.067 382.912 881.32 383.578 881.52C384.258 881.707 384.925 881.8 385.578 881.8C386.298 881.8 386.805 881.713 387.098 881.54C387.405 881.367 387.558 881.127 387.558 880.82C387.558 880.567 387.438 880.38 387.198 880.26C386.972 880.127 386.665 880.027 386.278 879.96C385.892 879.893 385.465 879.827 384.998 879.76C384.545 879.693 384.085 879.607 383.618 879.5C383.152 879.38 382.725 879.207 382.338 878.98C381.952 878.753 381.638 878.447 381.398 878.06C381.172 877.673 381.058 877.173 381.058 876.56C381.058 875.88 381.252 875.28 381.638 874.76C382.038 874.24 382.612 873.833 383.358 873.54C384.105 873.233 384.998 873.08 386.038 873.08C386.772 873.08 387.518 873.16 388.278 873.32C389.038 873.48 389.672 873.713 390.178 874.02L389.138 876.24C388.618 875.933 388.092 875.727 387.558 875.62C387.038 875.5 386.532 875.44 386.038 875.44C385.345 875.44 384.838 875.533 384.518 875.72C384.198 875.907 384.038 876.147 384.038 876.44C384.038 876.707 384.152 876.907 384.378 877.04C384.618 877.173 384.932 877.28 385.318 877.36C385.705 877.44 386.125 877.513 386.578 877.58C387.045 877.633 387.512 877.72 387.978 877.84C388.445 877.96 388.865 878.133 389.238 878.36C389.625 878.573 389.938 878.873 390.178 879.26C390.418 879.633 390.538 880.127 390.538 880.74C390.538 881.407 390.338 882 389.938 882.52C389.538 883.027 388.958 883.427 388.198 883.72C387.452 884.013 386.538 884.16 385.458 884.16ZM396.507 884L402.748 870H405.948L412.208 884H408.808L403.688 871.64H404.968L399.828 884H396.507ZM399.627 881L400.488 878.54H407.688L408.568 881H399.627ZM419.8 884.16C418.893 884.16 418.1 883.96 417.42 883.56C416.74 883.16 416.207 882.553 415.82 881.74C415.447 880.913 415.26 879.873 415.26 878.62C415.26 877.353 415.44 876.313 415.8 875.5C416.16 874.687 416.68 874.08 417.36 873.68C418.04 873.28 418.853 873.08 419.8 873.08C420.813 873.08 421.72 873.313 422.52 873.78C423.333 874.233 423.973 874.873 424.44 875.7C424.92 876.527 425.16 877.5 425.16 878.62C425.16 879.753 424.92 880.733 424.44 881.56C423.973 882.387 423.333 883.027 422.52 883.48C421.72 883.933 420.813 884.16 419.8 884.16ZM413.44 887.88V873.24H416.42V875.44L416.36 878.64L416.56 881.82V887.88H413.44ZM419.26 881.6C419.78 881.6 420.24 881.48 420.64 881.24C421.053 881 421.38 880.66 421.62 880.22C421.873 879.767 422 879.233 422 878.62C422 877.993 421.873 877.46 421.62 877.02C421.38 876.58 421.053 876.24 420.64 876C420.24 875.76 419.78 875.64 419.26 875.64C418.74 875.64 418.273 875.76 417.86 876C417.447 876.24 417.12 876.58 416.88 877.02C416.64 877.46 416.52 877.993 416.52 878.62C416.52 879.233 416.64 879.767 416.88 880.22C417.12 880.66 417.447 881 417.86 881.24C418.273 881.48 418.74 881.6 419.26 881.6ZM433.609 884.16C432.702 884.16 431.909 883.96 431.229 883.56C430.549 883.16 430.015 882.553 429.629 881.74C429.255 880.913 429.069 879.873 429.069 878.62C429.069 877.353 429.249 876.313 429.609 875.5C429.969 874.687 430.489 874.08 431.169 873.68C431.849 873.28 432.662 873.08 433.609 873.08C434.622 873.08 435.529 873.313 436.329 873.78C437.142 874.233 437.782 874.873 438.249 875.7C438.729 876.527 438.969 877.5 438.969 878.62C438.969 879.753 438.729 880.733 438.249 881.56C437.782 882.387 437.142 883.027 436.329 883.48C435.529 883.933 434.622 884.16 433.609 884.16ZM427.249 887.88V873.24H430.229V875.44L430.169 878.64L430.369 881.82V887.88H427.249ZM433.069 881.6C433.589 881.6 434.049 881.48 434.449 881.24C434.862 881 435.189 880.66 435.429 880.22C435.682 879.767 435.809 879.233 435.809 878.62C435.809 877.993 435.682 877.46 435.429 877.02C435.189 876.58 434.862 876.24 434.449 876C434.049 875.76 433.589 875.64 433.069 875.64C432.549 875.64 432.082 875.76 431.669 876C431.255 876.24 430.929 876.58 430.689 877.02C430.449 877.46 430.329 877.993 430.329 878.62C430.329 879.233 430.449 879.767 430.689 880.22C430.929 880.66 431.255 881 431.669 881.24C432.082 881.48 432.549 881.6 433.069 881.6Z" fill="#E0EAFF"/>
<path d="M185.407 896.8C186.527 896.8 187.53 897.04 188.415 897.52C189.3 897.989 189.994 898.651 190.495 899.504C190.996 900.357 191.247 901.323 191.247 902.4C191.247 903.477 190.991 904.443 190.479 905.296C189.978 906.139 189.279 906.8 188.383 907.28C187.487 907.76 186.468 908 185.327 908H180.751V896.8H185.407ZM185.455 906.112C186.138 906.112 186.751 905.957 187.295 905.648C187.85 905.328 188.282 904.891 188.591 904.336C188.9 903.771 189.055 903.131 189.055 902.416C189.055 901.701 188.895 901.061 188.575 900.496C188.255 899.92 187.812 899.477 187.247 899.168C186.692 898.848 186.068 898.688 185.375 898.688H182.895V906.112H185.455ZM198.102 908V906.96C197.803 907.333 197.419 907.616 196.95 907.808C196.481 908 195.942 908.096 195.334 908.096C194.737 908.096 194.209 907.984 193.75 907.76C193.302 907.525 192.955 907.205 192.71 906.8C192.465 906.395 192.342 905.941 192.342 905.44C192.342 904.64 192.625 904.016 193.19 903.568C193.755 903.109 194.555 902.875 195.59 902.864H198.086V902.64C198.086 902.139 197.921 901.749 197.59 901.472C197.259 901.195 196.779 901.056 196.15 901.056C195.339 901.056 194.491 901.323 193.606 901.856L192.854 900.416C193.526 900.043 194.134 899.776 194.678 899.616C195.233 899.445 195.878 899.36 196.614 899.36C197.723 899.36 198.582 899.627 199.19 900.16C199.809 900.693 200.123 901.44 200.134 902.4L200.15 908H198.102ZM195.83 906.496C196.427 906.496 196.939 906.357 197.366 906.08C197.793 905.792 198.033 905.44 198.086 905.024V904.256H195.926C195.371 904.256 194.961 904.341 194.694 904.512C194.438 904.672 194.31 904.939 194.31 905.312C194.31 905.675 194.443 905.963 194.71 906.176C194.987 906.389 195.361 906.496 195.83 906.496ZM207.556 901.76C207.14 901.515 206.708 901.323 206.26 901.184C205.822 901.045 205.417 900.976 205.044 900.976C204.692 900.976 204.409 901.04 204.196 901.168C203.993 901.285 203.892 901.472 203.892 901.728C203.892 901.995 204.02 902.203 204.276 902.352C204.542 902.491 204.958 902.64 205.524 902.8C206.121 902.981 206.612 903.163 206.996 903.344C207.38 903.515 207.71 903.776 207.988 904.128C208.276 904.469 208.42 904.923 208.42 905.488C208.42 906.32 208.1 906.96 207.46 907.408C206.82 907.856 206.014 908.08 205.044 908.08C204.382 908.08 203.737 907.979 203.108 907.776C202.478 907.563 201.945 907.264 201.508 906.88L202.228 905.424C202.612 905.755 203.07 906.016 203.604 906.208C204.137 906.389 204.644 906.48 205.124 906.48C205.508 906.48 205.812 906.416 206.036 906.288C206.27 906.149 206.388 905.947 206.388 905.68C206.388 905.381 206.254 905.157 205.988 905.008C205.721 904.859 205.289 904.693 204.692 904.512C204.116 904.341 203.646 904.176 203.284 904.016C202.921 903.845 202.606 903.595 202.34 903.264C202.073 902.923 201.94 902.48 201.94 901.936C201.94 901.093 202.244 900.453 202.852 900.016C203.47 899.568 204.244 899.344 205.172 899.344C205.737 899.344 206.292 899.424 206.836 899.584C207.39 899.744 207.881 899.968 208.308 900.256L207.556 901.76ZM215.45 899.36C216.432 899.36 217.205 899.659 217.77 900.256C218.336 900.843 218.618 901.643 218.618 902.656V908H216.522V903.264C216.522 902.667 216.352 902.197 216.01 901.856C215.669 901.504 215.205 901.328 214.618 901.328C213.925 901.339 213.376 901.573 212.97 902.032C212.565 902.491 212.362 903.077 212.362 903.792V908H210.282V896.128H212.362V901.072C212.949 899.952 213.978 899.381 215.45 899.36ZM225.992 899.376C226.792 899.376 227.496 899.563 228.104 899.936C228.723 900.299 229.198 900.811 229.528 901.472C229.87 902.133 230.04 902.896 230.04 903.76C230.04 904.613 229.875 905.365 229.544 906.016C229.214 906.667 228.744 907.173 228.136 907.536C227.528 907.899 226.824 908.08 226.024 908.08C225.384 908.08 224.819 907.957 224.328 907.712C223.838 907.456 223.432 907.088 223.112 906.608V908H221.032V896.128H223.112V900.848C223.422 900.368 223.816 900.005 224.296 899.76C224.787 899.504 225.352 899.376 225.992 899.376ZM225.528 906.288C226.232 906.288 226.808 906.048 227.256 905.568C227.704 905.077 227.928 904.453 227.928 903.696C227.928 902.939 227.704 902.32 227.256 901.84C226.808 901.36 226.232 901.12 225.528 901.12C224.814 901.12 224.232 901.36 223.784 901.84C223.336 902.32 223.112 902.939 223.112 903.696C223.112 904.464 223.336 905.088 223.784 905.568C224.232 906.048 224.814 906.288 225.528 906.288ZM235.587 899.376C236.472 899.376 237.251 899.557 237.923 899.92C238.606 900.283 239.134 900.795 239.507 901.456C239.891 902.107 240.083 902.859 240.083 903.712C240.083 904.576 239.891 905.339 239.507 906C239.134 906.661 238.606 907.173 237.923 907.536C237.251 907.899 236.472 908.08 235.587 908.08C234.691 908.08 233.902 907.899 233.219 907.536C232.536 907.173 232.003 906.661 231.619 906C231.246 905.339 231.059 904.576 231.059 903.712C231.059 902.859 231.246 902.107 231.619 901.456C232.003 900.795 232.536 900.283 233.219 899.92C233.902 899.557 234.691 899.376 235.587 899.376ZM235.587 901.152C234.862 901.152 234.275 901.392 233.827 901.872C233.379 902.352 233.155 902.976 233.155 903.744C233.155 904.512 233.379 905.136 233.827 905.616C234.275 906.096 234.862 906.336 235.587 906.336C236.291 906.336 236.867 906.096 237.315 905.616C237.763 905.136 237.987 904.512 237.987 903.744C237.987 902.976 237.763 902.352 237.315 901.872C236.867 901.392 236.291 901.152 235.587 901.152ZM246.946 908V906.96C246.647 907.333 246.263 907.616 245.794 907.808C245.324 908 244.786 908.096 244.178 908.096C243.58 908.096 243.052 907.984 242.594 907.76C242.146 907.525 241.799 907.205 241.554 906.8C241.308 906.395 241.186 905.941 241.186 905.44C241.186 904.64 241.468 904.016 242.034 903.568C242.599 903.109 243.399 902.875 244.434 902.864H246.93V902.64C246.93 902.139 246.764 901.749 246.434 901.472C246.103 901.195 245.623 901.056 244.994 901.056C244.183 901.056 243.335 901.323 242.45 901.856L241.698 900.416C242.37 900.043 242.978 899.776 243.522 899.616C244.076 899.445 244.722 899.36 245.458 899.36C246.567 899.36 247.426 899.627 248.034 900.16C248.652 900.693 248.967 901.44 248.978 902.4L248.994 908H246.946ZM244.674 906.496C245.271 906.496 245.783 906.357 246.21 906.08C246.636 905.792 246.876 905.44 246.93 905.024V904.256H244.77C244.215 904.256 243.804 904.341 243.538 904.512C243.282 904.672 243.154 904.939 243.154 905.312C243.154 905.675 243.287 905.963 243.554 906.176C243.831 906.389 244.204 906.496 244.674 906.496ZM253.407 901.088C253.695 900.533 254.085 900.112 254.575 899.824C255.077 899.525 255.658 899.371 256.319 899.36V901.376C255.434 901.323 254.725 901.531 254.191 902C253.669 902.459 253.407 903.083 253.407 903.872V908H251.327V899.44H253.407V901.088ZM266.036 896.128V908H263.956V906.624C263.647 907.104 263.247 907.472 262.756 907.728C262.276 907.973 261.716 908.096 261.076 908.096C260.266 908.096 259.551 907.915 258.932 907.552C258.324 907.179 257.85 906.661 257.508 906C257.167 905.328 256.996 904.56 256.996 903.696C256.996 902.843 257.162 902.091 257.492 901.44C257.834 900.779 258.308 900.267 258.916 899.904C259.535 899.541 260.239 899.36 261.028 899.36C261.679 899.36 262.25 899.488 262.74 899.744C263.231 900 263.636 900.368 263.956 900.848V896.128H266.036ZM261.524 906.352C262.239 906.352 262.82 906.112 263.268 905.632C263.727 905.141 263.956 904.512 263.956 903.744C263.956 902.976 263.727 902.352 263.268 901.872C262.82 901.381 262.239 901.136 261.524 901.136C260.81 901.136 260.228 901.381 259.78 901.872C259.332 902.352 259.103 902.976 259.092 903.744C259.103 904.512 259.332 905.141 259.78 905.632C260.228 906.112 260.81 906.352 261.524 906.352ZM277.68 908V906.96C277.381 907.333 276.997 907.616 276.528 907.808C276.059 908 275.52 908.096 274.912 908.096C274.315 908.096 273.787 907.984 273.328 907.76C272.88 907.525 272.533 907.205 272.288 906.8C272.043 906.395 271.92 905.941 271.92 905.44C271.92 904.64 272.203 904.016 272.768 903.568C273.333 903.109 274.133 902.875 275.168 902.864H277.664V902.64C277.664 902.139 277.499 901.749 277.168 901.472C276.837 901.195 276.357 901.056 275.728 901.056C274.917 901.056 274.069 901.323 273.184 901.856L272.432 900.416C273.104 900.043 273.712 899.776 274.256 899.616C274.811 899.445 275.456 899.36 276.192 899.36C277.301 899.36 278.16 899.627 278.768 900.16C279.387 900.693 279.701 901.44 279.712 902.4L279.728 908H277.68ZM275.408 906.496C276.005 906.496 276.517 906.357 276.944 906.08C277.371 905.792 277.611 905.44 277.664 905.024V904.256H275.504C274.949 904.256 274.539 904.341 274.272 904.512C274.016 904.672 273.888 904.939 273.888 905.312C273.888 905.675 274.021 905.963 274.288 906.176C274.565 906.389 274.939 906.496 275.408 906.496ZM290.318 896.128V908H288.238V906.624C287.928 907.104 287.528 907.472 287.038 907.728C286.558 907.973 285.998 908.096 285.358 908.096C284.547 908.096 283.832 907.915 283.214 907.552C282.606 907.179 282.131 906.661 281.79 906C281.448 905.328 281.278 904.56 281.278 903.696C281.278 902.843 281.443 902.091 281.774 901.44C282.115 900.779 282.59 900.267 283.198 899.904C283.816 899.541 284.52 899.36 285.31 899.36C285.96 899.36 286.531 899.488 287.022 899.744C287.512 900 287.918 900.368 288.238 900.848V896.128H290.318ZM285.806 906.352C286.52 906.352 287.102 906.112 287.55 905.632C288.008 905.141 288.238 904.512 288.238 903.744C288.238 902.976 288.008 902.352 287.55 901.872C287.102 901.381 286.52 901.136 285.806 901.136C285.091 901.136 284.51 901.381 284.062 901.872C283.614 902.352 283.384 902.976 283.374 903.744C283.384 904.512 283.614 905.141 284.062 905.632C284.51 906.112 285.091 906.352 285.806 906.352ZM304.2 899.36C305.17 899.36 305.933 899.659 306.488 900.256C307.042 900.843 307.32 901.643 307.32 902.656V908H305.224V903.264C305.224 902.656 305.053 902.181 304.712 901.84C304.381 901.488 303.928 901.312 303.352 901.312C302.69 901.333 302.162 901.573 301.768 902.032C301.384 902.491 301.192 903.072 301.192 903.776V908H299.096V903.264C299.096 902.656 298.93 902.181 298.6 901.84C298.269 901.488 297.816 901.312 297.24 901.312C296.568 901.333 296.034 901.573 295.64 902.032C295.256 902.491 295.064 903.072 295.064 903.776V908H292.984V899.44H295.064V901.024C295.629 899.936 296.632 899.381 298.072 899.36C298.818 899.36 299.442 899.541 299.944 899.904C300.456 900.256 300.813 900.757 301.016 901.408C301.56 900.064 302.621 899.381 304.2 899.36ZM309.64 899.44H311.72V908H309.64V899.44ZM310.664 895.76C311.005 895.76 311.288 895.877 311.512 896.112C311.736 896.347 311.848 896.645 311.848 897.008C311.848 897.36 311.736 897.653 311.512 897.888C311.288 898.123 311.005 898.24 310.664 898.24C310.322 898.24 310.04 898.123 309.816 897.888C309.592 897.653 309.48 897.36 309.48 897.008C309.48 896.645 309.592 896.347 309.816 896.112C310.04 895.877 310.322 895.76 310.664 895.76ZM319.448 899.36C320.429 899.36 321.203 899.659 321.768 900.256C322.333 900.843 322.616 901.643 322.616 902.656V908H320.52V903.264C320.52 902.667 320.349 902.197 320.008 901.856C319.667 901.504 319.203 901.328 318.616 901.328C317.923 901.339 317.373 901.573 316.968 902.032C316.573 902.491 316.376 903.077 316.376 903.792V908H314.296V899.44H316.376V901.04C316.963 899.941 317.987 899.381 319.448 899.36ZM333.914 899.376C334.714 899.376 335.418 899.563 336.026 899.936C336.645 900.299 337.119 900.811 337.45 901.472C337.791 902.133 337.962 902.896 337.962 903.76C337.962 904.613 337.797 905.365 337.466 906.016C337.135 906.667 336.666 907.173 336.058 907.536C335.45 907.899 334.746 908.08 333.946 908.08C333.306 908.08 332.741 907.957 332.25 907.712C331.759 907.456 331.354 907.088 331.034 906.608V911.104H328.954V899.44H331.034V900.848C331.343 900.368 331.738 900.005 332.218 899.76C332.709 899.504 333.274 899.376 333.914 899.376ZM333.45 906.288C334.154 906.288 334.73 906.048 335.178 905.568C335.626 905.077 335.85 904.453 335.85 903.696C335.85 902.939 335.626 902.32 335.178 901.84C334.73 901.36 334.154 901.12 333.45 901.12C332.735 901.12 332.154 901.36 331.706 901.84C331.258 902.32 331.034 902.939 331.034 903.696C331.034 904.464 331.258 905.088 331.706 905.568C332.154 906.048 332.735 906.288 333.45 906.288ZM343.509 899.376C344.394 899.376 345.173 899.557 345.845 899.92C346.527 900.283 347.055 900.795 347.429 901.456C347.813 902.107 348.005 902.859 348.005 903.712C348.005 904.576 347.813 905.339 347.429 906C347.055 906.661 346.527 907.173 345.845 907.536C345.173 907.899 344.394 908.08 343.509 908.08C342.613 908.08 341.823 907.899 341.141 907.536C340.458 907.173 339.925 906.661 339.541 906C339.167 905.339 338.981 904.576 338.981 903.712C338.981 902.859 339.167 902.107 339.541 901.456C339.925 900.795 340.458 900.283 341.141 899.92C341.823 899.557 342.613 899.376 343.509 899.376ZM343.509 901.152C342.783 901.152 342.197 901.392 341.749 901.872C341.301 902.352 341.077 902.976 341.077 903.744C341.077 904.512 341.301 905.136 341.749 905.616C342.197 906.096 342.783 906.336 343.509 906.336C344.213 906.336 344.789 906.096 345.237 905.616C345.685 905.136 345.909 904.512 345.909 903.744C345.909 902.976 345.685 902.352 345.237 901.872C344.789 901.392 344.213 901.152 343.509 901.152ZM357.716 899.44V908H355.62V906.416C355.044 907.525 354.052 908.08 352.644 908.08C351.684 908.08 350.926 907.787 350.372 907.2C349.817 906.613 349.54 905.813 349.54 904.8V899.44H351.636V904.192C351.636 904.789 351.796 905.259 352.116 905.6C352.446 905.941 352.9 906.112 353.476 906.112C354.137 906.101 354.66 905.867 355.044 905.408C355.428 904.949 355.62 904.368 355.62 903.664V899.44H357.716ZM362.392 901.088C362.68 900.533 363.069 900.112 363.56 899.824C364.061 899.525 364.642 899.371 365.304 899.36V901.376C364.418 901.323 363.709 901.531 363.176 902C362.653 902.459 362.392 903.083 362.392 903.872V908H360.312V899.44H362.392V901.088ZM370.767 896.128H372.847V908H370.767V896.128ZM380.571 908V906.96C380.272 907.333 379.888 907.616 379.419 907.808C378.949 908 378.411 908.096 377.803 908.096C377.205 908.096 376.677 907.984 376.219 907.76C375.771 907.525 375.424 907.205 375.179 906.8C374.933 906.395 374.811 905.941 374.811 905.44C374.811 904.64 375.093 904.016 375.659 903.568C376.224 903.109 377.024 902.875 378.059 902.864H380.555V902.64C380.555 902.139 380.389 901.749 380.059 901.472C379.728 901.195 379.248 901.056 378.619 901.056C377.808 901.056 376.96 901.323 376.075 901.856L375.323 900.416C375.995 900.043 376.603 899.776 377.147 899.616C377.701 899.445 378.347 899.36 379.083 899.36C380.192 899.36 381.051 899.627 381.659 900.16C382.277 900.693 382.592 901.44 382.603 902.4L382.619 908H380.571ZM378.299 906.496C378.896 906.496 379.408 906.357 379.835 906.08C380.261 905.792 380.501 905.44 380.555 905.024V904.256H378.395C377.84 904.256 377.429 904.341 377.163 904.512C376.907 904.672 376.779 904.939 376.779 905.312C376.779 905.675 376.912 905.963 377.179 906.176C377.456 906.389 377.829 906.496 378.299 906.496ZM396.698 899.44V907.184C396.698 907.995 396.511 908.699 396.138 909.296C395.775 909.904 395.253 910.368 394.57 910.688C393.898 911.019 393.114 911.184 392.218 911.184C390.917 911.184 389.711 910.805 388.602 910.048L389.434 908.544C390.245 909.141 391.135 909.44 392.106 909.44C392.874 909.44 393.482 909.243 393.93 908.848C394.389 908.453 394.618 907.915 394.618 907.232V906.224C394.33 906.661 393.957 906.997 393.498 907.232C393.039 907.456 392.506 907.568 391.898 907.568C391.151 907.568 390.49 907.397 389.914 907.056C389.338 906.704 388.89 906.219 388.57 905.6C388.25 904.971 388.09 904.251 388.09 903.44C388.09 902.64 388.25 901.936 388.57 901.328C388.89 900.709 389.338 900.229 389.914 899.888C390.49 899.547 391.151 899.376 391.898 899.376C392.495 899.376 393.023 899.493 393.482 899.728C393.951 899.963 394.33 900.293 394.618 900.72V899.44H396.698ZM392.346 905.936C393.018 905.936 393.562 905.712 393.978 905.264C394.405 904.805 394.618 904.213 394.618 903.488C394.618 902.763 394.405 902.176 393.978 901.728C393.562 901.269 393.018 901.04 392.346 901.04C391.674 901.04 391.125 901.269 390.698 901.728C390.282 902.187 390.069 902.773 390.058 903.488C390.069 904.213 390.282 904.805 390.698 905.264C391.125 905.712 391.674 905.936 392.346 905.936ZM402.708 899.376C404.073 899.376 405.097 899.765 405.78 900.544C406.473 901.323 406.82 902.416 406.82 903.824C406.82 904.101 406.814 904.309 406.804 904.448H400.484C400.622 905.056 400.905 905.536 401.332 905.888C401.769 906.229 402.302 906.4 402.932 906.4C403.369 906.4 403.785 906.32 404.18 906.16C404.585 905.989 404.937 905.749 405.236 905.44L406.356 906.608C405.929 907.077 405.406 907.44 404.788 907.696C404.18 907.952 403.502 908.08 402.756 908.08C401.881 908.08 401.108 907.899 400.436 907.536C399.774 907.173 399.262 906.667 398.9 906.016C398.537 905.355 398.356 904.597 398.356 903.744C398.356 902.891 398.537 902.133 398.9 901.472C399.273 900.811 399.79 900.299 400.452 899.936C401.113 899.563 401.865 899.376 402.708 899.376ZM404.916 903.056C404.894 902.427 404.686 901.925 404.292 901.552C403.897 901.179 403.374 900.992 402.724 900.992C402.116 900.992 401.604 901.179 401.188 901.552C400.782 901.915 400.532 902.416 400.436 903.056H404.916ZM413.681 901.76C413.265 901.515 412.833 901.323 412.385 901.184C411.947 901.045 411.542 900.976 411.169 900.976C410.817 900.976 410.534 901.04 410.321 901.168C410.118 901.285 410.017 901.472 410.017 901.728C410.017 901.995 410.145 902.203 410.401 902.352C410.667 902.491 411.083 902.64 411.649 902.8C412.246 902.981 412.737 903.163 413.121 903.344C413.505 903.515 413.835 903.776 414.113 904.128C414.401 904.469 414.545 904.923 414.545 905.488C414.545 906.32 414.225 906.96 413.585 907.408C412.945 907.856 412.139 908.08 411.169 908.08C410.507 908.08 409.862 907.979 409.233 907.776C408.603 907.563 408.07 907.264 407.633 906.88L408.353 905.424C408.737 905.755 409.195 906.016 409.729 906.208C410.262 906.389 410.769 906.48 411.249 906.48C411.633 906.48 411.937 906.416 412.161 906.288C412.395 906.149 412.513 905.947 412.513 905.68C412.513 905.381 412.379 905.157 412.113 905.008C411.846 904.859 411.414 904.693 410.817 904.512C410.241 904.341 409.771 904.176 409.409 904.016C409.046 903.845 408.731 903.595 408.465 903.264C408.198 902.923 408.065 902.48 408.065 901.936C408.065 901.093 408.369 900.453 408.977 900.016C409.595 899.568 410.369 899.344 411.297 899.344C411.862 899.344 412.417 899.424 412.961 899.584C413.515 899.744 414.006 899.968 414.433 900.256L413.681 901.76ZM421.335 907.472C420.653 907.888 419.938 908.096 419.191 908.096C418.455 908.096 417.853 907.883 417.383 907.456C416.914 907.019 416.679 906.379 416.679 905.536V901.312H415.479L415.463 899.792H416.679V897.44H418.743V899.792H421.191V901.312H418.743V905.168C418.743 905.563 418.818 905.845 418.967 906.016C419.117 906.176 419.341 906.256 419.639 906.256C419.959 906.256 420.365 906.139 420.855 905.904L421.335 907.472ZM422.968 899.44H425.048V908H422.968V899.44ZM423.992 895.76C424.333 895.76 424.616 895.877 424.84 896.112C425.064 896.347 425.176 896.645 425.176 897.008C425.176 897.36 425.064 897.653 424.84 897.888C424.616 898.123 424.333 898.24 423.992 898.24C423.651 898.24 423.368 898.123 423.144 897.888C422.92 897.653 422.808 897.36 422.808 897.008C422.808 896.645 422.92 896.347 423.144 896.112C423.368 895.877 423.651 895.76 423.992 895.76ZM431.368 899.376C432.253 899.376 433.032 899.557 433.704 899.92C434.387 900.283 434.915 900.795 435.288 901.456C435.672 902.107 435.864 902.859 435.864 903.712C435.864 904.576 435.672 905.339 435.288 906C434.915 906.661 434.387 907.173 433.704 907.536C433.032 907.899 432.253 908.08 431.368 908.08C430.472 908.08 429.683 907.899 429 907.536C428.317 907.173 427.784 906.661 427.4 906C427.027 905.339 426.84 904.576 426.84 903.712C426.84 902.859 427.027 902.107 427.4 901.456C427.784 900.795 428.317 900.283 429 899.92C429.683 899.557 430.472 899.376 431.368 899.376ZM431.368 901.152C430.643 901.152 430.056 901.392 429.608 901.872C429.16 902.352 428.936 902.976 428.936 903.744C428.936 904.512 429.16 905.136 429.608 905.616C430.056 906.096 430.643 906.336 431.368 906.336C432.072 906.336 432.648 906.096 433.096 905.616C433.544 905.136 433.768 904.512 433.768 903.744C433.768 902.976 433.544 902.352 433.096 901.872C432.648 901.392 432.072 901.152 431.368 901.152ZM442.823 899.36C443.804 899.36 444.578 899.659 445.143 900.256C445.708 900.843 445.991 901.643 445.991 902.656V908H443.895V903.264C443.895 902.667 443.724 902.197 443.383 901.856C443.042 901.504 442.578 901.328 441.991 901.328C441.298 901.339 440.748 901.573 440.343 902.032C439.948 902.491 439.751 903.077 439.751 903.792V908H437.671V899.44H439.751V901.04C440.338 899.941 441.362 899.381 442.823 899.36ZM460.505 896.128V908H458.425V906.624C458.116 907.104 457.716 907.472 457.225 907.728C456.745 907.973 456.185 908.096 455.545 908.096C454.734 908.096 454.02 907.915 453.401 907.552C452.793 907.179 452.318 906.661 451.977 906C451.636 905.328 451.465 904.56 451.465 903.696C451.465 902.843 451.63 902.091 451.961 901.44C452.302 900.779 452.777 900.267 453.385 899.904C454.004 899.541 454.708 899.36 455.497 899.36C456.148 899.36 456.718 899.488 457.209 899.744C457.7 900 458.105 900.368 458.425 900.848V896.128H460.505ZM455.993 906.352C456.708 906.352 457.289 906.112 457.737 905.632C458.196 905.141 458.425 904.512 458.425 903.744C458.425 902.976 458.196 902.352 457.737 901.872C457.289 901.381 456.708 901.136 455.993 901.136C455.278 901.136 454.697 901.381 454.249 901.872C453.801 902.352 453.572 902.976 453.561 903.744C453.572 904.512 453.801 905.141 454.249 905.632C454.697 906.112 455.278 906.352 455.993 906.352ZM466.739 899.376C468.104 899.376 469.128 899.765 469.811 900.544C470.504 901.323 470.851 902.416 470.851 903.824C470.851 904.101 470.846 904.309 470.835 904.448H464.515C464.654 905.056 464.936 905.536 465.363 905.888C465.8 906.229 466.334 906.4 466.963 906.4C467.4 906.4 467.816 906.32 468.211 906.16C468.616 905.989 468.968 905.749 469.267 905.44L470.387 906.608C469.96 907.077 469.438 907.44 468.819 907.696C468.211 907.952 467.534 908.08 466.787 908.08C465.912 908.08 465.139 907.899 464.467 907.536C463.806 907.173 463.294 906.667 462.931 906.016C462.568 905.355 462.387 904.597 462.387 903.744C462.387 902.891 462.568 902.133 462.931 901.472C463.304 900.811 463.822 900.299 464.483 899.936C465.144 899.563 465.896 899.376 466.739 899.376ZM468.947 903.056C468.926 902.427 468.718 901.925 468.323 901.552C467.928 901.179 467.406 900.992 466.755 900.992C466.147 900.992 465.635 901.179 465.219 901.552C464.814 901.915 464.563 902.416 464.467 903.056H468.947ZM477.712 901.76C477.296 901.515 476.864 901.323 476.416 901.184C475.978 901.045 475.573 900.976 475.2 900.976C474.848 900.976 474.565 901.04 474.352 901.168C474.149 901.285 474.048 901.472 474.048 901.728C474.048 901.995 474.176 902.203 474.432 902.352C474.698 902.491 475.114 902.64 475.68 902.8C476.277 902.981 476.768 903.163 477.152 903.344C477.536 903.515 477.866 903.776 478.144 904.128C478.432 904.469 478.576 904.923 478.576 905.488C478.576 906.32 478.256 906.96 477.616 907.408C476.976 907.856 476.17 908.08 475.2 908.08C474.538 908.08 473.893 907.979 473.264 907.776C472.634 907.563 472.101 907.264 471.664 906.88L472.384 905.424C472.768 905.755 473.226 906.016 473.76 906.208C474.293 906.389 474.8 906.48 475.28 906.48C475.664 906.48 475.968 906.416 476.192 906.288C476.426 906.149 476.544 905.947 476.544 905.68C476.544 905.381 476.41 905.157 476.144 905.008C475.877 904.859 475.445 904.693 474.848 904.512C474.272 904.341 473.802 904.176 473.44 904.016C473.077 903.845 472.762 903.595 472.496 903.264C472.229 902.923 472.096 902.48 472.096 901.936C472.096 901.093 472.4 900.453 473.008 900.016C473.626 899.568 474.4 899.344 475.328 899.344C475.893 899.344 476.448 899.424 476.992 899.584C477.546 899.744 478.037 899.968 478.464 900.256L477.712 901.76ZM489.288 907.472C488.606 907.888 487.891 908.096 487.144 908.096C486.408 908.096 485.806 907.883 485.336 907.456C484.867 907.019 484.632 906.379 484.632 905.536V901.312H483.432L483.416 899.792H484.632V897.44H486.696V899.792H489.144V901.312H486.696V905.168C486.696 905.563 486.771 905.845 486.92 906.016C487.07 906.176 487.294 906.256 487.592 906.256C487.912 906.256 488.318 906.139 488.808 905.904L489.288 907.472ZM495.977 908V906.96C495.678 907.333 495.294 907.616 494.825 907.808C494.356 908 493.817 908.096 493.209 908.096C492.612 908.096 492.084 907.984 491.625 907.76C491.177 907.525 490.83 907.205 490.585 906.8C490.34 906.395 490.217 905.941 490.217 905.44C490.217 904.64 490.5 904.016 491.065 903.568C491.63 903.109 492.43 902.875 493.465 902.864H495.961V902.64C495.961 902.139 495.796 901.749 495.465 901.472C495.134 901.195 494.654 901.056 494.025 901.056C493.214 901.056 492.366 901.323 491.481 901.856L490.729 900.416C491.401 900.043 492.009 899.776 492.553 899.616C493.108 899.445 493.753 899.36 494.489 899.36C495.598 899.36 496.457 899.627 497.065 900.16C497.684 900.693 497.998 901.44 498.009 902.4L498.025 908H495.977ZM493.705 906.496C494.302 906.496 494.814 906.357 495.241 906.08C495.668 905.792 495.908 905.44 495.961 905.024V904.256H493.801C493.246 904.256 492.836 904.341 492.569 904.512C492.313 904.672 492.185 904.939 492.185 905.312C492.185 905.675 492.318 905.963 492.585 906.176C492.862 906.389 493.236 906.496 493.705 906.496ZM497.049 898.192H495.193L494.313 897.184L493.433 898.192H491.577L493.305 895.888H495.321L497.049 898.192ZM506.247 902.144C505.671 901.515 504.924 901.2 504.007 901.2C503.313 901.2 502.748 901.435 502.311 901.904C501.884 902.373 501.671 902.981 501.671 903.728C501.671 904.496 501.884 905.115 502.311 905.584C502.748 906.053 503.313 906.288 504.007 906.288C505.031 906.288 505.799 905.952 506.311 905.28L507.607 906.352C507.223 906.907 506.716 907.333 506.087 907.632C505.457 907.931 504.727 908.08 503.895 908.08C503.052 908.08 502.3 907.899 501.639 907.536C500.988 907.173 500.481 906.667 500.118 906.016C499.756 905.355 499.575 904.597 499.575 903.744C499.575 902.88 499.756 902.117 500.118 901.456C500.492 900.795 501.004 900.283 501.655 899.92C502.316 899.557 503.073 899.376 503.927 899.376C504.705 899.376 505.399 899.515 506.007 899.792C506.625 900.059 507.127 900.443 507.51 900.944L506.247 902.144ZM514.638 899.36C515.619 899.36 516.392 899.659 516.958 900.256C517.523 900.843 517.806 901.643 517.806 902.656V908H515.71V903.264C515.71 902.667 515.539 902.197 515.198 901.856C514.856 901.504 514.392 901.328 513.806 901.328C513.112 901.339 512.563 901.573 512.158 902.032C511.752 902.491 511.55 903.077 511.55 903.792V908H509.47V896.128H511.55V901.072C512.136 899.952 513.166 899.381 514.638 899.36ZM523.708 899.376C525.073 899.376 526.097 899.765 526.78 900.544C527.473 901.323 527.82 902.416 527.82 903.824C527.82 904.101 527.814 904.309 527.804 904.448H521.484C521.622 905.056 521.905 905.536 522.332 905.888C522.769 906.229 523.302 906.4 523.932 906.4C524.369 906.4 524.785 906.32 525.18 906.16C525.585 905.989 525.937 905.749 526.236 905.44L527.356 906.608C526.929 907.077 526.406 907.44 525.788 907.696C525.18 907.952 524.502 908.08 523.756 908.08C522.881 908.08 522.108 907.899 521.436 907.536C520.774 907.173 520.262 906.667 519.9 906.016C519.537 905.355 519.356 904.597 519.356 903.744C519.356 902.891 519.537 902.133 519.9 901.472C520.273 900.811 520.79 900.299 521.452 899.936C522.113 899.563 522.865 899.376 523.708 899.376ZM525.916 903.056C525.894 902.427 525.686 901.925 525.292 901.552C524.897 901.179 524.374 900.992 523.724 900.992C523.116 900.992 522.604 901.179 522.188 901.552C521.782 901.915 521.532 902.416 521.436 903.056H525.916ZM534.681 901.76C534.265 901.515 533.833 901.323 533.385 901.184C532.947 901.045 532.542 900.976 532.169 900.976C531.817 900.976 531.534 901.04 531.321 901.168C531.118 901.285 531.017 901.472 531.017 901.728C531.017 901.995 531.145 902.203 531.401 902.352C531.667 902.491 532.083 902.64 532.649 902.8C533.246 902.981 533.737 903.163 534.121 903.344C534.505 903.515 534.835 903.776 535.113 904.128C535.401 904.469 535.545 904.923 535.545 905.488C535.545 906.32 535.225 906.96 534.585 907.408C533.945 907.856 533.139 908.08 532.169 908.08C531.507 908.08 530.862 907.979 530.233 907.776C529.603 907.563 529.07 907.264 528.633 906.88L529.353 905.424C529.737 905.755 530.195 906.016 530.729 906.208C531.262 906.389 531.769 906.48 532.249 906.48C532.633 906.48 532.937 906.416 533.161 906.288C533.395 906.149 533.513 905.947 533.513 905.68C533.513 905.381 533.379 905.157 533.113 905.008C532.846 904.859 532.414 904.693 531.817 904.512C531.241 904.341 530.771 904.176 530.409 904.016C530.046 903.845 529.731 903.595 529.465 903.264C529.198 902.923 529.065 902.48 529.065 901.936C529.065 901.093 529.369 900.453 529.977 900.016C530.595 899.568 531.369 899.344 532.297 899.344C532.862 899.344 533.417 899.424 533.961 899.584C534.515 899.744 535.006 899.968 535.433 900.256L534.681 901.76ZM537.823 905.84C538.143 905.84 538.405 905.947 538.607 906.16C538.821 906.373 538.927 906.645 538.927 906.976C538.927 907.317 538.821 907.6 538.607 907.824C538.405 908.037 538.143 908.144 537.823 908.144C537.514 908.144 537.253 908.032 537.039 907.808C536.837 907.584 536.735 907.307 536.735 906.976C536.735 906.645 536.837 906.373 537.039 906.16C537.253 905.947 537.514 905.84 537.823 905.84Z" fill="#E0EAFF" fill-opacity="0.75"/>
<rect x="339.5" y="926" width="16" height="8" rx="4" fill="#E0EAFF"/>
<rect x="359.5" y="926" width="8" height="8" rx="4" fill="#E0EAFF" fill-opacity="0.5"/>
<rect x="371.5" y="926" width="8" height="8" rx="4" fill="#E0EAFF" fill-opacity="0.5"/>
<path d="M646.186 449.079C640.035 373.247 636.96 335.331 622.645 310.8C581.66 240.56 462.498 223.854 387.238 230.26C286.483 238.834 171.221 296.755 120.484 408.585C74.4015 510.158 95.6503 625.132 165.086 700.343C292.374 838.217 554.939 813.601 619.079 723.131C644.676 687.025 646.521 629.357 649.233 544.644C650.536 503.865 647.992 471.369 646.186 449.079Z" fill="#F4F7FA"/>
<path d="M597.905 275.394C591.391 270.004 581.509 267.069 573.156 266.476C513.947 262.281 505.306 386.044 514.381 413.703C523.457 441.362 517.576 450.444 470.944 464.915C424.311 479.386 446.683 507.248 452.366 523.542C458.05 539.836 469.306 553.601 435.311 569.791C401.317 585.981 413.131 596.013 413.131 596.013C413.131 596.013 475.822 660.139 472.359 639.609C468.896 619.078 475.17 588.078 531.377 585.721C555.588 584.706 592.661 573.158 600.87 547.235C602.782 541.198 604.112 531.978 602.659 525.73C600.641 517.063 594.953 510.234 591.795 502.076C584.434 483.066 602.896 469.145 613.52 456.438C619.068 449.805 624.612 443.003 628.858 435.439C637.678 419.736 634.375 402.896 624.772 388.421C620.166 381.481 613.768 374.117 611.759 365.837C609.601 356.944 611.482 344.793 611.994 335.644C612.396 328.469 613.08 321.322 612.676 314.128C611.929 300.751 608.795 284.404 597.905 275.394Z" fill="url(#paint4_linear_1_13377)"/>
<g opacity="0.8">
<g opacity="0.8">
<path opacity="0.8" d="M408.201 632.004C407.795 632.15 407.334 631.977 407.129 631.585C406.906 631.157 407.071 630.627 407.499 630.404C407.763 630.266 434.155 616.384 463.597 593.519C490.726 572.451 526.068 539.232 540.377 500.614C552.329 468.361 563.227 415.04 570.281 354.326C576.606 299.883 577.605 259.618 574.917 252.144C574.753 251.69 574.99 251.188 575.445 251.024C575.9 250.859 576.401 251.097 576.565 251.552C579.71 260.296 577.714 305.528 572.023 354.529C564.954 415.377 554.02 468.844 542.021 501.223C527.564 540.237 491.966 573.712 464.648 594.922C435.085 617.876 408.577 631.817 408.313 631.955C408.274 631.973 408.238 631.989 408.201 632.004Z" fill="white"/>
</g>
<g opacity="0.8">
<path opacity="0.8" d="M570.185 364.88C569.733 365.043 569.272 364.917 569.105 364.464C568.886 363.865 546.813 304.481 518.35 291.074C517.912 290.869 517.735 290.374 517.94 289.935C518.147 289.497 518.673 289.324 519.11 289.529C548.224 303.243 569.838 361.381 570.746 363.855C570.912 364.31 570.644 364.716 570.189 364.878C570.187 364.88 570.185 364.88 570.185 364.88Z" fill="white"/>
</g>
<g opacity="0.8">
<path opacity="0.8" d="M559.42 433.748C559.083 433.87 558.689 433.774 558.448 433.48C558.141 433.106 558.194 432.554 558.568 432.248C558.73 432.114 574.981 418.784 595.032 407.597C622.125 392.482 642.889 388.262 656.745 395.056C657.179 395.269 657.358 395.793 657.144 396.228C656.931 396.662 656.408 396.841 655.973 396.627C624.092 380.997 560.319 433.07 559.68 433.598C559.601 433.665 559.511 433.715 559.42 433.748Z" fill="white"/>
</g>
<g opacity="0.8">
<path opacity="0.8" d="M488.668 574.514C488.579 574.547 488.486 574.563 488.386 574.565C487.903 574.573 487.505 574.187 487.497 573.702C487.493 573.448 487.042 547.969 481.71 521.122C476.82 496.508 466.723 465.676 446.392 458.572C445.935 458.411 445.694 457.912 445.854 457.457C446.012 457 446.514 456.759 446.969 456.919C463.922 462.842 476.189 484.337 483.431 520.806C488.792 547.805 489.243 573.42 489.247 573.676C489.255 574.061 489.011 574.39 488.668 574.514Z" fill="white"/>
</g>
<g opacity="0.8">
<path opacity="0.8" d="M524.847 533.349C524.492 533.477 524.082 533.364 523.846 533.045C523.558 532.655 523.641 532.107 524.029 531.821C526.849 529.736 593.356 480.843 619.291 485.511C619.768 485.597 620.083 486.053 619.998 486.528C619.912 487.005 619.458 487.322 618.981 487.235C593.78 482.698 525.755 532.722 525.07 533.228C525.001 533.283 524.924 533.321 524.847 533.349Z" fill="white"/>
</g>
</g>
<path d="M649.871 457.684C645.565 450.409 637.259 444.303 629.6 440.919C575.301 416.936 525.293 530.475 524.473 559.573C523.653 588.672 515.046 595.228 466.27 593.066C417.492 590.905 429.115 624.694 428.951 641.95C428.786 659.206 434.72 675.967 397.252 679.7C359.785 683.433 367.506 696.868 367.506 696.868C367.506 696.868 404.801 778.425 408.49 757.933C412.178 737.441 428.571 710.393 482.26 727.197C505.384 734.433 544.179 736.112 560.676 714.496C564.518 709.462 568.889 701.237 569.634 694.865C570.667 686.027 567.626 677.676 567.413 668.931C566.918 648.551 589.003 641.698 603.299 633.337C610.763 628.973 618.282 624.446 624.838 618.767C638.451 606.975 641.043 590.011 636.904 573.141C634.919 565.052 631.389 555.956 632.3 547.485C633.278 538.388 639.161 527.589 642.738 519.152C645.543 512.537 648.606 506.041 650.66 499.136C654.487 486.289 657.071 469.847 649.871 457.684Z" fill="url(#paint5_linear_1_13377)"/>
<g opacity="0.8">
<g opacity="0.8">
<path opacity="0.8" d="M350.688 729.065C350.258 729.065 349.883 728.747 349.822 728.308C349.757 727.829 350.092 727.387 350.571 727.322C350.865 727.281 380.398 723.148 415.839 711.594C448.496 700.95 492.995 681.647 519.528 650.15C541.688 623.843 569.986 577.356 597.166 522.611C621.539 473.52 636.104 435.967 636.104 428.024C636.104 427.541 636.495 427.149 636.978 427.149C637.462 427.149 637.853 427.541 637.853 428.024C637.853 437.317 620.67 479.206 598.733 523.39C571.492 578.256 543.111 624.87 520.865 651.278C494.061 683.099 449.235 702.553 416.351 713.269C380.765 724.866 351.103 729.015 350.806 729.055C350.77 729.063 350.729 729.065 350.688 729.065Z" fill="white"/>
</g>
<g opacity="0.8">
<path opacity="0.8" d="M593.507 532.692C593.026 532.692 592.634 532.327 592.632 531.845C592.628 531.208 591.952 467.813 569.705 445.566C569.362 445.224 569.362 444.674 569.705 444.333C570.046 443.992 570.6 443.994 570.943 444.335C593.7 467.092 594.366 529.199 594.384 531.833C594.388 532.316 593.998 532.692 593.513 532.692C593.509 532.692 593.507 532.692 593.507 532.692Z" fill="white"/>
</g>
<g opacity="0.8">
<path opacity="0.8" d="M560.075 593.675C559.715 593.675 559.378 593.451 559.251 593.094C559.088 592.639 559.324 592.138 559.78 591.973C559.977 591.902 579.781 584.857 602.436 581.116C633.045 576.059 654.011 579.116 664.753 590.197C665.09 590.544 665.08 591.099 664.733 591.436C664.386 591.773 663.832 591.762 663.495 591.415C638.783 565.92 561.153 593.342 560.371 593.622C560.272 593.658 560.172 593.675 560.075 593.675Z" fill="white"/>
</g>
<g opacity="0.8">
<path opacity="0.8" d="M445.864 702.197C445.77 702.197 445.675 702.18 445.58 702.15C445.123 701.994 444.877 701.496 445.036 701.037C445.117 700.796 453.316 676.669 457.381 649.6C461.108 624.783 462.04 592.354 445.312 578.788C444.936 578.484 444.879 577.931 445.184 577.556C445.488 577.18 446.04 577.122 446.416 577.428C460.365 588.739 464.636 613.117 459.109 649.883C455.019 677.103 446.775 701.36 446.692 701.604C446.568 701.967 446.227 702.197 445.864 702.197Z" fill="white"/>
</g>
<g opacity="0.8">
<path opacity="0.8" d="M493.835 675.702C493.458 675.702 493.111 675.457 492.997 675.079C492.857 674.616 493.121 674.127 493.584 673.989C496.941 672.982 576.07 649.476 598.896 662.646C599.314 662.888 599.458 663.424 599.217 663.842C598.975 664.26 598.439 664.404 598.021 664.162C575.841 651.366 494.901 675.422 494.087 675.666C494.004 675.69 493.919 675.702 493.835 675.702Z" fill="white"/>
</g>
</g>
<path d="M467.854 253.146L467.229 257.624C465.152 257.719 463.11 257.987 461.123 258.434L459.43 254.256C458.969 253.117 457.664 252.575 456.517 253.048L449.338 256.006C448.189 256.479 447.629 257.79 448.087 258.931L449.788 263.161C448.049 264.27 446.404 265.524 444.874 266.913L441.269 264.115C440.295 263.36 438.882 263.547 438.112 264.534L433.289 270.704C432.516 271.693 432.68 273.11 433.655 273.867L437.274 276.68C436.31 278.491 435.5 280.403 434.846 282.398L430.253 281.796C429.019 281.633 427.87 282.508 427.687 283.75L426.532 291.533C426.347 292.779 427.2 293.924 428.436 294.087L433.044 294.691C433.099 296.792 433.328 298.859 433.736 300.87L429.412 302.673C428.247 303.158 427.675 304.5 428.134 305.667L431.014 312.987C431.475 314.16 432.796 314.714 433.965 314.225L438.291 312.414C439.379 314.184 440.619 315.853 441.996 317.404L439.113 321.147C438.334 322.16 438.5 323.609 439.487 324.384L445.666 329.232C446.654 330.007 448.089 329.812 448.867 328.795L451.715 325.077C453.533 326.045 455.458 326.851 457.465 327.494L456.818 332.135C456.641 333.405 457.508 334.568 458.754 334.731L466.555 335.754C467.803 335.918 468.954 335.019 469.129 333.748L469.758 329.143C471.879 329.051 473.964 328.777 475.992 328.32L477.703 332.575C478.178 333.756 479.508 334.315 480.673 333.821L487.948 330.738C489.111 330.245 489.665 328.891 489.188 327.713L487.477 323.489C489.253 322.342 490.926 321.041 492.477 319.602L496.033 322.367C497.028 323.14 498.453 322.945 499.216 321.932L503.98 315.615C504.741 314.607 504.552 313.167 503.56 312.398L500.036 309.666C500.996 307.804 501.794 305.837 502.427 303.789L506.832 304.368C508.068 304.53 509.201 303.647 509.361 302.397L510.362 294.594C510.522 293.35 509.651 292.209 508.417 292.046L504.025 291.47C503.933 289.343 503.665 287.256 503.215 285.228L507.289 283.523C508.434 283.044 508.975 281.72 508.5 280.568L505.525 273.374C505.05 272.225 503.738 271.681 502.594 272.158L498.495 273.867C497.379 272.115 496.116 270.463 494.714 268.934L497.421 265.4C498.175 264.416 497.99 263.009 497.011 262.256L490.891 257.553C489.913 256.802 488.51 256.986 487.755 257.967L485.031 261.505C483.224 260.567 481.316 259.788 479.325 259.171L479.932 254.727C480.098 253.505 479.244 252.383 478.02 252.222L470.373 251.22C469.155 251.063 468.025 251.922 467.854 253.146ZM440.895 289.418C443.106 274.039 457.22 263.259 472.434 265.254C487.648 267.249 498.333 281.284 496.289 296.683C494.232 312.177 480.088 323.169 464.708 321.153C449.327 319.135 438.673 304.89 440.895 289.418Z" fill="#D8DEE8"/>
<path d="M350.604 250.718L349.638 257.642C346.429 257.788 343.271 258.202 340.197 258.893L337.581 252.433C336.866 250.672 334.851 249.835 333.079 250.566L321.977 255.139C320.201 255.872 319.334 257.896 320.045 259.664L322.675 266.204C319.986 267.917 317.442 269.856 315.078 272.006L309.495 267.68C307.991 266.513 305.805 266.803 304.616 268.325L297.158 277.866C295.962 279.394 296.216 281.585 297.722 282.756L303.318 287.108C301.829 289.907 300.574 292.865 299.563 295.948L292.461 295.016C290.555 294.767 288.778 296.118 288.492 298.039L286.708 310.074C286.422 312.002 287.741 313.77 289.653 314.02L296.776 314.954C296.861 318.202 297.215 321.399 297.848 324.508L291.164 327.295C289.361 328.046 288.476 330.119 289.186 331.926L293.64 343.242C294.352 345.055 296.397 345.913 298.203 345.156L304.892 342.357C306.572 345.093 308.491 347.673 310.62 350.071L306.164 355.858C304.959 357.425 305.216 359.666 306.743 360.863L316.298 368.358C317.826 369.557 320.045 369.255 321.248 367.684L325.651 361.935C328.463 363.433 331.44 364.68 334.544 365.674L333.541 372.85C333.267 374.815 334.607 376.613 336.537 376.865L348.599 378.446C350.527 378.7 352.31 377.31 352.578 375.345L353.552 368.224C356.832 368.084 360.056 367.66 363.19 366.953L365.835 373.532C366.569 375.359 368.626 376.222 370.426 375.458L381.676 370.692C383.472 369.931 384.331 367.836 383.592 366.013L380.945 359.481C383.691 357.709 386.278 355.695 388.677 353.471L394.174 357.746C395.71 358.941 397.913 358.639 399.094 357.076L406.461 347.31C407.636 345.751 407.346 343.524 405.811 342.335L400.363 338.113C401.849 335.232 403.081 332.191 404.059 329.027L410.872 329.92C412.784 330.172 414.535 328.806 414.783 326.873L416.33 314.808C416.578 312.881 415.23 311.119 413.324 310.87L406.532 309.978C406.392 306.69 405.978 303.463 405.279 300.328L411.58 297.692C413.352 296.951 414.19 294.905 413.452 293.122L408.85 281.999C408.115 280.222 406.087 279.382 404.319 280.119L397.984 282.76C396.258 280.05 394.304 277.496 392.138 275.136L396.323 269.671C397.489 268.151 397.204 265.975 395.688 264.81L386.225 257.539C384.713 256.378 382.543 256.664 381.375 258.18L377.161 263.651C374.366 262.201 371.417 260.995 368.34 260.039L369.279 253.168C369.537 251.278 368.214 249.545 366.324 249.297L354.5 247.746C352.614 247.499 350.868 248.828 350.604 250.718ZM308.921 306.802C312.337 283.024 334.16 266.354 357.683 269.44C381.205 272.525 397.726 294.225 394.568 318.035C391.389 341.99 369.521 358.988 345.741 355.868C321.959 352.75 305.482 330.722 308.921 306.802Z" fill="#D8DEE8"/>
<path d="M339.292 317.765L287.578 747.6C286.803 754.044 291.244 759.821 297.468 760.439L512.862 784.087C526.057 784.907 533.281 778.165 534.097 771.313L588.39 314.326C589.2 307.512 582.727 301.339 569.476 301.339L352.122 305.916C345.828 306.024 340.063 311.354 339.292 317.765Z" fill="url(#paint6_linear_1_13377)"/>
<path d="M329.597 317.026L277.599 749.01C276.82 755.488 281.278 761.295 287.522 761.916L510.824 784.15C517.825 784.846 524.242 779.781 525.06 772.894L579.658 313.547C580.472 306.696 575.33 301.191 568.252 301.311L342.472 305.121C336.159 305.224 330.372 310.583 329.597 317.026Z" fill="url(#paint7_linear_1_13377)"/>
<path d="M333.835 340.854L285.64 741.389C284.911 747.44 289.086 752.856 294.93 753.424L504.94 773.839C511.447 774.472 517.411 769.745 518.174 763.332L568.631 339.002C569.39 332.624 564.616 327.462 558.041 327.533L345.876 329.793C339.971 329.854 334.56 334.833 333.835 340.854Z" fill="#D8DEE8"/>
<path d="M446.453 316.728C446.177 319.027 447.827 320.869 450.141 320.838C452.457 320.81 454.56 318.918 454.836 316.614C455.112 314.31 453.456 312.469 451.14 312.503C448.824 312.538 446.727 314.43 446.453 316.728Z" fill="url(#paint8_linear_1_13377)"/>
<path d="M370.143 609.719C413.136 530.231 477.363 506.436 496.7 424.515C507.152 380.233 500.031 337.849 488.036 302.663L568.255 301.309C575.333 301.189 580.475 306.696 579.661 313.545L525.063 772.892C524.245 779.782 517.829 784.846 510.828 784.148L335.29 766.671C333.989 695.447 350.977 645.15 370.143 609.719Z" fill="white"/>
<path d="M117.592 362.612C117.592 320.374 154.436 286.14 198.651 286.144C241.558 286.148 275.421 318.581 275.421 358.584C275.421 398.587 241.558 432.748 198.651 434.942C154.434 437.204 117.592 404.849 117.592 362.612Z" fill="url(#paint9_linear_1_13377)"/>
<path d="M122.358 359.242C122.358 317.005 158.137 282.771 201.07 282.775C242.736 282.779 275.62 315.212 275.62 355.215C275.62 395.218 242.736 429.379 201.07 431.573C158.135 433.834 122.358 401.478 122.358 359.242Z" fill="url(#paint10_linear_1_13377)"/>
<g opacity="0.5">
<path opacity="0.5" d="M134.606 358.92C134.606 323.434 164.665 294.67 200.738 294.676C235.743 294.68 263.372 321.929 263.372 355.538C263.372 389.147 235.745 417.847 200.738 419.69C164.665 421.59 134.606 394.406 134.606 358.92Z" fill="white"/>
</g>
<path opacity="0.5" d="M198.255 300.129C233.261 300.133 260.889 327.382 260.889 360.991C260.889 368.982 259.312 376.69 256.46 383.831C260.877 375.232 263.374 365.609 263.374 355.539C263.374 321.93 235.747 294.681 200.74 294.677C172.918 294.675 148.69 311.791 139.054 335.898C149.964 314.704 172.581 300.127 198.255 300.129Z" fill="white"/>
<path d="M170.829 350.236V381.208C170.829 390.162 178.361 397.226 187.626 396.985L210.598 396.386C219.751 396.146 227.148 388.772 227.148 379.911V349.266L170.829 350.236ZM191.984 382.256L196.253 369.319C194.424 368.375 193.186 366.516 193.186 364.35C193.186 361.171 195.853 358.543 199.137 358.482C202.418 358.419 205.075 360.94 205.075 364.113C205.075 366.274 203.841 368.181 202.018 369.2L206.27 381.923L191.984 382.256Z" fill="white"/>
<path d="M220.617 346.58C218.179 346.621 216.202 344.735 216.202 342.366C216.202 333.262 208.56 325.955 199.135 326.076C189.678 326.198 181.958 333.751 181.958 342.912C181.958 345.295 179.955 347.26 177.48 347.303C175.004 347.343 172.994 345.444 172.994 343.056C172.994 329.113 184.753 317.636 199.137 317.476C213.444 317.315 225.024 328.419 225.024 342.228C225.024 344.591 223.053 346.54 220.617 346.58Z" fill="white"/>
<path d="M273.824 523.234C273.824 523.234 272.261 517.376 273.37 515.878C274.476 514.38 281.246 508.392 280.596 510.344C279.944 512.297 278.968 513.598 278.968 513.598C278.968 513.598 282.614 515.291 280.269 517.829C277.927 520.368 277.143 520.953 277.013 523.232C276.885 525.512 275.387 526.293 273.824 523.234Z" fill="url(#paint11_linear_1_13377)"/>
<path d="M208.797 776.111C208.797 776.111 207.969 781.178 208.074 782.98C208.18 784.783 228.191 785.705 228.392 784.355C228.592 783.005 225.085 780.855 222.615 780.098C220.144 779.339 212.914 777.317 212.914 777.317L208.797 776.111Z" fill="#1C2B58"/>
<path d="M213.654 771.061L213.016 777.362C213.016 777.362 210.692 778.899 208.644 777.713L207.619 770.856L213.654 771.061Z" fill="url(#paint12_linear_1_13377)"/>
<path d="M173.094 784.325C173.094 784.325 172.266 789.391 172.371 791.194C172.477 792.996 192.487 793.918 192.688 792.568C192.891 791.218 189.382 789.069 186.911 788.311C184.441 787.554 177.21 785.53 177.21 785.53L173.094 784.325Z" fill="url(#paint13_linear_1_13377)"/>
<path d="M177.952 779.274L177.315 785.575C177.315 785.575 174.99 787.112 172.942 785.926L171.917 779.069L177.952 779.274Z" fill="url(#paint14_linear_1_13377)"/>
<path d="M210.024 606.588C212.336 611.277 214.65 615.966 216.962 620.655C218.821 647.415 219.747 676.516 219.152 707.636C218.709 730.788 217.473 752.721 215.695 773.308C212.559 773.164 209.423 773.02 206.287 772.876C201.752 763.875 196.399 750.241 195.906 733.409C195.392 715.853 200.715 713.52 200.378 696.711C199.939 674.922 190.803 669.109 185.935 642.901C184.074 632.877 182.821 619.787 184.309 603.905C192.881 604.8 201.451 605.695 210.024 606.588Z" fill="url(#paint15_linear_1_13377)"/>
<path opacity="0.3" d="M184.311 603.905C188.939 604.388 193.567 604.871 198.197 605.354C206.53 619.854 208.856 634.944 207.392 641.62C205.324 651.065 199.851 654.09 200.154 663.571C200.452 672.953 205.98 675.387 209.485 686.444C211.913 694.1 211.272 701.14 209.891 714.907C207.11 742.637 200.414 751.118 206.022 760.209C207.616 762.794 210.488 765.869 216.115 768.217C215.977 769.918 215.841 771.624 215.697 773.306C212.561 773.164 209.424 773.018 206.288 772.876C201.753 763.875 196.401 750.241 195.907 733.409C195.394 715.853 200.716 713.52 200.379 696.711C199.941 674.922 190.804 669.111 185.937 642.903C184.075 632.879 182.821 619.789 184.311 603.905Z" fill="url(#paint16_linear_1_13377)"/>
<path d="M197.578 615.03C193.236 638.707 189.401 664.046 186.409 690.919C182.796 723.367 180.868 753.957 180.111 782.357C176.668 782.455 173.227 782.552 169.785 782.649C156.221 755.816 155.393 737.625 157.348 725.78C158.101 721.217 160.149 712.267 160.616 698.891C160.941 689.567 160.346 682.471 159.603 673.941C157.975 655.24 155.998 651.158 155.714 636.853C155.446 623.428 155.391 616.636 159.223 612.672C169.32 602.224 195.587 614.105 197.578 615.03Z" fill="url(#paint17_linear_1_13377)"/>
<path d="M272.024 522.331C274.314 522.171 276.602 522.013 278.891 521.852C284.291 543.675 280.418 564.843 268.231 572.628C249.188 584.791 213.797 561.875 206.128 536.922C202.763 525.969 203.528 510.164 210.257 507.093C212.125 506.24 215.023 506.108 221.302 509.632C240.052 520.159 240.545 540.056 250.077 541.741C254.312 542.492 261.156 539.79 272.024 522.331Z" fill="url(#paint18_linear_1_13377)"/>
<path d="M219.596 625.456C222.895 619.983 218.752 614.705 217.81 604.339C216.742 592.588 221.269 590.631 225.745 571.158C228.723 558.208 231.579 545.775 228.169 531.22C226.535 524.246 223.762 512.416 213.97 506.702C208.917 503.752 202.018 504.048 188.428 504.759C171.62 505.638 163.219 506.076 156.95 509.377C156.033 509.86 136.968 520.231 135.655 537.135C134.319 554.341 153.055 556.653 155.554 579.596C156.676 589.896 154.677 605.737 153.38 616.01C152.135 625.876 151.277 628.401 153.225 631.389C157.919 638.589 172.284 636.537 201.015 632.434C212.285 630.822 217.134 629.54 219.596 625.456Z" fill="url(#paint19_linear_1_13377)"/>
<path d="M175.88 575.904C174.664 580.375 170.296 583.715 167.255 594.593C166.599 596.941 161.921 613.665 167.988 617.782C171.491 620.159 174.638 615.655 183.143 615.066C197.88 614.047 204.901 626.433 214.529 623.05C216.199 622.461 218.404 621.211 220.606 618.336C221.045 620.926 220.97 623.177 219.597 625.457C217.137 629.541 212.286 630.824 201.016 632.434C172.285 636.536 157.92 638.588 153.227 631.388C151.28 628.402 152.136 625.875 153.381 616.01C154.678 605.735 156.677 589.894 155.555 579.596C153.056 556.652 134.318 554.34 135.656 537.135C136.013 532.535 137.704 528.441 139.967 524.875C163.735 534.492 179.698 561.851 175.88 575.904Z" fill="url(#paint20_linear_1_13377)"/>
<path d="M145.861 609.746L150.617 612.783C151.472 611.796 153.449 609.807 156.534 609.129C160.012 608.364 164.004 609.462 164.096 610.57C164.171 611.459 161.739 612.356 161.364 612.494C158.329 613.615 156.078 612.683 154.852 613.903C154.417 614.334 153.877 615.137 152.633 615.88C152.306 616.075 151.965 616.248 151.785 616.319C149.759 617.106 146.286 613.58 145.987 613.272L145.861 609.746Z" fill="url(#paint21_linear_1_13377)"/>
<path d="M159.91 547.376C163.351 539.137 165.734 526.521 160.3 507.787C124.497 521.895 106.238 555.339 113.367 581.849C119.243 603.705 140.626 614.35 145.396 616.591C146.507 614.063 147.617 611.538 148.725 609.013C143.198 602.859 136.968 593.757 137.849 583.37C139.071 568.97 152.945 564.055 159.91 547.376Z" fill="url(#paint22_linear_1_13377)"/>
<path d="M187.546 487.809C187.546 487.809 187.264 494.071 185.319 498.762C183.561 503.001 174.321 505.666 172.448 506.612C170.574 507.558 175.958 510.324 181.363 510.866C186.769 511.41 202.204 510.182 204.987 508.134C207.77 506.086 202.75 506.24 198.893 504.824C195.034 503.407 192.803 495.862 193.485 492.437C194.168 489.011 187.546 487.809 187.546 487.809Z" fill="url(#paint23_linear_1_13377)"/>
<path d="M196.096 485.538C198.901 482.781 199.293 482.461 199.597 481.509C200.823 477.686 197.858 472.449 193.969 471.16C193.766 471.093 191.157 470.259 190.163 471.39C189.316 472.35 190.56 473.677 189.97 475.531C189.416 477.264 187.913 477.394 185.126 479.668C182.831 481.539 181.406 482.704 181.077 484.342C180.399 487.718 184.485 492.61 188.102 492.478C189.403 492.429 189.759 491.766 196.096 485.538Z" fill="url(#paint24_linear_1_13377)"/>
<path d="M188.458 493.001C188.458 493.001 191.44 496.377 195.981 495.26C200.047 494.262 199.009 484.928 196.034 483.438C195.041 482.941 193.236 482.982 191.88 483.635C191.079 484.021 190.855 484.423 189.534 485.028C188.316 485.586 187.928 485.509 187.601 485.903C187.191 486.394 187.015 487.453 188.3 490.007C187.374 489.351 186.377 489.213 185.766 489.648C185.669 489.717 185.421 489.96 185.314 490.279C184.926 491.434 186.128 492.609 188.458 493.001Z" fill="url(#paint25_linear_1_13377)"/>
<path d="M528.515 366.628L529.565 372.293L507.961 372.344L320.481 372.789C315.658 372.801 311.223 376.787 310.561 381.694L265.806 680.802C265.141 685.753 272.846 693.31 277.641 693.68L360.815 700.072V699.97L485.23 709.515C485.232 709.515 485.234 709.515 485.236 709.515L485.537 709.641C490.849 710.051 495.723 706.196 496.413 700.967C496.413 700.965 496.413 700.99 496.415 700.987L538.328 381.637C539.01 376.457 533.858 366.614 528.515 366.628Z" fill="url(#paint26_linear_1_13377)"/>
<path d="M492.174 694.745C491.488 699.976 486.616 703.885 481.304 703.477L273.193 687.498C268.4 687.131 265.065 682.819 265.731 677.868L306.416 375.579C307.076 370.673 311.511 366.686 316.33 366.672L525.616 366.095C530.957 366.081 534.745 370.269 534.067 375.449L492.174 694.745Z" fill="url(#paint27_linear_1_13377)"/>
<path d="M494.939 528.503C494.598 531.093 492.178 533.026 489.535 532.928L306.373 526.244C303.956 526.156 302.255 524.165 302.588 521.691L306.189 495C306.522 492.528 308.728 490.855 311.148 490.922L494.47 496.013C497.117 496.086 498.991 497.955 498.652 500.543L494.939 528.503Z" fill="white"/>
<path d="M487.847 582.735C487.505 585.331 485.084 587.546 482.441 587.414L299.417 578.373C297.001 578.253 295.321 575.941 295.654 573.465L299.283 546.258C299.616 543.784 301.843 541.663 304.26 541.76L487.396 549.147C490.039 549.254 491.908 551.646 491.567 554.238L487.847 582.735Z" fill="white"/>
<path opacity="0.1" d="M498.666 500.436C498.232 500.296 497.765 500.219 497.268 500.205L313.941 495.116C311.524 495.047 309.315 496.723 308.986 499.19L305.379 525.881C305.371 525.95 305.365 526.015 305.359 526.084C303.5 525.56 302.304 523.798 302.584 521.687L306.191 494.996C306.52 492.53 308.729 490.851 311.146 490.922L494.473 496.011C497.073 496.088 498.938 497.899 498.666 500.436Z" fill="url(#paint28_linear_1_13377)"/>
<path opacity="0.1" d="M491.607 553.637C491.166 553.462 490.691 553.357 490.188 553.336L307.056 545.947C304.639 545.85 302.408 547.975 302.079 550.45L298.443 577.658C298.423 577.833 298.409 578.001 298.409 578.176C296.55 577.575 295.368 575.576 295.648 573.464L299.284 546.256C299.613 543.782 301.841 541.656 304.261 541.754L487.393 549.142C489.839 549.248 491.613 551.288 491.607 553.637Z" fill="url(#paint29_linear_1_13377)"/>
<path d="M439.171 626.692C439.71 622.598 436.816 618.827 432.701 618.589L337.957 613.149C334.033 612.924 330.41 616.228 329.876 620.215L325.966 649.685C325.432 653.678 328.154 657.498 332.076 657.766L426.772 664.245C430.885 664.527 434.672 661.054 435.214 656.954L439.171 626.692Z" fill="url(#paint30_linear_1_13377)"/>
<path d="M446.326 428.144C445.078 437.564 440.238 446.067 433.357 452.321C425.942 459.067 416.174 463.171 406.017 462.974C395.91 462.779 387.403 458.364 381.94 451.469C376.902 445.113 374.434 436.645 375.67 427.382C378.242 408.113 395.946 392.535 415.374 392.582C434.987 392.625 448.92 408.545 446.326 428.144Z" fill="url(#paint31_linear_1_13377)"/>
<path d="M427.434 417.437C426.313 425.877 418.523 432.641 410.064 432.539C401.64 432.438 395.741 425.563 396.856 417.183C397.972 408.806 405.684 402.049 414.112 402.087C422.576 402.126 428.554 408.997 427.434 417.437Z" fill="white"/>
<path d="M433.359 452.322C425.943 459.068 416.176 463.172 406.018 462.975C395.911 462.78 387.404 458.365 381.942 451.47C388.194 442.76 398.506 436.966 409.457 437.109C420.467 437.251 429.341 443.352 433.359 452.322Z" fill="white"/>
<path opacity="0.4" d="M534.065 375.448L492.174 694.744C491.488 699.973 486.306 703.86 480.996 703.452L356.002 693.855C350.065 687.775 345.175 680.48 341.685 671.725C339.972 667.432 338.718 662.8 337.883 657.928C335.563 644.445 336.462 629.12 339.846 614.076C342.448 602.496 346.529 591.064 351.751 580.748C355.929 572.5 360.841 564.959 366.328 558.622C370.278 554.061 374.551 549.63 379.057 545.284C384.491 540.039 390.266 534.919 396.224 529.847C410.106 518.018 424.971 506.454 438.734 494.243C470.489 466.072 496.252 434.595 490.053 389.681C489.854 388.267 487.92 377.433 485.447 366.204L525.306 366.094C530.645 366.08 534.745 370.27 534.065 375.448Z" fill="white"/>
<defs>
<radialGradient id="paint0_radial_1_13377" cx="0" cy="0" r="1" gradientUnits="userSpaceOnUse" gradientTransform="translate(360 512) rotate(90) scale(303)">
<stop stop-color="#F7A400"/>
<stop offset="1" stop-color="#A65A00" stop-opacity="0.94"/>
</radialGradient>
<linearGradient id="paint1_linear_1_13377" x1="232.047" y1="209" x2="417.757" y2="806.559" gradientUnits="userSpaceOnUse">
<stop stop-color="#444CE7" stop-opacity="0.81"/>
<stop offset="1" stop-opacity="0"/>
</linearGradient>
<radialGradient id="paint2_radial_1_13377" cx="0" cy="0" r="1" gradientUnits="userSpaceOnUse" gradientTransform="translate(360 511) rotate(90) scale(264)">
<stop stop-color="#F7A400"/>
<stop offset="1" stop-color="#F7A400" stop-opacity="0.15"/>
</radialGradient>
<linearGradient id="paint3_linear_1_13377" x1="360" y1="247" x2="413.333" y2="745.667" gradientUnits="userSpaceOnUse">
<stop stop-color="#FFEDC8"/>
<stop offset="1" stop-color="#F7A400" stop-opacity="0.15"/>
</linearGradient>
<linearGradient id="paint4_linear_1_13377" x1="476.604" y1="638.957" x2="624.864" y2="238.538" gradientUnits="userSpaceOnUse">
<stop offset="0.921" stop-color="#1C2B58"/>
<stop offset="1" stop-color="#2D31A6" stop-opacity="0.59"/>
</linearGradient>
<linearGradient id="paint5_linear_1_13377" x1="366.849" y1="599.426" x2="654.427" y2="599.426" gradientUnits="userSpaceOnUse">
<stop stop-color="#F7A400"/>
<stop offset="1" stop-color="#F7A400" stop-opacity="0.58"/>
</linearGradient>
<linearGradient id="paint6_linear_1_13377" x1="440.649" y1="531.63" x2="525.534" y2="540.891" gradientUnits="userSpaceOnUse">
<stop stop-color="#1C2B58"/>
<stop offset="0.9964" stop-color="#26264F"/>
</linearGradient>
<linearGradient id="paint7_linear_1_13377" x1="365.857" y1="317.66" x2="575.754" y2="1032.24" gradientUnits="userSpaceOnUse">
<stop stop-color="#1C2B58"/>
<stop offset="0.9964" stop-color="#26264F"/>
</linearGradient>
<linearGradient id="paint8_linear_1_13377" x1="444.51" y1="300.059" x2="691.196" y2="968.168" gradientUnits="userSpaceOnUse">
<stop stop-color="#FFC444"/>
<stop offset="0.9964" stop-color="#F36F56"/>
</linearGradient>
<linearGradient id="paint9_linear_1_13377" x1="-1710.71" y1="2158.98" x2="-1541.98" y2="1999.87" gradientUnits="userSpaceOnUse">
<stop stop-color="#311944"/>
<stop offset="1" stop-color="#893976"/>
</linearGradient>
<linearGradient id="paint10_linear_1_13377" x1="147.706" y1="403.715" x2="282.918" y2="281.013" gradientUnits="userSpaceOnUse">
<stop stop-color="#FFC444"/>
<stop offset="1" stop-color="#F7A400"/>
</linearGradient>
<linearGradient id="paint11_linear_1_13377" x1="284.7" y1="510.41" x2="257.906" y2="537.683" gradientUnits="userSpaceOnUse">
<stop stop-color="#FFC444"/>
<stop offset="0.9964" stop-color="#F36F56"/>
</linearGradient>
<linearGradient id="paint12_linear_1_13377" x1="212.291" y1="788.914" x2="209.41" y2="757.65" gradientUnits="userSpaceOnUse">
<stop stop-color="#FFC444"/>
<stop offset="0.9964" stop-color="#F36F56"/>
</linearGradient>
<linearGradient id="paint13_linear_1_13377" x1="182.614" y1="769.338" x2="182.839" y2="708.834" gradientUnits="userSpaceOnUse">
<stop stop-color="#3D4899"/>
<stop offset="0.9964" stop-color="#6165D7"/>
</linearGradient>
<linearGradient id="paint14_linear_1_13377" x1="176.14" y1="792.245" x2="173.259" y2="760.98" gradientUnits="userSpaceOnUse">
<stop stop-color="#FFC444"/>
<stop offset="0.9964" stop-color="#F36F56"/>
</linearGradient>
<linearGradient id="paint15_linear_1_13377" x1="211.197" y1="631.381" x2="189.02" y2="744.761" gradientUnits="userSpaceOnUse">
<stop stop-color="#3D4899"/>
<stop offset="1" stop-color="#4958C9"/>
</linearGradient>
<linearGradient id="paint16_linear_1_13377" x1="222.264" y1="686.823" x2="188.946" y2="689.494" gradientUnits="userSpaceOnUse">
<stop stop-color="#1C2B58"/>
<stop offset="0.531" stop-color="#1C2B58"/>
</linearGradient>
<linearGradient id="paint17_linear_1_13377" x1="203.835" y1="693.09" x2="153.255" y2="697.144" gradientUnits="userSpaceOnUse">
<stop offset="0.646" stop-color="#1C2B58"/>
<stop offset="1" stop-color="#4958C9" stop-opacity="0.99"/>
</linearGradient>
<linearGradient id="paint18_linear_1_13377" x1="243.788" y1="526.143" x2="206.366" y2="766.475" gradientUnits="userSpaceOnUse">
<stop stop-color="#1C2B58"/>
<stop offset="0.9964" stop-color="#6165D7"/>
</linearGradient>
<linearGradient id="paint19_linear_1_13377" x1="164.198" y1="789.943" x2="146.098" y2="1032.5" gradientUnits="userSpaceOnUse">
<stop stop-color="#1C2B58"/>
<stop offset="0.9964" stop-color="#6165D7"/>
</linearGradient>
<linearGradient id="paint20_linear_1_13377" x1="102.662" y1="707.241" x2="202.556" y2="536.13" gradientUnits="userSpaceOnUse">
<stop stop-color="#F7A400"/>
<stop offset="0.9964" stop-color="#F7A400" stop-opacity="0.35"/>
</linearGradient>
<linearGradient id="paint21_linear_1_13377" x1="138.074" y1="588.931" x2="159.142" y2="617.392" gradientUnits="userSpaceOnUse">
<stop stop-color="#FFC444"/>
<stop offset="0.9964" stop-color="#F36F56"/>
</linearGradient>
<linearGradient id="paint22_linear_1_13377" x1="119.977" y1="786.643" x2="101.877" y2="1029.2" gradientUnits="userSpaceOnUse">
<stop stop-color="#1C2B58"/>
<stop offset="0.9964" stop-color="#6165D7"/>
</linearGradient>
<linearGradient id="paint23_linear_1_13377" x1="197.903" y1="518.01" x2="177.621" y2="492.775" gradientUnits="userSpaceOnUse">
<stop stop-color="#FFC444"/>
<stop offset="0.9964" stop-color="#F36F56"/>
</linearGradient>
<linearGradient id="paint24_linear_1_13377" x1="182.481" y1="508.742" x2="193.231" y2="473.378" gradientUnits="userSpaceOnUse">
<stop stop-color="#444B8C"/>
<stop offset="0.9964" stop-color="#1C2B58"/>
</linearGradient>
<linearGradient id="paint25_linear_1_13377" x1="209.897" y1="496.403" x2="179.66" y2="482.944" gradientUnits="userSpaceOnUse">
<stop stop-color="#FFC444"/>
<stop offset="0.9964" stop-color="#F36F56"/>
</linearGradient>
<linearGradient id="paint26_linear_1_13377" x1="265.767" y1="538.15" x2="538.39" y2="538.15" gradientUnits="userSpaceOnUse">
<stop stop-color="#311944"/>
<stop offset="1" stop-color="#893976"/>
</linearGradient>
<linearGradient id="paint27_linear_1_13377" x1="431.512" y1="1074.35" x2="399.006" y2="511.281" gradientUnits="userSpaceOnUse">
<stop offset="0.003597" stop-color="#F36F56"/>
<stop offset="1" stop-color="#FFC444"/>
</linearGradient>
<linearGradient id="paint28_linear_1_13377" x1="302.543" y1="508.504" x2="498.692" y2="508.504" gradientUnits="userSpaceOnUse">
<stop offset="0.003597" stop-color="#F36F56"/>
<stop offset="1" stop-color="#FFC444"/>
</linearGradient>
<linearGradient id="paint29_linear_1_13377" x1="295.609" y1="559.964" x2="491.606" y2="559.964" gradientUnits="userSpaceOnUse">
<stop offset="0.003597" stop-color="#F36F56"/>
<stop offset="1" stop-color="#FFC444"/>
</linearGradient>
<linearGradient id="paint30_linear_1_13377" x1="391.946" y1="578.964" x2="348.132" y2="856.811" gradientUnits="userSpaceOnUse">
<stop offset="0.003597" stop-color="#F36F56"/>
<stop offset="1" stop-color="#FFC444"/>
</linearGradient>
<linearGradient id="paint31_linear_1_13377" x1="406.359" y1="289.676" x2="415.716" y2="568.314" gradientUnits="userSpaceOnUse">
<stop offset="0.003597" stop-color="#F36F56"/>
<stop offset="1" stop-color="#FFC444"/>
</linearGradient>
</defs>
</svg>
