<svg width="24" height="24" viewBox="0 0 24 24" fill="none" xmlns="http://www.w3.org/2000/svg">
<path fill-rule="evenodd" clip-rule="evenodd" d="M14.325 3.75006H9.67502C9.52756 4.47052 9.17174 5.13179 8.65175 5.65179C8.13175 6.17179 7.47047 6.5276 6.75002 6.67506C6.74973 6.89173 6.74973 7.1084 6.75002 7.32506C7.47047 7.47252 8.13175 7.82834 8.65175 8.34834C9.17174 8.86834 9.52756 9.52961 9.67502 10.2501H14.325C14.4725 9.52961 14.8283 8.86834 15.3483 8.34834C15.8683 7.82834 16.5296 7.47252 17.25 7.32506C17.2502 7.1084 17.2502 6.89173 17.25 6.67506C16.5296 6.5276 15.8683 6.17179 15.3483 5.65179C14.8283 5.13179 14.4725 4.47052 14.325 3.75006ZM14.93 2.25306C14.655 2.25006 14.363 2.25006 14.052 2.25006H9.94802C9.63802 2.25006 9.34502 2.25006 9.07102 2.25306C9.01641 2.24815 8.96142 2.24915 8.90702 2.25606C8.45502 2.26406 8.05402 2.28306 7.70602 2.33006C7.07802 2.41406 6.51102 2.60006 6.05602 3.05506C5.60002 3.51106 5.41402 4.07806 5.33002 4.70506C5.28302 5.05406 5.26402 5.45506 5.25602 5.90706C5.24917 5.96113 5.24817 6.01578 5.25302 6.07006C5.25002 6.34506 5.25002 6.63806 5.25002 6.94806V7.05206C5.25002 7.36206 5.25002 7.65506 5.25302 7.93006C5.24818 7.98435 5.24918 8.039 5.25602 8.09306C5.26402 8.54606 5.28302 8.94606 5.33002 9.29406C5.41402 9.92206 5.60002 10.4891 6.05602 10.9441C6.51102 11.4001 7.07802 11.5861 7.70602 11.6701C8.05402 11.7171 8.45502 11.7361 8.90702 11.7441C8.96141 11.7511 9.01641 11.7521 9.07102 11.7471C9.34502 11.7501 9.63802 11.7501 9.94802 11.7501H14.052C14.362 11.7501 14.655 11.7501 14.93 11.7471C14.9843 11.752 15.039 11.751 15.093 11.7441C15.546 11.7361 15.947 11.7171 16.294 11.6701C16.922 11.5861 17.489 11.4001 17.944 10.9441C18.4 10.4891 18.586 9.92206 18.67 9.29406C18.7174 8.89545 18.7421 8.49448 18.744 8.09306C18.7508 8.03899 18.7518 7.98435 18.747 7.93006C18.75 7.65506 18.75 7.36206 18.75 7.05206V6.94806C18.75 6.63806 18.75 6.34506 18.747 6.07006C18.752 6.01578 18.751 5.96113 18.744 5.90706C18.7419 5.50566 18.7172 5.10469 18.67 4.70606C18.586 4.07806 18.4 3.51106 17.945 3.05606C17.489 2.60006 16.922 2.41406 16.295 2.33006C15.8961 2.28279 15.4948 2.25808 15.093 2.25606C15.039 2.24919 14.9843 2.24819 14.93 2.25306ZM15.894 3.79406C16.0072 4.09324 16.1828 4.36493 16.409 4.59112C16.6352 4.81731 16.9068 4.99284 17.206 5.10606C17.1997 5.03925 17.1921 4.97257 17.183 4.90606C17.122 4.44406 17.014 4.24606 16.883 4.11606C16.753 3.98606 16.556 3.87906 16.095 3.81606C16.0285 3.80738 15.9618 3.80004 15.895 3.79406H15.894ZM17.206 8.89406C16.9068 9.00729 16.6352 9.18282 16.409 9.40901C16.1828 9.6352 16.0072 9.90689 15.894 10.2061C15.964 10.2001 16.031 10.1921 16.094 10.1841C16.556 10.1211 16.754 10.0141 16.884 9.88406C17.014 9.75406 17.122 9.55606 17.184 9.09406C17.192 9.03106 17.2 8.96406 17.206 8.89406ZM8.10602 10.2061C7.9928 9.90689 7.81727 9.6352 7.59108 9.40901C7.36489 9.18282 7.0932 9.00729 6.79402 8.89406C6.80102 8.96406 6.80802 9.03106 6.81702 9.09406C6.87902 9.55606 6.98602 9.75406 7.11702 9.88406C7.24702 10.0141 7.44402 10.1211 7.90502 10.1841C7.96902 10.1921 8.03602 10.2001 8.10602 10.2061ZM6.79402 5.10606C7.0932 4.99284 7.36489 4.81731 7.59108 4.59112C7.81727 4.36493 7.9928 4.09324 8.10602 3.79406C8.03602 3.80006 7.96902 3.80806 7.90602 3.81706C7.44402 3.87906 7.24602 3.98606 7.11602 4.11706C6.98602 4.24706 6.87902 4.44406 6.81602 4.90506L6.79402 5.10606ZM12 6.75006C11.9337 6.75006 11.8701 6.7764 11.8232 6.82329C11.7764 6.87017 11.75 6.93376 11.75 7.00006C11.75 7.06637 11.7764 7.12996 11.8232 7.17684C11.8701 7.22373 11.9337 7.25006 12 7.25006C12.0663 7.25006 12.1299 7.22373 12.1768 7.17684C12.2237 7.12996 12.25 7.06637 12.25 7.00006C12.25 6.93376 12.2237 6.87017 12.1768 6.82329C12.1299 6.7764 12.0663 6.75006 12 6.75006ZM10.25 7.00006C10.25 6.53594 10.4344 6.09082 10.7626 5.76263C11.0908 5.43444 11.5359 5.25006 12 5.25006C12.4642 5.25006 12.9093 5.43444 13.2375 5.76263C13.5656 6.09082 13.75 6.53594 13.75 7.00006C13.75 7.46419 13.5656 7.90931 13.2375 8.2375C12.9093 8.56569 12.4642 8.75006 12 8.75006C11.5359 8.75006 11.0908 8.56569 10.7626 8.2375C10.4344 7.90931 10.25 7.46419 10.25 7.00006ZM8.68402 14.4481C10.55 14.0871 12.547 14.1681 14.164 15.1321C14.39 15.2671 14.604 15.4361 14.789 15.6441C15.165 16.0671 15.359 16.5911 15.368 17.1171C15.559 16.9941 15.751 16.8571 15.945 16.7101L17.753 15.3451C18.2057 15.0124 18.7528 14.833 19.3145 14.833C19.8763 14.833 20.4233 15.0124 20.876 15.3451C21.712 15.9751 22.046 17.1081 21.447 18.0681C21.022 18.7491 20.381 19.6921 19.73 20.2961C19.07 20.9061 18.133 21.4201 17.424 21.7621C16.562 22.1781 15.632 22.4081 14.727 22.5541C12.877 22.8541 10.953 22.8081 9.12502 22.4311C8.18234 22.2371 7.22246 22.1389 6.26002 22.1381H4.00002C3.80111 22.1381 3.61034 22.059 3.46969 21.9184C3.32904 21.7777 3.25002 21.587 3.25002 21.3881C3.25002 21.1892 3.32904 20.9984 3.46969 20.8577C3.61034 20.7171 3.80111 20.6381 4.00002 20.6381H6.26002C7.32202 20.6381 8.39502 20.7491 9.42802 20.9621C11.0942 21.304 12.8085 21.3416 14.488 21.0731C15.316 20.9391 16.09 20.7401 16.772 20.4111C17.455 20.0811 18.223 19.6471 18.71 19.1961C19.203 18.7391 19.754 17.9481 20.175 17.2741C20.302 17.0701 20.284 16.7771 19.973 16.5421C19.603 16.2621 19.026 16.2621 18.657 16.5421L16.85 17.9071C16.128 18.4521 15.24 19.0351 14.139 19.2111C14.0237 19.2293 13.908 19.2453 13.792 19.2591C13.0913 19.3399 12.3841 19.3466 11.682 19.2791C11.5822 19.2722 11.4848 19.2454 11.3955 19.2003C11.3062 19.1552 11.2269 19.0926 11.1621 19.0164C11.0973 18.9401 11.0485 18.8517 11.0184 18.7563C10.9883 18.6609 10.9777 18.5604 10.987 18.4608C10.9963 18.3612 11.0255 18.2645 11.0728 18.1763C11.1201 18.0882 11.1845 18.0104 11.2623 17.9475C11.3401 17.8846 11.4297 17.838 11.5259 17.8102C11.622 17.7825 11.7227 17.7743 11.822 17.7861C12.3768 17.8399 12.9355 17.8389 13.49 17.7831L13.52 17.7801C13.6133 17.7222 13.6926 17.6443 13.7522 17.552C13.8117 17.4598 13.85 17.3554 13.8644 17.2466C13.8787 17.1377 13.8688 17.027 13.8351 16.9225C13.8015 16.8179 13.7451 16.7222 13.67 16.6421C13.5903 16.5543 13.4976 16.4795 13.395 16.4201C12.214 15.7151 10.636 15.5981 8.96902 15.9201C7.34077 16.2476 5.79719 16.9062 4.43402 17.8551C4.35365 17.9121 4.26285 17.9527 4.16678 17.9746C4.07072 17.9965 3.97129 17.9992 3.87416 17.9827C3.77703 17.9662 3.6841 17.9307 3.60069 17.8782C3.51728 17.8258 3.44502 17.7574 3.38802 17.6771C3.33103 17.5967 3.29042 17.5059 3.26852 17.4098C3.24662 17.3138 3.24386 17.2143 3.26039 17.1172C3.27692 17.0201 3.31242 16.9271 3.36486 16.8437C3.4173 16.7603 3.48565 16.6881 3.56602 16.6311C5.10367 15.559 6.84601 14.8159 8.68402 14.4481Z" fill="white"/>
</svg>
