<svg width="62" height="62" viewBox="0 0 62 62" fill="none" xmlns="http://www.w3.org/2000/svg">
<path d="M9 40.125C9 41.1527 9.40826 42.1383 10.135 42.865C10.8617 43.5917 11.8473 44 12.875 44H14.2984C14.5949 45.46 15.3869 46.7725 16.5404 47.7153C17.6939 48.6581 19.1378 49.1731 20.6276 49.1731C22.1173 49.1731 23.5613 48.6581 24.7148 47.7153C25.8682 46.7725 26.6603 45.46 26.9568 44H35.0917C36.8445 43.9877 38.5557 43.4643 40.0155 42.4939C40.0155 42.5662 39.9948 42.636 39.9948 42.7083C39.9939 44.098 40.4413 45.451 41.2705 46.5662C42.0998 47.6814 43.2666 48.4994 44.5977 48.8986C45.9289 49.2979 47.3533 49.2571 48.6594 48.7823C49.9655 48.3076 51.0836 47.4242 51.8477 46.2634C52.6118 45.1026 52.9811 43.7263 52.9007 42.3389C52.8203 40.9516 52.2945 39.6271 51.4015 38.5623C50.5084 37.4975 49.2958 36.7492 47.9436 36.4285C46.5914 36.1078 45.1718 36.2318 43.8957 36.7822C44.1136 35.8164 44.1695 34.8212 44.061 33.8372L43.0613 25.8288C43.3285 25.8873 43.6014 25.9168 43.875 25.9167H45.1667C45.8518 25.9167 46.5089 25.6445 46.9934 25.16C47.4778 24.6756 47.75 24.0185 47.75 23.3333V20.75C47.75 20.0649 47.4778 19.4078 46.9934 18.9233C46.5089 18.4388 45.8518 18.1667 45.1667 18.1667H43.875C43.2765 18.1695 42.6867 18.3109 42.152 18.5798C41.6173 18.8487 41.1522 19.2378 40.7931 19.7167L40.3772 19.3008C39.649 18.5774 38.6652 18.17 37.6388 18.1667H36.125C35.7824 18.1667 35.4539 18.3028 35.2117 18.545C34.9694 18.7872 34.8333 19.1158 34.8333 19.4583C34.8333 19.8009 34.9694 20.1294 35.2117 20.3717C35.4539 20.6139 35.7824 20.75 36.125 20.75H37.6388C37.9807 20.7501 38.3087 20.8857 38.5508 21.1272L40.0594 22.6358C40.0982 22.8761 41.0256 30.329 41.5035 34.1575C41.6171 35.0664 41.536 35.9891 41.2657 36.8644C40.9953 37.7396 40.5419 38.5473 39.9355 39.2338C39.3291 39.9204 38.5836 40.4701 37.7484 40.8464C36.9133 41.2227 36.0077 41.4171 35.0917 41.4167H34.6008L32.25 29.6651V27.2083C32.25 26.1806 31.8417 25.195 31.115 24.4683C30.3883 23.7416 29.4027 23.3333 28.375 23.3333H23.2083V16.875C23.2083 15.8473 22.8001 14.8617 22.0734 14.135C21.3467 13.4083 20.361 13 19.3333 13H12.875C11.8473 13 10.8617 13.4083 10.135 14.135C9.40826 14.8617 9 15.8473 9 16.875V27.2083C9 28.236 9.40826 29.2217 10.135 29.9484C10.8617 30.6751 11.8473 31.0833 12.875 31.0833H13.4072C12.039 32.1612 10.9321 33.5342 10.1689 35.0998C9.40579 36.6655 9.0062 38.3833 9 40.125ZM46.4583 38.8333C47.2247 38.8333 47.9739 39.0606 48.6112 39.4864C49.2484 39.9122 49.7451 40.5174 50.0384 41.2254C50.3317 41.9335 50.4084 42.7126 50.2589 43.4643C50.1094 44.216 49.7403 44.9064 49.1984 45.4484C48.6564 45.9903 47.966 46.3594 47.2143 46.5089C46.4626 46.6584 45.6835 46.5817 44.9754 46.2884C44.2674 45.9951 43.6622 45.4984 43.2364 44.8612C42.8106 44.2239 42.5833 43.4747 42.5833 42.7083C42.5833 41.6806 42.9916 40.695 43.7183 39.9683C44.445 39.2416 45.4306 38.8333 46.4583 38.8333ZM23.2083 25.9167H28.375C28.7176 25.9167 29.0461 26.0528 29.2883 26.295C29.5306 26.5372 29.6667 26.8658 29.6667 27.2083V28.5H23.2083V25.9167ZM24.2623 44C23.9993 44.755 23.5078 45.4095 22.856 45.8726C22.2043 46.3357 21.4245 46.5846 20.625 46.5846C19.8255 46.5846 19.0457 46.3357 18.394 45.8726C17.7422 45.4095 17.2507 44.755 16.9877 44H24.2623ZM11.5833 16.875C11.5833 16.5324 11.7194 16.2039 11.9617 15.9617C12.2039 15.7194 12.5324 15.5833 12.875 15.5833H19.3333C19.6759 15.5833 20.0044 15.7194 20.2467 15.9617C20.4889 16.2039 20.625 16.5324 20.625 16.875V18.1667H11.5833V16.875ZM11.5833 20.75H20.625V23.2946H11.5833V20.75ZM12.875 28.5C12.5324 28.5 12.2039 28.3639 11.9617 28.1217C11.7194 27.8794 11.5833 27.5509 11.5833 27.2083V25.8779H20.625V28.5H12.875Z" fill="#1C2B58"/>
<path opacity="0.1" d="M44.5903 60.5992V38.3391C44.1268 38.2612 43.6247 38.2222 43.1227 38.2222C36.982 38.2222 32 43.2512 32 49.4497C32 55.6482 36.982 60.6772 43.1227 60.6772C43.6247 60.7161 44.1268 60.6772 44.5903 60.5992Z" fill="#0C1E5B"/>
<path d="M47.024 58.4552C53.167 58.4552 58.1468 53.4285 58.1468 47.2276C58.1468 41.0268 53.167 36 47.024 36C40.8811 36 35.9012 41.0268 35.9012 47.2276C35.9012 53.4285 40.8811 58.4552 47.024 58.4552Z" fill="#FF5B5B"/>
<path d="M51.3905 42.6489L42.3109 51.8028M42.3109 42.6489L51.3905 51.8028" stroke="white" stroke-width="4"/>
<path d="M51.3905 42.6489L42.3109 51.8028M42.3109 42.6489L51.3905 51.8028" stroke="white" stroke-width="4"/>
</svg>
