<svg width="86" height="86" viewBox="0 0 86 86" fill="none" xmlns="http://www.w3.org/2000/svg">
<ellipse cx="42.9689" cy="43" rx="42.1554" ry="42.5" fill="#F7A400" fill-opacity="0.15"/>
<path d="M19.4653 64.7747C22.6322 64.7747 25.2198 62.1627 25.2198 58.966V21.541H58.8196V58.966C58.8196 62.1627 56.232 64.7747 53.0651 64.7747" fill="#1C2B58"/>
<path d="M47.3107 58.9658V54.5605H13.7109V58.9658C13.7109 62.1625 16.2985 64.7745 19.4654 64.7745H53.0652C49.8983 64.7745 47.3107 62.1625 47.3107 58.9658Z" fill="#0C1E5B"/>
<path d="M35.5315 28.9868H31.2447V30.8581H35.5315V28.9868Z" fill="white"/>
<path d="M52.0224 28.9868H38.8528V30.8581H52.0224V28.9868Z" fill="#F7C604"/>
<path d="M35.5315 35.6143H31.2447V37.4855H35.5315V35.6143Z" fill="white"/>
<path d="M52.0224 35.6143H38.8528V37.4855H52.0224V35.6143Z" fill="#F7C604"/>
<path d="M35.5315 42.2417H31.2447V44.1129H35.5315V42.2417Z" fill="white"/>
<path d="M52.0224 42.2417H38.8528V44.1129H52.0224V42.2417Z" fill="#F7C604"/>
<path d="M35.5315 48.8691H31.2447V50.7404H35.5315V48.8691Z" fill="white"/>
<path d="M52.0224 48.8691H38.8528V50.7404H52.0224V48.8691Z" fill="#F7C604"/>
<path opacity="0.1" d="M58.8196 49.1812V26.9212C58.3561 26.8432 57.8541 26.8042 57.352 26.8042C51.2113 26.8042 46.2293 31.8332 46.2293 38.0317C46.2293 44.2302 51.2113 49.2592 57.352 49.2592C57.8541 49.2982 58.3561 49.2592 58.8196 49.1812Z" fill="#0C1E5B"/>
<path d="M61.2534 47.0373C67.3963 47.0373 72.3761 42.0105 72.3761 35.8096C72.3761 29.6088 67.3963 24.582 61.2534 24.582C55.1104 24.582 50.1306 29.6088 50.1306 35.8096C50.1306 42.0105 55.1104 47.0373 61.2534 47.0373Z" fill="#FF5B5B"/>
<path d="M63.2224 36.589V29.6108H59.2831V36.589H56.6569L61.2528 42.0079L65.8486 36.589H63.2224Z" fill="white"/>
</svg>
