<svg width="17" height="17" viewBox="0 0 17 17" fill="none" xmlns="http://www.w3.org/2000/svg">
<rect x="16.1865" y="16.5" width="16" height="16.1308" rx="8" transform="rotate(-180 16.1865 16.5)" fill="#2ED6A3" fill-opacity="0.15"/>
<g clip-path="url(#clip0_1_5372)">
<path d="M6.20665 8.29554C6.2949 8.38449 6.41457 8.43445 6.53936 8.43445C6.66414 8.43445 6.78381 8.38449 6.87206 8.29554L7.71583 7.44488L7.71583 10.5695C7.71583 10.6953 7.76541 10.816 7.85366 10.905C7.94191 10.994 8.06161 11.0439 8.18641 11.0439C8.31122 11.0439 8.43092 10.994 8.51917 10.905C8.60742 10.816 8.657 10.6953 8.657 10.5695L8.657 7.44488L9.50077 8.29554C9.58952 8.38197 9.70839 8.42979 9.83178 8.4287C9.95517 8.42762 10.0732 8.37773 10.1604 8.28976C10.2477 8.2018 10.2972 8.08281 10.2983 7.95841C10.2993 7.83401 10.2519 7.71417 10.1662 7.62469L8.51912 5.96417C8.43087 5.87523 8.3112 5.82526 8.18641 5.82526C8.06163 5.82526 7.94196 5.87523 7.85371 5.96417L6.20665 7.62469C6.11843 7.71366 6.06887 7.83431 6.06887 7.96012C6.06887 8.08592 6.11843 8.20657 6.20665 8.29554Z" fill="#00A389"/>
</g>
<defs>
<clipPath id="clip0_1_5372">
<rect width="5.64706" height="5.69322" fill="white" transform="translate(11.01 11.2812) rotate(-180)"/>
</clipPath>
</defs>
</svg>
