<svg width="57" height="46" viewBox="0 0 57 46" fill="none" xmlns="http://www.w3.org/2000/svg">
<path d="M23 29C7.87111 29 0 38.1538 0 43.3846V46H46V43.3846C46 38.1538 38.1289 29 23 29Z" fill="#1C2B58"/>
<path d="M23 26C30.1797 26 36 20.1797 36 13C36 5.8203 30.1797 0 23 0C15.8203 0 10 5.8203 10 13C10 20.1797 15.8203 26 23 26Z" fill="#1C2B58"/>
<path opacity="0.1" d="M42.5903 44.5992V22.3391C42.1268 22.2612 41.6247 22.2222 41.1227 22.2222C34.982 22.2222 30 27.2512 30 33.4497C30 39.6482 34.982 44.6772 41.1227 44.6772C41.6247 44.7161 42.1268 44.6772 42.5903 44.5992Z" fill="#0C1E5B"/>
<path d="M45.024 42.4552C51.167 42.4552 56.1468 37.4285 56.1468 31.2276C56.1468 25.0268 51.167 20 45.024 20C38.8811 20 33.9012 25.0268 33.9012 31.2276C33.9012 37.4285 38.8811 42.4552 45.024 42.4552Z" fill="#FF5B5B"/>
<path d="M49.3905 26.6489L40.3109 35.8028M40.3109 26.6489L49.3905 35.8028" stroke="white" stroke-width="4"/>
<path d="M49.3905 26.6489L40.3109 35.8028M40.3109 26.6489L49.3905 35.8028" stroke="white" stroke-width="4"/>
</svg>
