<svg width="86" height="86" viewBox="0 0 86 86" fill="none" xmlns="http://www.w3.org/2000/svg">
<ellipse cx="42.997" cy="43.2336" rx="42.1554" ry="42.5" fill="#F7A400" fill-opacity="0.15"/>
<path d="M49 60.8833V50.0833C49 48.9632 49 48.4031 48.782 47.9753C48.5903 47.599 48.2843 47.293 47.908 47.1013C47.4802 46.8833 46.9201 46.8833 45.8 46.8833H40.2C39.0799 46.8833 38.5198 46.8833 38.092 47.1013C37.7157 47.293 37.4097 47.599 37.218 47.9753C37 48.4031 37 48.9632 37 50.0833V60.8833M25 32.8833C25 36.197 27.6863 38.8833 31 38.8833C34.3137 38.8833 37 36.197 37 32.8833C37 36.197 39.6863 38.8833 43 38.8833C46.3137 38.8833 49 36.197 49 32.8833C49 36.197 51.6863 38.8833 55 38.8833C58.3137 38.8833 61 36.197 61 32.8833M31.4 60.8833H54.6C56.8402 60.8833 57.9603 60.8833 58.816 60.4473C59.5686 60.0638 60.1805 59.4519 60.564 58.6993C61 57.8436 61 56.7235 61 54.4833V31.2833C61 29.0431 61 27.923 60.564 27.0673C60.1805 26.3147 59.5686 25.7028 58.816 25.3193C57.9603 24.8833 56.8402 24.8833 54.6 24.8833H31.4C29.1598 24.8833 28.0397 24.8833 27.184 25.3193C26.4314 25.7028 25.8195 26.3147 25.436 27.0673C25 27.923 25 29.0431 25 31.2833V54.4833C25 56.7235 25 57.8436 25.436 58.6993C25.8195 59.4519 26.4314 60.0638 27.184 60.4473C28.0397 60.8833 29.1598 60.8833 31.4 60.8833Z" stroke="#1C2B58" stroke-width="4" stroke-linecap="round" stroke-linejoin="round"/>
<path opacity="0.1" d="M60.5903 73.72V50.3401C60.1268 50.2582 59.6247 50.2173 59.1227 50.2173C52.982 50.2173 48 55.4992 48 62.0096C48 68.5199 52.982 73.8018 59.1227 73.8018C59.6247 73.8428 60.1268 73.8018 60.5903 73.72Z" fill="#0C1E5B"/>
<path d="M63.024 71.4681C69.167 71.4681 74.1468 66.1885 74.1468 59.6757C74.1468 53.1629 69.167 47.8833 63.024 47.8833C56.8811 47.8833 51.9012 53.1629 51.9012 59.6757C51.9012 66.1885 56.8811 71.4681 63.024 71.4681Z" fill="#FF5B5B"/>
<path d="M67.0796 54.7983L58 63.9522M58 54.7983L67.0796 63.9522" stroke="white" stroke-width="4"/>
<path d="M67.0796 54.7983L58 63.9522M58 54.7983L67.0796 63.9522" stroke="white" stroke-width="4"/>
</svg>
