<svg width="86" height="86" viewBox="0 0 86 86" fill="none" xmlns="http://www.w3.org/2000/svg">
<ellipse cx="42.9689" cy="43" rx="42.1554" ry="42.5" fill="#F7A400" fill-opacity="0.15"/>
<path d="M33.6135 29.8C32.8935 29.8 32.4135 30.52 32.4135 31V37H30.0135V31C30.0135 30.28 29.5335 29.8 28.8135 29.8C28.0935 29.8 27.6135 30.52 27.6135 31V37H25.2135V31C25.2135 30.28 24.7335 29.8 24.0135 29.8C23.2935 29.8 22.8135 30.52 22.8135 31V38.92C22.8135 41.08 24.4935 42.76 26.4135 43V59.8C26.4135 61.24 27.3735 62.2 28.8135 62.2C30.2535 62.2 31.2135 61.24 31.2135 59.8V43C33.1335 42.76 34.8135 41.08 34.8135 38.92V31C34.8135 30.52 34.3335 29.8 33.6135 29.8ZM38.4135 31V45.4H40.8135V59.8C40.8135 61.24 41.7735 62.2 43.2135 62.2C44.6535 62.2 45.6135 61.24 45.6135 59.8V23.8C41.5335 23.8 38.4135 26.92 38.4135 31ZM55.2135 28.6C51.8535 28.6 49.2135 32.2 49.2135 36.52C48.9735 39.4 50.4135 42.04 52.8135 43.72V59.8C52.8135 61.24 53.7735 62.2 55.2135 62.2C56.6535 62.2 57.6135 61.24 57.6135 59.8V43.72C60.0135 42.04 61.4535 39.4 61.2135 36.52C61.2135 32.2 58.5735 28.6 55.2135 28.6Z" fill="#1C2B58"/>
</svg>
