<svg width="86" height="85" viewBox="0 0 86 85" fill="none" xmlns="http://www.w3.org/2000/svg">
<ellipse cx="43" cy="42.5" rx="42.1554" ry="42.5" fill="white"/>
<g clip-path="url(#clip0_97_1194)">
<path d="M58.8446 59.5H26.8446C24.6446 59.5 22.8446 57.7 22.8446 55.5V34.6C22.8446 33.3 23.4446 32.1 24.5446 31.3L42.8446 18.5L61.1446 31.3C62.2446 32 62.8446 33.3 62.8446 34.6V55.5C62.8446 57.7 61.0446 59.5 58.8446 59.5Z" fill="#FFB300"/>
<path d="M32.8446 19.5H52.8446V50.5H32.8446V19.5Z" fill="#AED581"/>
<path d="M31.8446 18.5V51.5H53.8446V18.5H31.8446ZM51.8446 49.5H33.8446V20.5H51.8446V49.5Z" fill="#558B2F"/>
<path d="M52.8446 21.5C52.8446 23.2 52.5446 24.5 50.8446 24.5C49.1446 24.5 47.8446 23.2 47.8446 21.5C47.8446 19.8 49.1446 19.5 50.8446 19.5C52.5446 19.5 52.8446 19.8 52.8446 21.5ZM34.8446 19.5C36.5446 19.5 37.8446 19.8 37.8446 21.5C37.8446 23.2 36.5446 24.5 34.8446 24.5C33.1446 24.5 32.8446 23.2 32.8446 21.5C32.8446 19.8 33.1446 19.5 34.8446 19.5Z" fill="#558B2F"/>
<path d="M42.8446 28.5C43.9492 28.5 44.8446 27.6046 44.8446 26.5C44.8446 25.3954 43.9492 24.5 42.8446 24.5C41.74 24.5 40.8446 25.3954 40.8446 26.5C40.8446 27.6046 41.74 28.5 42.8446 28.5Z" fill="#558B2F"/>
<path d="M42.8446 44.5C46.1583 44.5 48.8446 41.8137 48.8446 38.5C48.8446 35.1863 46.1583 32.5 42.8446 32.5C39.5309 32.5 36.8446 35.1863 36.8446 38.5C36.8446 41.8137 39.5309 44.5 42.8446 44.5Z" fill="#558B2F"/>
<path d="M58.8446 59.5H26.8446C24.6446 59.5 22.8446 57.7 22.8446 55.5V35.5L42.8446 48.5L62.8446 35.5V55.5C62.8446 57.7 61.0446 59.5 58.8446 59.5Z" fill="#F9CA24"/>
</g>
<defs>
<clipPath id="clip0_97_1194">
<rect width="48" height="48" fill="white" transform="translate(18.8446 18.5)"/>
</clipPath>
</defs>
</svg>
