<svg width="86" height="86" viewBox="0 0 86 86" fill="none" xmlns="http://www.w3.org/2000/svg">
<ellipse cx="42.997" cy="43" rx="42.1554" ry="42.5" fill="#F7A400" fill-opacity="0.15"/>
<path d="M19.5959 64.7337C22.7628 64.7337 25.3504 62.1217 25.3504 58.925V21.5H58.9502V58.925C58.9502 62.1217 56.3626 64.7337 53.1957 64.7337" fill="#1C2B58"/>
<path d="M47.4413 58.9248V54.5195H13.8416V58.9248C13.8416 62.1215 16.4291 64.7334 19.596 64.7334H53.1958C50.0289 64.7334 47.4413 62.1215 47.4413 58.9248Z" fill="#0C1E5B"/>
<path d="M35.6621 28.9458H31.3752V30.817H35.6621V28.9458Z" fill="#F7C604"/>
<path d="M52.153 28.9458H38.9834V30.817H52.153V28.9458Z" fill="#F3F2F7"/>
<path d="M35.6621 35.5732H31.3752V37.4445H35.6621V35.5732Z" fill="#F7C604"/>
<path d="M52.153 35.5732H38.9834V37.4445H52.153V35.5732Z" fill="#F3F2F7"/>
<path d="M35.6621 42.2007H31.3752V44.0719H35.6621V42.2007Z" fill="#F7C604"/>
<path d="M52.153 42.2007H38.9834V44.0719H52.153V42.2007Z" fill="#F3F2F7"/>
<path d="M35.6621 48.8281H31.3752V50.6994H35.6621V48.8281Z" fill="#F7C604"/>
<path d="M52.153 48.8281H38.9834V50.6994H52.153V48.8281Z" fill="#F3F2F7"/>
<path opacity="0.1" d="M58.9503 49.1402V26.8801C58.4868 26.8022 57.9847 26.7632 57.4827 26.7632C51.342 26.7632 46.36 31.7922 46.36 37.9907C46.36 44.1892 51.342 49.2182 57.4827 49.2182C57.9847 49.2572 58.4868 49.2182 58.9503 49.1402Z" fill="#0C1E5B"/>
<path d="M61.384 46.9962C67.527 46.9962 72.5068 41.9695 72.5068 35.7686C72.5068 29.5678 67.527 24.541 61.384 24.541C55.2411 24.541 50.2612 29.5678 50.2612 35.7686C50.2612 41.9695 55.2411 46.9962 61.384 46.9962Z" fill="#FF5B5B"/>
<path d="M65.7504 31.1899L56.6708 40.3438M56.6708 31.1899L65.7504 40.3438" stroke="white" stroke-width="4"/>
<path d="M65.7504 31.1899L56.6708 40.3438M56.6708 31.1899L65.7504 40.3438" stroke="white" stroke-width="4"/>
</svg>
