<svg width="57" height="57" viewBox="0 0 57 57" fill="none" xmlns="http://www.w3.org/2000/svg">
<rect y="9" width="48" height="48" rx="15" fill="#FF5B5B" fill-opacity="0.15"/>
<path d="M24.0001 28.625C23.1348 28.625 22.289 28.8816 21.5695 29.3623C20.85 29.8431 20.2893 30.5263 19.9582 31.3258C19.627 32.1252 19.5404 33.0048 19.7092 33.8535C19.878 34.7022 20.2947 35.4817 20.9065 36.0936C21.5184 36.7054 22.2979 37.1221 23.1466 37.2909C23.9953 37.4597 24.8749 37.3731 25.6744 37.042C26.4738 36.7108 27.1571 36.1501 27.6378 35.4306C28.1185 34.7111 28.3751 33.8653 28.3751 33C28.3737 31.8401 27.9124 30.7281 27.0922 29.9079C26.272 29.0877 25.16 28.6264 24.0001 28.625ZM24.0001 35.625C23.4809 35.625 22.9734 35.471 22.5417 35.1826C22.1101 34.8942 21.7736 34.4842 21.5749 34.0045C21.3763 33.5249 21.3243 32.9971 21.4256 32.4879C21.5268 31.9787 21.7769 31.511 22.144 31.1438C22.5111 30.7767 22.9788 30.5267 23.488 30.4254C23.9972 30.3241 24.525 30.3761 25.0047 30.5748C25.4843 30.7735 25.8943 31.1099 26.1827 31.5416C26.4712 31.9733 26.6251 32.4808 26.6251 33C26.6243 33.696 26.3475 34.3632 25.8554 34.8553C25.3633 35.3474 24.6961 35.6242 24.0001 35.625Z" fill="#FF5B5B"/>
<path d="M15.4893 27.5599C15.0591 27.3983 14.5828 27.4104 14.1613 27.5936C13.7397 27.7768 13.406 28.1168 13.2307 28.5417C13.0554 28.9665 13.0522 29.443 13.2219 29.8701C13.3915 30.2973 13.7207 30.6417 14.1397 30.8305C14.566 31.0108 14.9297 31.3128 15.1855 31.6986C15.4412 32.0844 15.5776 32.537 15.5776 32.9999C15.5776 33.4627 15.4412 33.9153 15.1855 34.3012C14.9297 34.687 14.566 34.9889 14.1397 35.1692C13.7206 35.358 13.3913 35.7025 13.2216 36.1298C13.052 36.557 13.0552 37.0335 13.2306 37.4585C13.406 37.8834 13.7399 38.2234 14.1615 38.4065C14.5832 38.5897 15.0595 38.6016 15.4898 38.4398C15.9192 38.2649 16.3906 38.2206 16.8451 38.3125C17.2995 38.4043 17.7167 38.6283 18.0445 38.9562C18.3722 39.2841 18.5959 39.7014 18.6875 40.1559C18.7792 40.6103 18.7347 41.0817 18.5596 41.511C18.3927 41.9424 18.4031 42.4223 18.5884 42.8461C18.7738 43.2699 19.1191 43.6033 19.5491 43.7737C19.7645 43.8628 19.9953 43.9087 20.2284 43.9087C20.5689 43.9111 20.9026 43.8129 21.1875 43.6265C21.4724 43.44 21.696 43.1736 21.8302 42.8606C22.0105 42.4343 22.3124 42.0706 22.6982 41.8149C23.084 41.5592 23.5366 41.4228 23.9995 41.4228C24.4624 41.4228 24.915 41.5592 25.3008 41.8149C25.6866 42.0706 25.9885 42.4343 26.1689 42.8606C26.3577 43.2798 26.7022 43.609 27.1294 43.7787C27.5567 43.9484 28.0332 43.9452 28.4581 43.7697C28.883 43.5943 29.223 43.2605 29.4062 42.8388C29.5893 42.4172 29.6013 41.9408 29.4394 41.5105C29.2646 41.0811 29.2203 40.6097 29.3121 40.1553C29.404 39.7008 29.6279 39.2836 29.9558 38.9559C30.2837 38.6281 30.701 38.4044 31.1555 38.3128C31.61 38.2212 32.0814 38.2657 32.5107 38.4407C32.9394 38.6072 33.4164 38.5983 33.8386 38.4159C34.2608 38.2335 34.5942 37.8924 34.767 37.4662L33.9646 37.1176L33.1683 36.8194C32.4205 36.5138 31.599 36.4362 30.8072 36.5963C30.0154 36.7564 29.2886 37.1471 28.7182 37.7191C28.1482 38.2937 27.7566 39.0209 27.5906 39.813C27.4245 40.6051 27.4912 41.4283 27.7824 42.1834C27.4703 41.4382 26.9446 40.802 26.2715 40.3552C25.5984 39.9083 24.808 39.6707 24.0001 39.6724C23.1904 39.6749 22.3988 39.912 21.721 40.3551C21.0433 40.7981 20.5085 41.4281 20.1813 42.1688C20.4866 41.4209 20.5641 40.5995 20.404 39.8077C20.244 39.0159 19.8534 38.2891 19.2816 37.7186C18.7069 37.1487 17.9798 36.7572 17.1877 36.5911C16.3956 36.4251 15.5724 36.4917 14.8173 36.7829C15.5625 36.4707 16.1986 35.9448 16.6453 35.2716C17.0921 34.5984 17.3296 33.808 17.3278 33.0001C17.3253 32.1904 17.0881 31.3988 16.6451 30.721C16.202 30.0433 15.5721 29.5085 14.8314 29.1813C15.5792 29.4868 16.4007 29.5644 17.1925 29.4043C17.9843 29.2442 18.7111 28.8536 19.2816 28.2816C19.8515 27.707 20.2431 26.9798 20.4092 26.1877C20.5752 25.3956 20.5086 24.5724 20.2173 23.8173C20.5295 24.5625 21.0554 25.1986 21.7285 25.6453C22.4017 26.0921 23.1921 26.3296 24.0001 26.3278C24.8098 26.3253 25.6014 26.0881 26.2791 25.6451C26.9569 25.202 27.4917 24.5721 27.8188 23.8314C27.5135 24.5793 27.436 25.4007 27.5961 26.1925C27.7562 26.9842 28.1467 27.711 28.7186 28.2816C29.2934 28.8512 30.0205 29.2426 30.8126 29.4087C31.6046 29.5747 32.4277 29.5082 33.1829 29.2173C32.4413 29.5288 31.8078 30.0518 31.3614 30.7209C30.9149 31.39 30.6753 32.1758 30.6724 32.9802C30.6695 33.7845 30.9034 34.572 31.345 35.2443C31.7865 35.9167 32.4162 36.4442 33.1556 36.7611C33.158 36.7683 33.158 36.7761 33.1556 36.7833L33.9643 37.117L34.7684 37.4618L34.7731 37.4507C34.9517 37.0269 34.9561 36.5499 34.7852 36.1229C34.6144 35.696 34.2821 35.3536 33.8605 35.1701C33.4342 34.9898 33.0704 34.6878 32.8147 34.302C32.559 33.9162 32.4226 33.4636 32.4226 33.0007C32.4226 32.5379 32.559 32.0853 32.8147 31.6994C33.0704 31.3136 33.4342 31.0117 33.8605 30.8314C34.2796 30.6426 34.6088 30.2981 34.7785 29.8708C34.9482 29.4436 34.945 28.9671 34.7696 28.5421C34.5941 28.1172 34.2603 27.7772 33.8386 27.5941C33.417 27.4109 32.9406 27.399 32.5103 27.5608C32.081 27.7357 31.6095 27.78 31.1551 27.6881C30.7007 27.5963 30.2835 27.3723 29.9557 27.0444C29.628 26.7165 29.4043 26.2992 29.3126 25.8447C29.221 25.3903 29.2655 24.9189 29.4406 24.4896C29.6023 24.0593 29.5904 23.583 29.4072 23.1614C29.224 22.7398 28.884 22.406 28.4591 22.2306C28.0342 22.0552 27.5578 22.052 27.1305 22.2217C26.7033 22.3914 26.3589 22.7206 26.1701 23.1397C25.9898 23.566 25.6879 23.9297 25.302 24.1855C24.9162 24.4412 24.4636 24.5776 24.0007 24.5776C23.5379 24.5776 23.0853 24.4412 22.6994 24.1855C22.3136 23.9297 22.0117 23.566 21.8314 23.1397C21.6426 22.7206 21.2981 22.3913 20.8708 22.2216C20.4436 22.052 19.9671 22.0552 19.5422 22.2306C19.1172 22.406 18.7772 22.7399 18.5941 23.1615C18.4109 23.5832 18.399 24.0595 18.5608 24.4898C18.7357 24.9192 18.78 25.3906 18.6881 25.8451C18.5963 26.2995 18.3724 26.7167 18.0444 27.0445C17.7165 27.3722 17.2992 27.5959 16.8447 27.6875C16.3903 27.7792 15.9189 27.7347 15.4896 27.5596L15.4893 27.5599Z" fill="#FF5B5B"/>
<rect x="33.5" y="1.5" width="22" height="22" rx="11" fill="#FF5B5B" stroke="#F3F2F7" stroke-width="3"/>
</svg>
