<svg width="85" height="85" viewBox="0 0 85 85" fill="none" xmlns="http://www.w3.org/2000/svg">
<ellipse cx="42.1554" cy="42.5" rx="42.1554" ry="42.5" fill="#F7A400" fill-opacity="0.15"/>
<path d="M48 60.5V49.7C48 48.5799 48 48.0198 47.782 47.592C47.5903 47.2157 47.2843 46.9097 46.908 46.718C46.4802 46.5 45.9201 46.5 44.8 46.5H39.2C38.0799 46.5 37.5198 46.5 37.092 46.718C36.7157 46.9097 36.4097 47.2157 36.218 47.592C36 48.0198 36 48.5799 36 49.7V60.5M24 32.5C24 35.8137 26.6863 38.5 30 38.5C33.3137 38.5 36 35.8137 36 32.5C36 35.8137 38.6863 38.5 42 38.5C45.3137 38.5 48 35.8137 48 32.5C48 35.8137 50.6863 38.5 54 38.5C57.3137 38.5 60 35.8137 60 32.5M30.4 60.5H53.6C55.8402 60.5 56.9603 60.5 57.816 60.064C58.5686 59.6805 59.1805 59.0686 59.564 58.316C60 57.4603 60 56.3402 60 54.1V30.9C60 28.6598 60 27.5397 59.564 26.684C59.1805 25.9314 58.5686 25.3195 57.816 24.936C56.9603 24.5 55.8402 24.5 53.6 24.5H30.4C28.1598 24.5 27.0397 24.5 26.184 24.936C25.4314 25.3195 24.8195 25.9314 24.436 26.684C24 27.5397 24 28.6598 24 30.9V54.1C24 56.3402 24 57.4603 24.436 58.316C24.8195 59.0686 25.4314 59.6805 26.184 60.064C27.0397 60.5 28.1598 60.5 30.4 60.5Z" stroke="#1C2B58" stroke-width="4" stroke-linecap="round" stroke-linejoin="round"/>
<path opacity="0.1" d="M60.3262 51.0508C59.6393 50.8892 58.9524 50.8083 58.2273 50.8083C52.5794 50.8083 48 55.6574 48 61.6379C48 64.4261 48.9922 66.9719 50.6331 68.8711L60.3262 64.6686V51.0508V51.0508Z" fill="#0C1E5B"/>
<path d="M62.387 71.6592C68.0353 71.6592 72.6143 66.8106 72.6143 60.8296C72.6143 54.8486 68.0353 50 62.387 50C56.7386 50 52.1597 54.8486 52.1597 60.8296C52.1597 66.8106 56.7386 71.6592 62.387 71.6592Z" fill="#FF5B5B"/>
<path d="M61.3186 65.0323C61.0133 65.0323 60.7462 64.9111 60.5172 64.6687L57.2735 61.2339C56.8156 60.749 56.8156 59.9812 57.2735 59.5367C57.7314 59.0518 58.4565 59.0518 58.8763 59.5367L61.3186 62.1229L65.898 57.2738C66.356 56.7889 67.081 56.7889 67.5008 57.2738C67.9587 57.7587 67.9587 58.5265 67.5008 58.971L62.12 64.6687C61.8911 64.9111 61.6239 65.0323 61.3186 65.0323Z" fill="white"/>
</svg>
