<svg width="85" height="86" viewBox="0 0 85 86" fill="none" xmlns="http://www.w3.org/2000/svg">
<ellipse cx="42.4054" cy="43" rx="42.1554" ry="42.5" fill="#F7A400" fill-opacity="0.15"/>
<path d="M36.2232 20.3311L12.9065 29.9494L36.2232 39.5678L59.5399 29.9494L36.2232 20.3311Z" fill="#1C2B58"/>
<path d="M26.7592 24.2554L22.3707 26.0252L45.6874 35.682L50.0378 33.8737L26.7592 24.2554Z" fill="#F7C604"/>
<path d="M12.9065 29.9497V56.458L36.2232 66.0763V39.5681L12.9065 29.9497Z" fill="#0C1E5B"/>
<path d="M59.5399 29.9497V56.458L36.2232 66.0763V39.5681L59.5399 29.9497Z" fill="#3D4899" fill-opacity="0.76"/>
<path opacity="0.1" d="M59.5399 43.4921C58.853 43.3382 58.1661 43.2612 57.441 43.2612C51.7931 43.2612 47.2137 47.8781 47.2137 53.5721C47.2137 56.2268 48.2059 58.6506 49.8468 60.4589L59.5399 56.4576V43.4921Z" fill="#0C1E5B"/>
<path d="M45.6873 35.6818V46.8006L50.0377 44.9924V33.8735L45.6873 35.6818Z" fill="#F7C604"/>
<path d="M61.6006 63.1135C67.249 63.1135 71.8279 58.4972 71.8279 52.8026C71.8279 47.108 67.249 42.4917 61.6006 42.4917C55.9522 42.4917 51.3733 47.108 51.3733 52.8026C51.3733 58.4972 55.9522 63.1135 61.6006 63.1135Z" fill="#FF5B5B"/>
<path d="M60.5323 56.804C60.227 56.804 59.9598 56.6886 59.7309 56.4577L56.4871 53.1875C56.0292 52.7258 56.0292 51.9948 56.4871 51.5716C56.9451 51.1099 57.6701 51.1099 58.0899 51.5716L60.5323 54.0339L65.1116 49.4171C65.5696 48.9554 66.2947 48.9554 66.7144 49.4171C67.1724 49.8787 67.1724 50.6097 66.7144 51.033L61.3336 56.4577C61.1047 56.6886 60.8376 56.804 60.5323 56.804Z" fill="white"/>
<path d="M20.4624 52.8799L17.9438 47.6475L15.5778 50.7638L16.8753 51.3409V54.7266L18.9741 55.6884V52.2643L20.4624 52.8799Z" fill="#F2F5F3"/>
</svg>
