<svg width="86" height="86" viewBox="0 0 86 86" fill="none" xmlns="http://www.w3.org/2000/svg">
<ellipse cx="42.9689" cy="43" rx="42.1554" ry="42.5" fill="#F7A400" fill-opacity="0.15"/>
<path d="M47.8135 61V50.2C47.8135 49.0799 47.8135 48.5198 47.5956 48.092C47.4038 47.7157 47.0978 47.4097 46.7215 47.218C46.2937 47 45.7336 47 44.6135 47H39.0135C37.8934 47 37.3334 47 36.9056 47.218C36.5292 47.4097 36.2233 47.7157 36.0315 48.092C35.8135 48.5198 35.8135 49.0799 35.8135 50.2V61M23.8135 33C23.8135 36.3137 26.4998 39 29.8135 39C33.1272 39 35.8135 36.3137 35.8135 33C35.8135 36.3137 38.4998 39 41.8135 39C45.1272 39 47.8135 36.3137 47.8135 33C47.8135 36.3137 50.4998 39 53.8135 39C57.1272 39 59.8135 36.3137 59.8135 33M30.2135 61H53.4135C55.6537 61 56.7739 61 57.6295 60.564C58.3821 60.1805 58.9941 59.5686 59.3776 58.816C59.8135 57.9603 59.8135 56.8402 59.8135 54.6V31.4C59.8135 29.1598 59.8135 28.0397 59.3776 27.184C58.9941 26.4314 58.3821 25.8195 57.6295 25.436C56.7739 25 55.6537 25 53.4135 25H30.2135C27.9733 25 26.8532 25 25.9976 25.436C25.2449 25.8195 24.633 26.4314 24.2495 27.184C23.8135 28.0397 23.8135 29.1598 23.8135 31.4V54.6C23.8135 56.8402 23.8135 57.9603 24.2495 58.816C24.633 59.5686 25.2449 60.1805 25.9976 60.564C26.8532 61 27.9733 61 30.2135 61Z" stroke="#1C2B58" stroke-width="4" stroke-linecap="round" stroke-linejoin="round"/>
</svg>
