<svg width="86" height="86" viewBox="0 0 86 86" fill="none" xmlns="http://www.w3.org/2000/svg">
<ellipse cx="42.9689" cy="43" rx="42.1554" ry="42.5" fill="#F7A400" fill-opacity="0.15"/>
<path d="M21.3333 57.2083C21.3333 58.236 21.7416 59.2216 22.4683 59.9483C23.195 60.675 24.1806 61.0833 25.2083 61.0833H26.6318C26.9282 62.5432 27.7203 63.8558 28.8738 64.7986C30.0272 65.7414 31.4712 66.2564 32.9609 66.2564C34.4507 66.2564 35.8946 65.7414 37.0481 64.7986C38.2016 63.8558 38.9936 62.5432 39.2901 61.0833H47.425C49.1779 61.071 50.8891 60.5476 52.3488 59.5772C52.3488 59.6495 52.3282 59.7193 52.3282 59.7916C52.3273 61.1813 52.7747 62.5342 53.6039 63.6494C54.4331 64.7646 55.6 65.5826 56.9311 65.9819C58.2622 66.3811 59.6866 66.3403 60.9927 65.8656C62.2988 65.3909 63.417 64.5075 64.1811 63.3467C64.9451 62.1859 65.3144 60.8096 65.234 59.4222C65.1536 58.0348 64.6279 56.7104 63.7348 55.6456C62.8418 54.5808 61.6291 53.8325 60.2769 53.5118C58.9247 53.1911 57.5051 53.3151 56.229 53.8654C56.4469 52.8997 56.5028 51.9045 56.3943 50.9204L55.3946 42.9121C55.6619 42.9706 55.9347 43 56.2083 42.9999H57.5C58.1852 42.9999 58.8422 42.7277 59.3267 42.2433C59.8112 41.7588 60.0833 41.1017 60.0833 40.4166V37.8333C60.0833 37.1481 59.8112 36.491 59.3267 36.0066C58.8422 35.5221 58.1852 35.2499 57.5 35.2499H56.2083C55.6098 35.2527 55.0201 35.3941 54.4854 35.663C53.9507 35.932 53.4855 36.3211 53.1264 36.7999L52.7105 36.384C51.9823 35.6607 50.9986 35.2532 49.9722 35.2499H48.4583C48.1158 35.2499 47.7872 35.386 47.545 35.6282C47.3028 35.8705 47.1667 36.199 47.1667 36.5416C47.1667 36.8842 47.3028 37.2127 47.545 37.4549C47.7872 37.6972 48.1158 37.8333 48.4583 37.8333H49.9722C50.3141 37.8333 50.642 37.969 50.8841 38.2104L52.3928 39.7191C52.4315 39.9593 53.3589 47.4123 53.8368 51.2407C53.9504 52.1497 53.8694 53.0724 53.599 53.9476C53.3287 54.8228 52.8753 55.6305 52.2688 56.3171C51.6624 57.0036 50.9169 57.5533 50.0818 57.9297C49.2467 58.306 48.341 58.5004 47.425 58.4999H46.9342L44.5833 46.7483V44.2916C44.5833 43.2639 44.1751 42.2782 43.4484 41.5515C42.7217 40.8248 41.7361 40.4166 40.7083 40.4166H35.5417V33.9583C35.5417 32.9305 35.1334 31.9449 34.4067 31.2182C33.68 30.4915 32.6944 30.0833 31.6667 30.0833H25.2083C24.1806 30.0833 23.195 30.4915 22.4683 31.2182C21.7416 31.9449 21.3333 32.9305 21.3333 33.9583V44.2916C21.3333 45.3193 21.7416 46.3049 22.4683 47.0316C23.195 47.7583 24.1806 48.1666 25.2083 48.1666H25.7405C24.3724 49.2444 23.2654 50.6175 22.5023 52.1831C21.7391 53.7487 21.3395 55.4665 21.3333 57.2083ZM58.7917 55.9166C59.5581 55.9166 60.3073 56.1439 60.9445 56.5696C61.5818 56.9954 62.0784 57.6006 62.3717 58.3087C62.665 59.0168 62.7417 59.7959 62.5922 60.5476C62.4427 61.2992 62.0736 61.9897 61.5317 62.5316C60.9898 63.0736 60.2993 63.4426 59.5477 63.5921C58.796 63.7416 58.0168 63.6649 57.3088 63.3716C56.6007 63.0783 55.9955 62.5817 55.5697 61.9444C55.1439 61.3072 54.9167 60.558 54.9167 59.7916C54.9167 58.7639 55.3249 57.7783 56.0516 57.0515C56.7783 56.3248 57.764 55.9166 58.7917 55.9166ZM35.5417 42.9999H40.7083C41.0509 42.9999 41.3795 43.136 41.6217 43.3782C41.8639 43.6205 42 43.949 42 44.2916V45.5833H35.5417V42.9999ZM36.5957 61.0833C36.3326 61.8383 35.8411 62.4928 35.1894 62.9559C34.5376 63.419 33.7579 63.6678 32.9583 63.6678C32.1588 63.6678 31.3791 63.419 30.7273 62.9559C30.0755 62.4928 29.5841 61.8383 29.321 61.0833H36.5957ZM23.9167 33.9583C23.9167 33.6157 24.0528 33.2871 24.295 33.0449C24.5372 32.8027 24.8658 32.6666 25.2083 32.6666H31.6667C32.0092 32.6666 32.3378 32.8027 32.58 33.0449C32.8223 33.2871 32.9583 33.6157 32.9583 33.9583V35.2499H23.9167V33.9583ZM23.9167 37.8333H32.9583V40.3778H23.9167V37.8333ZM25.2083 45.5833C24.8658 45.5833 24.5372 45.4472 24.295 45.2049C24.0528 44.9627 23.9167 44.6342 23.9167 44.2916V42.9612H32.9583V45.5833H25.2083Z" fill="#1C2B58"/>
</svg>
