<svg width="86" height="86" viewBox="0 0 86 86" fill="none" xmlns="http://www.w3.org/2000/svg">
<ellipse cx="42.9689" cy="43" rx="42.1554" ry="42.5" fill="#F7A400" fill-opacity="0.15"/>
<path d="M22.9835 38.7857C25.9877 38.7857 28.4302 36.3513 28.4302 33.3571C28.4302 30.3629 25.9877 27.9286 22.9835 27.9286C19.9794 27.9286 17.5369 30.3629 17.5369 33.3571C17.5369 36.3513 19.9794 38.7857 22.9835 38.7857ZM61.1102 38.7857C64.1144 38.7857 66.5569 36.3513 66.5569 33.3571C66.5569 30.3629 64.1144 27.9286 61.1102 27.9286C58.106 27.9286 55.6635 30.3629 55.6635 33.3571C55.6635 36.3513 58.106 38.7857 61.1102 38.7857ZM63.8335 41.5H58.3869C56.889 41.5 55.5359 42.1022 54.5487 43.0777C57.9784 44.9522 60.4123 48.3366 60.94 52.3571H66.5569C68.0632 52.3571 69.2802 51.1442 69.2802 49.6429V46.9286C69.2802 43.9344 66.8377 41.5 63.8335 41.5ZM42.0469 41.5C47.3148 41.5 51.5785 37.2504 51.5785 32C51.5785 26.7496 47.3148 22.5 42.0469 22.5C36.7789 22.5 32.5152 26.7496 32.5152 32C32.5152 37.2504 36.7789 41.5 42.0469 41.5ZM48.5829 44.2143H47.8765C46.1063 45.0625 44.1404 45.5714 42.0469 45.5714C39.9533 45.5714 37.9959 45.0625 36.2172 44.2143H35.5109C30.0982 44.2143 25.7069 48.5911 25.7069 53.9857V56.4286C25.7069 58.6763 27.5366 60.5 29.7919 60.5H54.3019C56.5571 60.5 58.3869 58.6763 58.3869 56.4286V53.9857C58.3869 48.5911 53.9955 44.2143 48.5829 44.2143ZM29.5451 43.0777C28.5579 42.1022 27.2047 41.5 25.7069 41.5H20.2602C17.256 41.5 14.8135 43.9344 14.8135 46.9286V49.6429C14.8135 51.1442 16.0305 52.3571 17.5369 52.3571H23.1452C23.6814 48.3366 26.1154 44.9522 29.5451 43.0777Z" fill="#1C2B58"/>
</svg>
