<svg width="238" height="225" viewBox="0 0 238 225" fill="none" xmlns="http://www.w3.org/2000/svg">
<circle cx="117.616" cy="128.686" r="92.7093" fill="#FFB300"/>
<circle cx="229.006" cy="44.9707" r="8.99419" fill="#FFB300"/>
<ellipse cx="14.5291" cy="13.8372" rx="14.5291" ry="13.8372" fill="#FFB300"/>
<ellipse cx="6.9186" cy="188.878" rx="6.9186" ry="7.61047" fill="#FFB300"/>
<ellipse cx="212.401" cy="221.395" rx="3.4593" ry="2.76744" fill="#FFB300"/>
<circle cx="157.052" cy="143.215" r="3.4593" fill="white"/>
<circle cx="66.4188" cy="105.163" r="5.53488" fill="white"/>
<circle cx="147.366" cy="75.413" r="2.07558" fill="white"/>
<circle cx="89.9417" cy="172.965" r="2.76744" fill="white"/>
<path d="M111.333 154V150V154ZM108 154V158V154ZM88 134L92 134L88 134ZM88 114H84H88ZM108 94V90V94ZM111.333 94V98V94ZM88.2052 108.059L84.2544 107.434L84.2544 107.434L88.2052 108.059ZM102.059 94.2052L102.685 98.1559L102.059 94.2052ZM102.059 153.795L101.434 157.746H101.434L102.059 153.795ZM88.2052 139.941L84.2544 140.566L84.2544 140.566L88.2052 139.941ZM123.736 153.866C125.502 152.539 125.858 150.032 124.532 148.266C123.205 146.499 120.697 146.143 118.931 147.47L123.736 153.866ZM118.931 100.53C120.697 101.857 123.205 101.501 124.532 99.7344C125.858 97.9681 125.502 95.4606 123.736 94.1338L118.931 100.53ZM101.333 120C99.1242 120 97.3333 121.791 97.3333 124C97.3333 126.209 99.1242 128 101.333 128L101.333 120ZM144.667 124V128V124ZM137.152 107.532C135.421 106.16 132.905 106.45 131.532 108.181C130.16 109.913 130.45 112.428 132.181 113.801L137.152 107.532ZM140.543 115.326L143.028 112.192L140.543 115.326ZM140.543 132.674L143.028 135.808V135.808L140.543 132.674ZM132.181 134.199C130.45 135.572 130.16 138.087 131.532 139.819C132.905 141.55 135.421 141.84 137.152 140.468L132.181 134.199ZM147.934 123.164L151.884 122.535V122.535L147.934 123.164ZM147.934 124.836L151.884 125.465V125.465L147.934 124.836ZM111.333 150H108V158H111.333V150ZM92 134L92 114H84L84 134L92 134ZM108 98H111.333V90L108 90V98ZM92 114C92 110.75 92.0124 109.591 92.1559 108.685L84.2544 107.434C83.9876 109.119 84 111.056 84 114H92ZM108 90C105.056 90 103.119 89.9876 101.434 90.2544L102.685 98.1559C103.591 98.0124 104.75 98 108 98V90ZM92.1559 108.685C93.0144 103.265 97.2652 99.0144 102.685 98.1559L101.434 90.2544C92.5906 91.6551 85.6551 98.5906 84.2544 107.434L92.1559 108.685ZM108 150C104.75 150 103.591 149.988 102.685 149.844L101.434 157.746C103.119 158.012 105.056 158 108 158V150ZM84 134C84 136.944 83.9876 138.881 84.2544 140.566L92.1559 139.315C92.0124 138.409 92 137.25 92 134L84 134ZM102.685 149.844C97.2652 148.986 93.0144 144.735 92.1559 139.315L84.2544 140.566C85.6551 149.409 92.5906 156.345 101.434 157.746L102.685 149.844ZM111.333 158C115.981 158 120.281 156.461 123.736 153.866L118.931 147.47C116.814 149.059 114.189 150 111.333 150L111.333 158ZM111.333 98C114.189 98 116.814 98.9405 118.931 100.53L123.736 94.1338C120.281 91.5391 115.981 90 111.333 90V98ZM101.333 128L144.667 128L144.667 120L101.333 120L101.333 128ZM132.181 113.801L138.058 118.46L143.028 112.192L137.152 107.532L132.181 113.801ZM138.058 129.54L132.181 134.199L137.152 140.468L143.028 135.808L138.058 129.54ZM138.058 118.46C140.478 120.379 142.02 121.61 143.038 122.623C144.037 123.619 144.002 123.907 143.984 123.794L151.884 122.535C151.505 120.158 150.117 118.384 148.684 116.956C147.268 115.545 145.295 113.989 143.028 112.192L138.058 118.46ZM143.028 135.808C145.295 134.011 147.268 132.455 148.684 131.044C150.117 129.616 151.505 127.842 151.884 125.465L143.984 124.206C144.002 124.093 144.037 124.381 143.038 125.377C142.02 126.39 140.478 127.621 138.058 129.54L143.028 135.808ZM143.984 123.794C143.995 123.864 144 123.932 144 124L152 124C152 123.509 151.961 123.02 151.884 122.535L143.984 123.794ZM144 124C144 124.068 143.995 124.136 143.984 124.206L151.884 125.465C151.961 124.98 152 124.491 152 124L144 124ZM144.667 128H148V120H144.667V128Z" fill="#FAFAFA"/>
</svg>
