<svg width="93" height="34" viewBox="0 0 93 34" fill="none" xmlns="http://www.w3.org/2000/svg">
<path d="M15.5214 3.49349L19.6425 12.7931C21.9149 17.8611 22.9162 20.3213 23.8021 22.6339C24.6494 20.3213 25.6508 17.9103 27.9231 12.8423L32.0442 3.49349C32.9686 1.37771 34.3551 0 36.4349 0C38.4376 0 40.2093 1.47612 40.9026 4.52677L47.4116 33.4588H39.4775L37.0511 21.9942C36.2423 18.2547 35.7031 15.5977 35.2794 12.9407C34.4321 15.2533 33.4693 17.7627 31.6976 22.0434L28.2313 30.3097C26.8832 33.5572 25.5737 34 23.648 34C21.7223 34 20.4128 33.5572 19.0648 30.3097L15.5984 21.9942C13.7112 17.4674 12.7869 15.1548 11.9781 12.9407C11.5929 15.5485 11.0152 18.3039 10.2449 21.9942L7.81848 33.4588H0L6.66304 4.52677C7.3563 1.47612 9.16649 0 11.1693 0C13.2105 0 14.5971 1.32851 15.5214 3.49349Z" fill="#1C2B58"/>
<path d="M91.1946 33.4588H61.2302L66.0445 24.9957H72.515C74.0556 24.9957 75.8658 24.9957 77.0983 25.0941C76.405 23.9132 75.3266 21.8958 74.4793 20.3213L69.8575 11.6122L57.7639 33.4588H48.3278L64.8506 3.6903C65.929 1.77134 67.5081 0 70.0116 0C72.3995 0 73.9786 1.62373 75.0955 3.6903L91.1946 33.4588Z" fill="#FFB300"/>
<path d="M17.3268 3.49349L21.4479 12.7931C23.7202 17.8611 24.7216 20.3213 25.6074 22.6339C26.4548 20.3213 27.4562 17.9103 29.7285 12.8423L33.8496 3.49349C34.7739 1.37771 36.1605 0 38.2403 0C40.243 0 42.0147 1.47612 42.708 4.52677L49.2169 33.4588H41.2829L38.8565 21.9942C38.0477 18.2547 37.5085 15.5977 37.0848 12.9407C36.2375 15.2533 35.2746 17.7627 33.503 22.0434L30.0366 30.3097C28.6886 33.5572 27.3791 34 25.4534 34C23.5277 34 22.2182 33.5572 20.8701 30.3097L17.4038 21.9942C15.5166 17.4674 14.5922 15.1548 13.7834 12.9407C13.3983 15.5485 12.8206 18.3039 12.0503 21.9942L9.62385 33.4588H1.80538L8.46841 4.52677C9.16168 1.47612 10.9719 0 12.9746 0C15.0159 0 16.4024 1.32851 17.3268 3.49349Z" fill="#FFB300"/>
<path d="M93 33.4588H63.0356L67.8499 24.9957H74.3204C75.861 24.9957 77.6712 24.9957 78.9036 25.0941C78.2104 23.9132 77.132 21.8958 76.2846 20.3213L71.6629 11.6122L59.5693 33.4588H50.1332L66.656 3.6903C67.7344 1.77134 69.3135 0 71.8169 0C74.2048 0 75.7839 1.62373 76.9009 3.6903L93 33.4588Z" fill="#1C2B58"/>
</svg>
