<svg width="25" height="25" viewBox="0 0 25 25" fill="none" xmlns="http://www.w3.org/2000/svg">
<path d="M16.125 23.375V16.85C16.125 16.1733 16.125 15.8349 15.9933 15.5764C15.8775 15.3491 15.6926 15.1642 15.4652 15.0484C15.2068 14.9167 14.8684 14.9167 14.1917 14.9167H10.8083C10.1316 14.9167 9.79324 14.9167 9.53476 15.0484C9.3074 15.1642 9.12255 15.3491 9.0067 15.5764C8.875 15.8349 8.875 16.1733 8.875 16.85V23.375M1.625 6.45833C1.625 8.46037 3.24797 10.0833 5.25 10.0833C7.25203 10.0833 8.875 8.46037 8.875 6.45833C8.875 8.46037 10.498 10.0833 12.5 10.0833C14.502 10.0833 16.125 8.46037 16.125 6.45833C16.125 8.46037 17.748 10.0833 19.75 10.0833C21.752 10.0833 23.375 8.46037 23.375 6.45833M5.49167 23.375H19.5083C20.8618 23.375 21.5385 23.375 22.0555 23.1116C22.5102 22.8799 22.8799 22.5102 23.1116 22.0555C23.375 21.5385 23.375 20.8618 23.375 19.5083V5.49167C23.375 4.13821 23.375 3.46148 23.1116 2.94452C22.8799 2.4898 22.5102 2.12009 22.0555 1.8884C21.5385 1.625 20.8618 1.625 19.5083 1.625H5.49167C4.13821 1.625 3.46148 1.625 2.94452 1.8884C2.4898 2.12009 2.12009 2.4898 1.8884 2.94452C1.625 3.46148 1.625 4.13821 1.625 5.49167V19.5083C1.625 20.8618 1.625 21.5385 1.8884 22.0555C2.12009 22.5102 2.4898 22.8799 2.94452 23.1116C3.46148 23.375 4.13821 23.375 5.49167 23.375Z" stroke="#9E9E9E" stroke-width="2" stroke-linecap="round" stroke-linejoin="round"/>
</svg>
