<svg width="25" height="26" viewBox="0 0 25 26" fill="none" xmlns="http://www.w3.org/2000/svg">
<path d="M9.375 18.4688C9.375 17.9316 9.27327 17.4271 9.06982 16.9551C8.86637 16.4831 8.58561 16.0721 8.22754 15.7222C7.86947 15.3722 7.45443 15.0915 6.98242 14.8799C6.51042 14.6683 6.00586 14.5625 5.46875 14.5625C4.93164 14.5625 4.42708 14.6642 3.95508 14.8677C3.48307 15.0711 3.06803 15.3519 2.70996 15.71C2.35189 16.068 2.07113 16.4831 1.86768 16.9551C1.66423 17.4271 1.5625 17.9316 1.5625 18.4688V19.25H0V18.4688C0 17.9561 0.0651042 17.4637 0.195312 16.9917C0.325521 16.5197 0.520833 16.0721 0.78125 15.6489C1.04167 15.2257 1.35091 14.8433 1.70898 14.5015C2.06706 14.1597 2.47396 13.8667 2.92969 13.6226C2.49023 13.2482 2.15251 12.8047 1.9165 12.292C1.6805 11.7793 1.5625 11.234 1.5625 10.6562C1.5625 10.1191 1.66423 9.61458 1.86768 9.14258C2.07113 8.67057 2.34782 8.2596 2.69775 7.90967C3.04769 7.55973 3.46273 7.27897 3.94287 7.06738C4.42301 6.85579 4.93164 6.75 5.46875 6.75C6.00586 6.75 6.51042 6.85173 6.98242 7.05518C7.45443 7.25863 7.8654 7.53939 8.21533 7.89746C8.56527 8.25553 8.84603 8.67057 9.05762 9.14258C9.26921 9.61458 9.375 10.1191 9.375 10.6562C9.375 11.2259 9.257 11.7671 9.021 12.2798C8.78499 12.7925 8.44727 13.2401 8.00781 13.6226C8.4554 13.8586 8.85824 14.1475 9.21631 14.4893C9.57438 14.8311 9.88363 15.2135 10.144 15.6367C10.4045 16.0599 10.5998 16.5075 10.73 16.9795C10.8602 17.4515 10.9294 17.9479 10.9375 18.4688V19.25H9.375V18.4688ZM3.125 10.6562C3.125 10.9818 3.18604 11.2869 3.30811 11.5718C3.43018 11.8566 3.59701 12.1048 3.80859 12.3164C4.02018 12.528 4.26839 12.6948 4.55322 12.8169C4.83805 12.939 5.14323 13 5.46875 13C5.79427 13 6.09945 12.939 6.38428 12.8169C6.66911 12.6948 6.91732 12.528 7.12891 12.3164C7.34049 12.1048 7.50732 11.8566 7.62939 11.5718C7.75146 11.2869 7.8125 10.9818 7.8125 10.6562C7.8125 10.3307 7.75146 10.0256 7.62939 9.74072C7.50732 9.45589 7.34049 9.20768 7.12891 8.99609C6.91732 8.7845 6.66911 8.61768 6.38428 8.49561C6.09945 8.37354 5.79427 8.3125 5.46875 8.3125C5.14323 8.3125 4.83805 8.37354 4.55322 8.49561C4.26839 8.61768 4.02018 8.7845 3.80859 8.99609C3.59701 9.20768 3.43018 9.45589 3.30811 9.74072C3.18604 10.0256 3.125 10.3307 3.125 10.6562ZM22.0703 13.6226C22.5179 13.8586 22.9207 14.1475 23.2788 14.4893C23.6369 14.8311 23.9461 15.2135 24.2065 15.6367C24.467 16.0599 24.6623 16.5075 24.7925 16.9795C24.9227 17.4515 24.9919 17.9479 25 18.4688V19.25H23.4375V18.4688C23.4375 17.9316 23.3358 17.4271 23.1323 16.9551C22.9289 16.4831 22.6481 16.0721 22.29 15.7222C21.932 15.3722 21.5169 15.0915 21.0449 14.8799C20.5729 14.6683 20.0684 14.5625 19.5312 14.5625C18.9941 14.5625 18.4896 14.6642 18.0176 14.8677C17.5456 15.0711 17.1305 15.3519 16.7725 15.71C16.4144 16.068 16.1336 16.4831 15.9302 16.9551C15.7267 17.4271 15.625 17.9316 15.625 18.4688V19.25H14.0625V18.4688C14.0625 17.9561 14.1276 17.4637 14.2578 16.9917C14.388 16.5197 14.5833 16.0721 14.8438 15.6489C15.1042 15.2257 15.4134 14.8433 15.7715 14.5015C16.1296 14.1597 16.5365 13.8667 16.9922 13.6226C16.5527 13.2482 16.215 12.8047 15.979 12.292C15.743 11.7793 15.625 11.234 15.625 10.6562C15.625 10.1191 15.7267 9.61458 15.9302 9.14258C16.1336 8.67057 16.4103 8.2596 16.7603 7.90967C17.1102 7.55973 17.5252 7.27897 18.0054 7.06738C18.4855 6.85579 18.9941 6.75 19.5312 6.75C20.0684 6.75 20.5729 6.85173 21.0449 7.05518C21.5169 7.25863 21.9279 7.53939 22.2778 7.89746C22.6278 8.25553 22.9085 8.67057 23.1201 9.14258C23.3317 9.61458 23.4375 10.1191 23.4375 10.6562C23.4375 11.2259 23.3195 11.7671 23.0835 12.2798C22.8475 12.7925 22.5098 13.2401 22.0703 13.6226ZM17.1875 10.6562C17.1875 10.9818 17.2485 11.2869 17.3706 11.5718C17.4927 11.8566 17.6595 12.1048 17.8711 12.3164C18.0827 12.528 18.3309 12.6948 18.6157 12.8169C18.9006 12.939 19.2057 13 19.5312 13C19.8568 13 20.1619 12.939 20.4468 12.8169C20.7316 12.6948 20.9798 12.528 21.1914 12.3164C21.403 12.1048 21.5698 11.8566 21.6919 11.5718C21.814 11.2869 21.875 10.9818 21.875 10.6562C21.875 10.3307 21.814 10.0256 21.6919 9.74072C21.5698 9.45589 21.403 9.20768 21.1914 8.99609C20.9798 8.7845 20.7316 8.61768 20.4468 8.49561C20.1619 8.37354 19.8568 8.3125 19.5312 8.3125C19.2057 8.3125 18.9006 8.37354 18.6157 8.49561C18.3309 8.61768 18.0827 8.7845 17.8711 8.99609C17.6595 9.20768 17.4927 9.45589 17.3706 9.74072C17.2485 10.0256 17.1875 10.3307 17.1875 10.6562ZM14.0625 2.0625C13.4033 2.0625 12.7563 2.13167 12.1216 2.27002C11.4868 2.40837 10.8724 2.60775 10.2783 2.86816C9.68425 3.12858 9.12272 3.44596 8.59375 3.82031C8.06478 4.19466 7.5765 4.63005 7.12891 5.12646L5.96924 4.07666C6.49007 3.507 7.05973 3.00244 7.67822 2.56299C8.29671 2.12354 8.94775 1.74919 9.63135 1.43994C10.3149 1.1307 11.0311 0.898763 11.7798 0.744141C12.5285 0.589518 13.2894 0.508138 14.0625 0.5C15.1774 0.5 16.2679 0.66276 17.334 0.988281C18.4001 1.3138 19.3929 1.80615 20.3125 2.46533V0.5H21.875V5.1875H17.1875V3.625H19.2505C18.4774 3.1123 17.6514 2.72575 16.7725 2.46533C15.8936 2.20492 14.9902 2.07064 14.0625 2.0625ZM10.9375 23.9375C11.5967 23.9375 12.2437 23.8683 12.8784 23.73C13.5132 23.5916 14.1276 23.3923 14.7217 23.1318C15.3158 22.8714 15.8773 22.554 16.4062 22.1797C16.9352 21.8053 17.4235 21.37 17.8711 20.8735L19.0308 21.9233C18.5099 22.493 17.9403 22.9976 17.3218 23.437C16.7033 23.8765 16.0482 24.2508 15.3564 24.5601C14.6647 24.8693 13.9486 25.1012 13.208 25.2559C12.4674 25.4105 11.7106 25.4919 10.9375 25.5C9.82259 25.5 8.7321 25.3372 7.66602 25.0117C6.59994 24.6862 5.6071 24.1938 4.6875 23.5347V25.5H3.125V20.8125H7.8125V22.375H5.74951C6.52262 22.8877 7.34863 23.2743 8.22754 23.5347C9.10645 23.7951 10.0098 23.9294 10.9375 23.9375Z" fill="white"/>
</svg>
