<svg width="28" height="26" viewBox="0 0 28 26" fill="none" xmlns="http://www.w3.org/2000/svg">
<path d="M4.2 11.2143C5.74438 11.2143 7 9.61272 7 7.64286C7 5.67299 5.74438 4.07143 4.2 4.07143C2.65563 4.07143 1.4 5.67299 1.4 7.64286C1.4 9.61272 2.65563 11.2143 4.2 11.2143ZM23.8 11.2143C25.3444 11.2143 26.6 9.61272 26.6 7.64286C26.6 5.67299 25.3444 4.07143 23.8 4.07143C22.2556 4.07143 21 5.67299 21 7.64286C21 9.61272 22.2556 11.2143 23.8 11.2143ZM25.2 13H22.4C21.63 13 20.9344 13.3962 20.4269 14.0379C22.19 15.2712 23.4413 17.4978 23.7125 20.1429H26.6C27.3744 20.1429 28 19.3449 28 18.3571V16.5714C28 14.6016 26.7444 13 25.2 13ZM14 13C16.7081 13 18.9 10.2042 18.9 6.75C18.9 3.29576 16.7081 0.5 14 0.5C11.2919 0.5 9.1 3.29576 9.1 6.75C9.1 10.2042 11.2919 13 14 13ZM17.36 14.7857H16.9969C16.0869 15.3437 15.0763 15.6786 14 15.6786C12.9237 15.6786 11.9175 15.3437 11.0031 14.7857H10.64C7.8575 14.7857 5.6 17.6652 5.6 21.2143V22.8214C5.6 24.3002 6.54063 25.5 7.7 25.5H20.3C21.4594 25.5 22.4 24.3002 22.4 22.8214V21.2143C22.4 17.6652 20.1425 14.7857 17.36 14.7857ZM7.57313 14.0379C7.06563 13.3962 6.37 13 5.6 13H2.8C1.25563 13 0 14.6016 0 16.5714V18.3571C0 19.3449 0.625625 20.1429 1.4 20.1429H4.28313C4.55875 17.4978 5.81 15.2712 7.57313 14.0379Z" fill="white"/>
</svg>
